<svg xmlns="http://www.w3.org/2000/svg" width="31.55" height="43" viewBox="0 0 31.55 43"><defs><style>.cls-1{fill:#fff;}</style></defs><title>app</title><g id="Layer_2" data-name="Layer 2"><g id="Layer_3" data-name="Layer 3"><path class="cls-1" d="M18.08,19.93c0-2.33-.06-4.74-.05-7.35a4.19,4.19,0,0,1,3.18,1.74.41.41,0,0,0,.36.21.48.48,0,0,0,.41-.24.39.39,0,0,0,0-.41A5.09,5.09,0,0,0,18,11.71V11c0-.38,0-.77,0-1.15a.41.41,0,0,0-.11-.3.45.45,0,0,0-.32-.13.42.42,0,0,0-.44.42c0,.37,0,.74,0,1.11v.74h-.08a9.82,9.82,0,0,0-2.33.28v-2a.41.41,0,0,0-.12-.3.45.45,0,0,0-.32-.13.42.42,0,0,0-.44.42v2.28c-2.16.79-4.36,2.54-3.56,4.91A4.49,4.49,0,0,0,13.86,20v7a4.56,4.56,0,0,1-3.47-3.3.43.43,0,0,0-.42-.3.46.46,0,0,0-.37.18.39.39,0,0,0,0,.36,5.38,5.38,0,0,0,4.31,4V32a.41.41,0,0,0,.12.3.45.45,0,0,0,.32.13.42.42,0,0,0,.44-.42V28q.4,0,.83,0c.38,0,.79,0,1.21-.06.22,0,.45-.05.68-.09V28c.05,1.29.1,2.58.16,3.86a.44.44,0,0,0,.45.42.43.43,0,0,0,.31-.13.39.39,0,0,0,.1-.3c-.07-1.38-.12-2.76-.18-4.14a5.5,5.5,0,0,0,3.5-2.39,3,3,0,0,0,.1-2.52C21.21,20.87,19.59,20.26,18.08,19.93Zm.19,6.92c-.08-2.15-.14-4.14-.17-6.07a6,6,0,0,1,1.25.47,3.48,3.48,0,0,1,1.78,2,2.34,2.34,0,0,1-.28,1.88A4,4,0,0,1,18.27,26.85Zm-1.84-7.22c-.56-.09-1.15-.19-1.7-.31V12.85l.14,0a8.71,8.71,0,0,1,2.21-.28h.06c0,2.57,0,4.94.05,7.23Zm-1.7.53,1.19.2,1.3.22c0,2.08.1,4.24.18,6.45l-.66.08c-.42,0-.81.06-1.18.06s-.57,0-.84,0Zm-.86-7v5.95a5.41,5.41,0,0,1-1.06-.46,3.24,3.24,0,0,1-1.67-2.24,2.33,2.33,0,0,1,.71-2A5.7,5.7,0,0,1,13.87,13.14Z"/><path class="cls-1" d="M31.51,33.41c.09-2.93,0-5.91-.1-8.79-.05-1.57-.1-3.14-.13-4.71,0-2.26,0-4.55,0-6.77,0-.91,0-1.83,0-2.74,0-1.79,0-3.36-.07-4.8,0-.21,0-.43,0-.64a6.08,6.08,0,0,0-.43-2.61c-1-2-3-2.31-5.09-2.34h-1c-1.81,0-3.65.06-5.43.11-1.21,0-2.42.08-3.63.1l-1.58,0c-1,0-1.93,0-2.9,0L9,.26H8.9c-.44,0-.9,0-1.36,0s-1,0-1.46,0A7.62,7.62,0,0,0,2.65.82,5,5,0,0,0,.13,5C0,7,.08,9.12.14,11.13c0,1.06.06,2.12.07,3.18,0,3.24,0,6.54-.1,9.73C.07,25.69,0,27.34,0,29c0,2.31,0,4.7,0,7.1,0,2.16.12,3.47,1.6,5.29a4.31,4.31,0,0,0,3.8,1.47H7c1,0,2,0,3,.07S12,43,13,43l3.13,0,3.14,0h0a74,74,0,0,0,7.81-.34c1.55-.17,3-.45,3.72-2.08A14.25,14.25,0,0,0,31.51,35C31.51,34.45,31.5,33.91,31.51,33.41ZM.82,32.54c0-.6,0-1.16,0-1.65,0-2.14.05-4.27.1-6.41,0-1.57.06-3.14.08-4.71,0-2.36.05-5.48,0-8.59,0-.51,0-1.06-.09-1.63C.77,7.22.6,4.59,1.8,2.8,2.83,1.25,4.64,1,6.28,1c.5,0,1,0,1.5,0s.92,0,1.34,0h.13l1.9,0c1,0,2,0,2.95,0l1.59,0c1.25,0,2.51-.06,3.76-.1L22.74.9l1.1,0c.55,0,1.15-.06,1.74-.06,1.68,0,3.72.23,4.51,2a7.62,7.62,0,0,1,.37,2.94c0,.29,0,.57,0,.83,0,1.07,0,2.23,0,3.56,0,1,0,2.08-.05,3.12,0,1.43-.06,2.85-.06,4.28,0,2.26.07,4.55.14,6.77,0,1.53.1,3.06.13,4.6,0,1.89,0,3.81-.06,5.68,0,.37,0,.76,0,1.17,0,2.64,0,5.62-3,6a51.77,51.77,0,0,1-6.82.36H11.62c-2.68,0-4.74,0-6.68-.11s-3.23-1.17-3.8-3.33A21.92,21.92,0,0,1,.82,32.54Z"/><path class="cls-1" d="M3.77,18.68c-.06,5.32-.13,10.83.31,16.21a.44.44,0,0,0,.43.43l2.18.08c4.06.15,8.25.31,12.38.31h0c3.07,0,5.81-.09,8.4-.26a.44.44,0,0,0,.43-.44c0-1.93-.06-3.89-.11-5.79-.06-2.47-.13-5-.11-7.54l0-2.42c0-3.39.06-6.89,0-10.33,0-.12,0-.29,0-.49,0-.71.09-1.68-.22-2a1.09,1.09,0,0,0-.84-.26h-.51c-3.1-.09-6.18-.1-9.32-.1H15.38c-3.62,0-7.48,0-11.23.28l-.1,0a.39.39,0,0,0-.32.41C3.87,10.73,3.82,14.77,3.77,18.68ZM26.76,7h0a2.87,2.87,0,0,1,0,.45c0,.08,0,.16,0,.23.05,1,.06,2,.06,3v.46c0,2.37,0,4.75,0,7.12,0,4.4-.06,9,.11,13.43V32c0,.63,0,1.26.06,1.9,0,.13,0,.23,0,.31,0,.26,0,.26-.29.44a2.43,2.43,0,0,1-.73.07H25.4c-1.94.1-4,.15-6.26.15H17.75c-2.55,0-5.07-.1-7-.16l-3.48-.13H6.85a6.75,6.75,0,0,1-.93,0l-.3,0c-.68-.09-.72-.09-.75-.92-.17-4.47-.16-9-.14-13.41,0-4.24,0-8.63-.12-12.95,2.93-.19,6-.28,10.08-.28,1.88,0,3.76,0,5.64,0H21c.73,0,1.46,0,2.2.06s1.73.06,2.59.06h.94V7Z"/><path class="cls-1" d="M16.08,36.9h-1c-1.21,0-2.51.17-3,1.4a1.77,1.77,0,0,0,0,1.71c.62.92,2.25,1,2.93,1l.68,0,.88,0h0c1.35,0,2.78-.22,3.1-1.82a1.66,1.66,0,0,0-.26-1.42C18.75,37,17.14,36.93,16.08,36.9Zm-2.23,3.2A1.11,1.11,0,0,1,13,39a1.18,1.18,0,0,1,.84-1.16,3.66,3.66,0,0,1,1.07-.13l.65,0H17a1.9,1.9,0,0,1,1.86,1.11.78.78,0,0,1-.1.71c-.31.4-1.1.6-2.42.6l-.75,0H14.5A2.53,2.53,0,0,1,13.84,40.1Z"/><path class="cls-1" d="M12.31,4.18h0c1-.07,2.09-.1,3.12-.1,1.28,0,2.59.05,3.87.16h0a.38.38,0,0,0,.39-.39.45.45,0,0,0-.41-.48c-1.29-.1-2.59-.16-3.88-.16-1,0-2.09,0-3.13.1a.44.44,0,0,0-.42.47A.4.4,0,0,0,12.31,4.18Z"/><path class="cls-1" d="M20.76,4.21a.4.4,0,0,0,.32-.14.46.46,0,0,0,.1-.3.42.42,0,0,0-.42-.44.4.4,0,0,0-.32.14.46.46,0,0,0-.1.3A.42.42,0,0,0,20.76,4.21Z"/><path class="cls-1" d="M8.19,8.18h-1c-.58,0-1.28.08-1.49.71a7.27,7.27,0,0,0,0,3.2c0,.31.09.62.12.9a.46.46,0,0,0,.47.41.42.42,0,0,0,.31-.13.38.38,0,0,0,.09-.3l-.07-.62c-.07-.68-.15-1.39-.16-2.08V10c0-.41,0-.8.29-.93A1.58,1.58,0,0,1,7.3,9h.9a.43.43,0,0,0,.42-.46A.4.4,0,0,0,8.19,8.18Z"/><path class="cls-1" d="M9.81,8.46A.42.42,0,0,0,9.39,8a.4.4,0,0,0-.32.14.46.46,0,0,0-.1.3.42.42,0,0,0,.42.44.4.4,0,0,0,.32-.14A.46.46,0,0,0,9.81,8.46Z"/></g></g></svg>