<svg xmlns="http://www.w3.org/2000/svg" width="50.7" height="49" viewBox="0 0 50.7 49"><defs><style>.cls-1{fill:#fff;}</style></defs><title>basket</title><g id="Layer_2" data-name="Layer 2"><g id="Layer_3" data-name="Layer 3"><path class="cls-1" d="M25.78,46.05a2.23,2.23,0,0,1-2.23-2.23V32.9a2.23,2.23,0,0,1,4.45,0V43.83A2.23,2.23,0,0,1,25.78,46.05Zm0-14.64a1.49,1.49,0,0,0-1.49,1.49V43.83a1.49,1.49,0,1,0,3,0V32.9A1.49,1.49,0,0,0,25.78,31.41Z"/><path class="cls-1" d="M31.71,46.21h-.22a2.23,2.23,0,0,1-2-2.43l1.07-10.88a2.22,2.22,0,0,1,2.21-2H33a2.23,2.23,0,0,1,2,2.44L33.92,44.2A2.22,2.22,0,0,1,31.71,46.21Zm1.07-14.59A1.48,1.48,0,0,0,31.3,33L30.22,43.84a1.49,1.49,0,0,0,1.34,1.63h.15a1.48,1.48,0,0,0,1.48-1.34l1.07-10.88a1.49,1.49,0,0,0-1.34-1.63Z"/><path class="cls-1" d="M37.73,46.31l-.32,0a2.23,2.23,0,0,1-1.89-2.52l1.56-10.82A2.24,2.24,0,0,1,39.29,31l.32,0a2.23,2.23,0,0,1,1.89,2.52L39.93,44.4A2.24,2.24,0,0,1,37.73,46.31Zm1.56-14.53a1.5,1.5,0,0,0-1.47,1.28L36.25,43.87a1.49,1.49,0,0,0,1.26,1.69l.22,0a1.5,1.5,0,0,0,1.47-1.28l1.56-10.82a1.49,1.49,0,0,0-1.26-1.69Z"/><path class="cls-1" d="M19.78,46.21h0a2.22,2.22,0,0,1-2.21-2L16.5,33.33a2.23,2.23,0,0,1,2-2.44h.22a2.22,2.22,0,0,1,2.21,2L22,43.77a2.23,2.23,0,0,1-2,2.43ZM18.72,31.62h-.15a1.49,1.49,0,0,0-1.34,1.63l1.07,10.88a1.48,1.48,0,0,0,1.48,1.34h.15a1.49,1.49,0,0,0,1.34-1.63L20.2,33A1.48,1.48,0,0,0,18.72,31.62Z"/><path class="cls-1" d="M13.76,46.31h0a2.24,2.24,0,0,1-2.2-1.91L10,33.58a2.23,2.23,0,0,1,1.89-2.52l.32,0a2.24,2.24,0,0,1,2.2,1.91L16,43.76a2.23,2.23,0,0,1-1.89,2.52ZM12.2,31.78l-.22,0a1.49,1.49,0,0,0-1.26,1.69l1.56,10.82a1.5,1.5,0,0,0,1.47,1.28h0l.22,0a1.49,1.49,0,0,0,1.26-1.69L13.68,33.05A1.5,1.5,0,0,0,12.2,31.78Z"/><path class="cls-1" d="M41.8,49H8.95a3.33,3.33,0,0,1-3.32-3.29l-3-18.25H2.21A2.22,2.22,0,0,1,0,25.24V19.83a2.22,2.22,0,0,1,2.21-2.22H22.48V2a2,2,0,0,1,2-2H26a2,2,0,0,1,2,2V17.61H48.49a2.22,2.22,0,0,1,2.22,2.22v5.41a2.22,2.22,0,0,1-2.22,2.22h-.34l-3,18.25A3.33,3.33,0,0,1,41.8,49ZM2.21,18.35A1.48,1.48,0,0,0,.74,19.83v5.41a1.48,1.48,0,0,0,1.48,1.48h1l3.14,19a2.59,2.59,0,0,0,2.58,2.58H41.8a2.59,2.59,0,0,0,2.58-2.58v-.06l3.13-18.9h1A1.48,1.48,0,0,0,50,25.24V19.83a1.48,1.48,0,0,0-1.48-1.48H27.28V2A1.27,1.27,0,0,0,26,.74H24.49A1.27,1.27,0,0,0,23.22,2V18.35Z"/><path class="cls-1" d="M25.35,25.74A3.57,3.57,0,0,1,22.48,20V2a2,2,0,0,1,2-2H26a2,2,0,0,1,2,2V19.81a3.57,3.57,0,0,1-2.67,5.94Zm-.86-25A1.27,1.27,0,0,0,23.22,2V20.31l-.08.1a2.8,2.8,0,0,0-.62,1.77,2.83,2.83,0,1,0,4.87-2l-.1-.11V2A1.27,1.27,0,0,0,26,.76Z"/><rect class="cls-1" x="2.21" y="26.72" width="46.27" height="0.74"/></g></g></svg>