<svg xmlns="http://www.w3.org/2000/svg" width="341.26" height="119" viewBox="0 0 341.26 119"><defs><style>.cls-1{fill:#fff;}.cls-2{fill:#8daa3d;}</style></defs><title>crave-wordmark</title><g id="Layer_2" data-name="Layer 2"><g id="Layer_1-2" data-name="Layer 1"><path class="cls-1" d="M102.65,64.54v53.67H76.29V.27h40a29.52,29.52,0,0,1,10.51,1.67,18,18,0,0,1,6.89,4.37,18.75,18.75,0,0,1,4,7.18,43.26,43.26,0,0,1,1.89,9c.29,3,.44,6.6.44,10.84,0,2.22,0,4-.11,5.44a33.56,33.56,0,0,1-.81,5.33,18.34,18.34,0,0,1-2,5.37,16.08,16.08,0,0,1-3.81,4.22,18.08,18.08,0,0,1-6.18,3.19,13.76,13.76,0,0,1,6,2.48,10.2,10.2,0,0,1,3.4,4.48,24.84,24.84,0,0,1,1.41,4.92,31.06,31.06,0,0,1,.37,5.07q0,29.25-.3,44.42H112.49v-46a13.93,13.93,0,0,0-.55-4.37,3.8,3.8,0,0,0-2.07-2.33,9.39,9.39,0,0,0-2.93-.86C106,64.59,104.57,64.54,102.65,64.54Zm.15-42.43v22h6.51q5.19,0,5.18-10.81,0-7.17-2-9.18t-8.26-2Z"/><path class="cls-1" d="M199.19.27l13,117.94H187.05l-1.85-17.77H172l-1.63,17.77H145.07L158.4.27ZM179.72,22.41h-2.37L173.87,79h9.33Z"/><path class="cls-2" d="M264.05,118.21H228.51L212.44.27h26.29l7.33,78.18L253.83.27h26.28Z"/><path class="cls-1" d="M286.65,118.21V1.23h52.88v22.7h-26V46.76h24.94v22H313.54V95.38h27.72v22.83Z"/><path class="cls-1" d="M38.76,67.3V87.42c0,3.33-.63,5.65-1.88,6.94a6,6,0,0,1-4.43,2A5.12,5.12,0,0,1,28,93.67a11.44,11.44,0,0,1-1.69-6.25V32.13a14.12,14.12,0,0,1,1.2-6.42c.8-1.55,2.46-2.32,5-2.32q6.31,0,6.31,10.5V47.48H64.9V26.84a27.33,27.33,0,0,0-2.55-12.08,22.4,22.4,0,0,0-7-8.48A32.62,32.62,0,0,0,45.07,1.4,43.17,43.17,0,0,0,37.36,0a5.72,5.72,0,0,1,.14.72A9.3,9.3,0,0,1,22.69,9.48c-.07.11-.15.2-.22.3a9,9,0,0,1,.72,2.4,9.31,9.31,0,0,1-16,7.68A9.3,9.3,0,0,1,.31,28.13C.13,30.13,0,32.2,0,34.41V88.67q0,14.55,8.86,22.44t23,7.89q15.93,0,24.79-7.16T65.5,89.41V67.3Z"/></g></g></svg>