<svg xmlns="http://www.w3.org/2000/svg" width="344.74" height="321.51" viewBox="0 0 344.74 321.51"><defs><style>.cls-1{fill:#fff;}.cls-2{fill:#1b75bb;}.cls-3{fill:#1b75ba;}.cls-4{fill:#8daa3d;}</style></defs><title>crave-circle-logo</title><g id="Layer_2" data-name="Layer 2"><g id="Layer_1-2" data-name="Layer 1"><ellipse class="cls-1" cx="172.37" cy="160.75" rx="172.37" ry="160.75"/><path class="cls-2" d="M58.84,79.18a7.7,7.7,0,0,1-.49,8.39,10.33,10.33,0,0,1,4.45,14.88H313.73c-24.55-47.78-77.92-80.9-139.81-80.9-49.34,0-93.26,21-121.49,53.77A7.68,7.68,0,0,1,58.84,79.18Z"/><path class="cls-3" d="M33.07,218.64c24.06,48.88,78.07,82.95,140.85,82.95s116.78-34.07,140.84-82.95Z"/><path class="cls-3" d="M114.76,165.25v44.33H93V112.16h33a24.35,24.35,0,0,1,8.68,1.38,14.94,14.94,0,0,1,5.69,3.61,15.7,15.7,0,0,1,3.27,5.93,36.18,36.18,0,0,1,1.56,7.4c.24,2.47.36,5.45.36,9,0,1.83,0,3.33-.09,4.49a28,28,0,0,1-.67,4.41,15.32,15.32,0,0,1-1.62,4.43,13.32,13.32,0,0,1-3.15,3.49,15.15,15.15,0,0,1-5.11,2.63,11.47,11.47,0,0,1,5,2,8.53,8.53,0,0,1,2.81,3.7,20.38,20.38,0,0,1,1.16,4.07,25.3,25.3,0,0,1,.31,4.19q0,24.15-.25,36.69h-21v-38a11.65,11.65,0,0,0-.46-3.61,3.18,3.18,0,0,0-1.71-1.93,7.64,7.64,0,0,0-2.42-.7C117.54,165.29,116.35,165.25,114.76,165.25Zm.13-35.05v18.17h5.38q4.28,0,4.28-8.93c0-4-.56-6.48-1.68-7.58s-3.4-1.66-6.82-1.66Z"/><path class="cls-3" d="M194.51,112.16l10.76,97.42H184.48L183,194.9H172.06l-1.34,14.68H149.8l11-97.42Zm-16.09,18.29h-1.95l-2.88,46.72h7.71Z"/><path class="cls-4" d="M248.08,209.58H218.72l-13.27-97.42h21.71l6.06,64.58,6.42-64.58h21.71Z"/><path class="cls-3" d="M266.75,209.58V113h43.68V131.7H289v18.86h20.6V168.7H289v22h22.89v18.86Z"/><path class="cls-3" d="M62,167.53v16.62c0,2.75-.51,4.66-1.55,5.73a4.92,4.92,0,0,1-3.66,1.61,4.23,4.23,0,0,1-3.69-2.18,9.4,9.4,0,0,1-1.4-5.16V138.48a11.7,11.7,0,0,1,1-5.31c.66-1.27,2-1.91,4.09-1.91q5.22,0,5.21,8.67v11.23h21.6v-17a22.67,22.67,0,0,0-2.11-10,18.44,18.44,0,0,0-5.8-7,27.1,27.1,0,0,0-8.47-4,35.57,35.57,0,0,0-6.37-1.15,5.59,5.59,0,0,1,.11.59,7.69,7.69,0,0,1-12.23,7.24l-.18.25a7.59,7.59,0,0,1,.6,2,7.7,7.7,0,0,1-13.25,6.35,7.69,7.69,0,0,1-5.65,6.83c-.16,1.65-.26,3.35-.26,5.18v44.82q0,12,7.32,18.53t19,6.52q13.14,0,20.47-5.91t7.32-18.53V167.53Z"/></g></g></svg>