<svg xmlns="http://www.w3.org/2000/svg" width="275" height="175" viewBox="0 0 275 175"><defs><style>.cls-1{fill:#fff;}.cls-2{fill:#ef473d;}</style></defs><title>family-revolt-logo</title><g id="Layer_3" data-name="Layer 3"><rect y="-350" width="275" height="700"/></g><g id="Layer_2" data-name="Layer 2"><path class="cls-1" d="M22.5,50.74H45.18l5.54,5.54V70l-4.53,4.53,5.24,16.85H41.17L36.58,75.83h-4V91.38H22.5ZM39.17,68.47l1.47-1.41v-7.6L39.17,58h-6.6V68.47Z"/><path class="cls-1" d="M66.38,50.74H89.47V59h-13v7.42H88.18v8.3H76.46v8.31H89.59v8.3H66.38Z"/><path class="cls-1" d="M103.55,50.74h10.31l4.53,32.69,4.53-32.69h9.54L125.4,91.38H110.56Z"/><path class="cls-1" d="M194.71,50.74h10.07V82.9h11v8.48h-21Z"/><path class="cls-1" d="M234,59.46h-8.48V50.74h27v8.72H244V91.38H234Z"/><polygon class="cls-2" points="162.62 87.54 171.89 80.8 186.89 69.91 168.35 69.91 162.62 52.27 156.89 69.91 138.35 69.91 153.35 80.8 147.64 98.36 147.72 98.36 162.62 87.54"/><path class="cls-1" d="M66.12,121.75V110.41l2.51-2.51h8.8L80,110.41v3.44H75.46v-1.92l-.74-.73h-3.3l-.81.81v8.25l.81.78h3.3l.74-.71v-2.06H80v3.49l-2.54,2.51h-8.8Z"/><path class="cls-1" d="M93.67,121.75V110.41l2.51-2.51h9l2.54,2.51v11.33l-2.54,2.51h-9Zm8.7-.78.81-.81V112l-.81-.81H99l-.81.81v8.16L99,121Z"/><path class="cls-1" d="M121.92,107.9h11.22v3.39H126.4v3.44h6v3.37h-6v6.16h-4.48Z"/><path class="cls-1" d="M146.8,107.9H158v3.39h-6.73v3.44h6v3.37h-6v6.16H146.8Z"/><path class="cls-1" d="M171.68,107.9h11.5v3.39h-7v2.94h6.33v3.39h-6.33v3.25h7.07v3.39H171.68Z"/><path class="cls-1" d="M197.34,107.9h11.5v3.39h-7v2.94h6.33v3.39h-6.33v3.25h7.07v3.39H197.34Z"/></g></svg>