<svg xmlns="http://www.w3.org/2000/svg" width="275" height="175" viewBox="0 0 275 175"><defs><style>.cls-1{fill:#fff;}.cls-2{fill:none;stroke:#231f20;}</style></defs><title>family-kendalls-logo</title><g id="Layer_3" data-name="Layer 3"><rect y="-175" width="275" height="700"/></g><g id="Layer_2" data-name="Layer 2"><path class="cls-1" d="M243.07,90.3q-.77-.34-1.83,1.2a29.42,29.42,0,0,1-6.93,7.7,14.5,14.5,0,0,0,1.78-6.69,24.34,24.34,0,0,0-.92-7.56q-.58-1.92-1.25-3.61a18.89,18.89,0,0,1-1-3,5.32,5.32,0,0,1,0-2.36,3,3,0,0,1,1.49-1.78q.77-.48.43-.82a2.32,2.32,0,0,0-1.25-.48,6.83,6.83,0,0,0-2.12,0,4.47,4.47,0,0,0-2.07.86,5.12,5.12,0,0,0-2,2.36,6.07,6.07,0,0,0-.29,2.89,17.8,17.8,0,0,0,.82,3.47q.63,1.88,1.2,4.19a23.17,23.17,0,0,1,.72,5.39,19.11,19.11,0,0,1-.53,5.06,8.71,8.71,0,0,1-1.93,3.76,4.35,4.35,0,0,1-3.37,1.49,3.55,3.55,0,0,1-3.27-1.54,4.86,4.86,0,0,1-.67-3.42A6.35,6.35,0,0,1,221.78,94a5.15,5.15,0,0,1,3.95-1.54c.32,0,.58-.3.77-.92a5.37,5.37,0,0,0,.19-2.07,4.86,4.86,0,0,0-.67-2.12,1.89,1.89,0,0,0-1.73-1,6.39,6.39,0,0,0-4,1.35,9.72,9.72,0,0,0-2.75,3.37,11.81,11.81,0,0,0-1.2,4.33c0,.27,0,.53,0,.79-.29.32-.58.64-.89.94Q213,99.5,211.19,99.5A1.36,1.36,0,0,1,210,99a1.73,1.73,0,0,1-.24-1.25,11.38,11.38,0,0,1,.43-1.88l.72-2.36q.19-.87,1.16-3.71t2.22-6.65q1.25-3.8,2.65-8.09t2.7-8q1.3-3.76,2.22-6.45t1.2-3.37a1.2,1.2,0,0,0-.24-1.49,2.53,2.53,0,0,0-1.69-.53,5.75,5.75,0,0,0-2.22.48,3,3,0,0,0-1.64,1.54q-.29.68-1.16,3.13t-2,5.88q-1.11,3.42-2.41,7.46t-2.6,7.9q-1.3,3.85-2.41,7.18l-1,3.09a25.63,25.63,0,0,1-4.07,5.34q-2.36,2.31-4.19,2.31a1.36,1.36,0,0,1-1.2-.48,1.73,1.73,0,0,1-.24-1.25,11.49,11.49,0,0,1,.43-1.88l.72-2.36q.19-.87,1.15-3.71t2.22-6.65q1.25-3.8,2.65-8.09t2.7-8q1.3-3.76,2.21-6.45t1.2-3.37a1.2,1.2,0,0,0-.24-1.49,2.52,2.52,0,0,0-1.69-.53,5.75,5.75,0,0,0-2.22.48,3,3,0,0,0-1.64,1.54q-.29.68-1.15,3.13t-2,5.88q-1.11,3.42-2.41,7.46t-2.6,7.9q-1.3,3.85-2.41,7.18l-1,3.09a25.63,25.63,0,0,1-4.07,5.34q-2.36,2.31-4.19,2.31a1.36,1.36,0,0,1-1.2-.48,1.73,1.73,0,0,1-.24-1.25,11.36,11.36,0,0,1,.43-1.88l.72-2.36q.38-1.25,1.25-4T186.49,84q1-2.89,1.93-5.4t1.4-3.56a1.17,1.17,0,0,0-.29-1.49,2.74,2.74,0,0,0-1.73-.53,5.4,5.4,0,0,0-2.17.48A3,3,0,0,0,184,75l-.1.1a4.11,4.11,0,0,0-3.85-2.31,8.9,8.9,0,0,0-4.29,1.25,22.11,22.11,0,0,0-4.53,3.42A33.81,33.81,0,0,0,167,82.55a36.17,36.17,0,0,0-3.47,6.16c-.44,1-.8,1.94-1.11,2.88a25.86,25.86,0,0,1-4.24,5.6Q155.81,99.5,154,99.5a1.24,1.24,0,0,1-1.15-.48,2.14,2.14,0,0,1-.24-1.25,8.47,8.47,0,0,1,.39-1.88l.72-2.36q.19-.87,1.16-3.71t2.22-6.65q1.25-3.8,2.7-8.09t2.7-8q1.25-3.76,2.22-6.45t1.25-3.37a1.17,1.17,0,0,0-.29-1.49,2.72,2.72,0,0,0-1.73-.53,5.75,5.75,0,0,0-2.22.48A3,3,0,0,0,160,57.22a18.29,18.29,0,0,0-.82,2.22q-.53,1.64-1.35,4t-1.78,5.35q-1,2.94-1.93,6a4.42,4.42,0,0,0-3.76-2,8.9,8.9,0,0,0-4.29,1.25,22,22,0,0,0-4.53,3.42,33.74,33.74,0,0,0-4.29,5.06,36.17,36.17,0,0,0-3.47,6.16c-.43,1-.8,1.94-1.11,2.88a25.82,25.82,0,0,1-4.24,5.6q-2.36,2.31-4.19,2.31t-1.49-2a20.93,20.93,0,0,1,1.4-4.91q1.16-2.94,2.7-6.36a50.21,50.21,0,0,0,2.41-6.36,11.16,11.16,0,0,0,.53-4.91q-.34-2-2.94-2a6,6,0,0,0-3.32,1.2,22.08,22.08,0,0,0-3.71,3.27,46,46,0,0,0-3.8,4.72q-1.88,2.65-3.61,5.54l4.43-12.91a1,1,0,0,0-.48-1.25,4.11,4.11,0,0,0-1.83-.58,4.61,4.61,0,0,0-2.07.29,2,2,0,0,0-1.3,1.35l-1,3-1.69,5.06q-1,2.89-2.07,6.07l-1,2.78a36.94,36.94,0,0,1-3.84,4.58,10,10,0,0,1-5.15,2.65,7.62,7.62,0,0,1-5-.72,7.13,7.13,0,0,1-3.37-4q7.9-4.53,11.51-8.72t4-7.22a4.36,4.36,0,0,0-1.83-4.53q-2.22-1.49-6-.53A13.74,13.74,0,0,0,91,75.57a24.1,24.1,0,0,0-4.24,4.24,26.75,26.75,0,0,0-3.27,5.39,26,26,0,0,0-1.93,5.92c0,.19-.07.37-.11.56a25.76,25.76,0,0,1-4.18,5.51Q74.9,99.5,73.08,99.5a1.47,1.47,0,0,1-1.44-1.2,12.32,12.32,0,0,1-.48-3.08Q71.05,93.34,71,91a27.73,27.73,0,0,0-.58-4.62,15.25,15.25,0,0,0-1.54-4.19,7.9,7.9,0,0,0-3.08-3.08,24.15,24.15,0,0,0,5.54-3.18,57.5,57.5,0,0,0,5.54-4.72q2.69-2.6,5.15-5.3T86.51,61q2.07-2.21,3.56-3.66a4.13,4.13,0,0,1,2.36-1.44,1.37,1.37,0,0,0,1-.34,1,1,0,0,0,0-1.54,1.37,1.37,0,0,0-1-.34,15.81,15.81,0,0,0-7.51,1.73A24.4,24.4,0,0,0,79,59.72a40.29,40.29,0,0,0-4.72,5.68q-2.12,3.08-4,5.78a33.93,33.93,0,0,1-3.8,4.62A7.17,7.17,0,0,1,62.38,78c.45-1.18.88-2.33,1.29-3.46h0c.17-.45.59-1.37.76-1.84q1.57-4.25,3-8T70,58.33q1-2.68,1.35-3.35a1.15,1.15,0,0,0-.23-1.5,2.82,2.82,0,0,0-1.79-.57,6.49,6.49,0,0,0-2.37.44,3.24,3.24,0,0,0-1.47,1c-.61.35-1.2.69-1.44.84q-5,3.15-9.52,5.43a38.5,38.5,0,0,1-8.12,3.17q-3.62.89-5.78-.73A3.85,3.85,0,0,1,39,60.85a3.26,3.26,0,0,1,.22-2.13,2.56,2.56,0,0,1,1.4-1.3,2,2,0,0,1,2,.44c.36.27.85.2,1.48-.21a4.15,4.15,0,0,0,1.48-1.72A4.24,4.24,0,0,0,46,53.58a3.09,3.09,0,0,0-1.72-2.2A4.77,4.77,0,0,0,39.8,51a6.68,6.68,0,0,0-3.44,3.13,7.62,7.62,0,0,0-.67,5C36,61,38,73.29,62.79,60.7q-.55,1.44-1.16,3.11L59,70.94l-.31.75,0,0Q56.51,77,54.39,82.5T50.06,92.57A38.53,38.53,0,0,1,45.48,100q-2.36,2.89-5.06,2.89a3.84,3.84,0,0,1-2.65-.82,3.25,3.25,0,0,1-1.11-1.83A2.55,2.55,0,0,1,37,98.35a2,2,0,0,1,1.88-.87c.45,0,.8-.35,1.06-1.06a4.14,4.14,0,0,0,.14-2.26A4.23,4.23,0,0,0,39,92a3.08,3.08,0,0,0-2.7-.72,4.77,4.77,0,0,0-3.76,2.41,6.69,6.69,0,0,0-.87,4.57,7.61,7.61,0,0,0,2.5,4.43q2.12,2,6.36,2a11.62,11.62,0,0,0,6.84-2.17A25.49,25.49,0,0,0,53,96.9,46.67,46.67,0,0,0,57.76,89q2.12-4.43,3.85-9.05h.19a3.54,3.54,0,0,1,2.94,2.36A13.1,13.1,0,0,1,65.42,87a46.94,46.94,0,0,1-.48,5.78,40.06,40.06,0,0,0-.43,5.64,10.67,10.67,0,0,0,.77,4.33,3.11,3.11,0,0,0,3.18,1.73,9.14,9.14,0,0,0,4.09-1.16,20.87,20.87,0,0,0,4.33-3,31.85,31.85,0,0,0,3.8-4c.2-.25.37-.49.55-.73a10.74,10.74,0,0,0,2,5.25,8.42,8.42,0,0,0,3.18,2.55,9.43,9.43,0,0,0,4,.87,14,14,0,0,0,5.44-1.06,19.37,19.37,0,0,0,4.72-2.79A23.43,23.43,0,0,0,103.16,98l-.57,1.61q-.72,2.07-1,2.74-.48,1.06.19,1.54a3,3,0,0,0,1.78.48,5.49,5.49,0,0,0,2.22-.48,3,3,0,0,0,1.59-1.54l.48-1.15v-.1l.39-.87A65.93,65.93,0,0,1,111.55,93a75.83,75.83,0,0,1,4-6.79,39.94,39.94,0,0,1,3.8-5q1.78-1.92,2.65-1.93,1.06,0,.67,1.88a31.53,31.53,0,0,1-1.44,4.67q-1.06,2.79-2.36,6.07A36.72,36.72,0,0,0,117,98a11.12,11.12,0,0,0-.15,4.67q.43,1.88,2.84,1.88a9.15,9.15,0,0,0,4.09-1.16,20.9,20.9,0,0,0,4.33-3,31.7,31.7,0,0,0,3.52-3.65,12.55,12.55,0,0,0,.09,3.22,6.91,6.91,0,0,0,1.54,3.47,4,4,0,0,0,3.18,1.3,9.52,9.52,0,0,0,4.77-1.49,23.75,23.75,0,0,0,5.06-4.09,6.83,6.83,0,0,0,.1,3.8q.58,1.59,3,1.59a9.15,9.15,0,0,0,4.09-1.16,20.87,20.87,0,0,0,4.33-3,31.89,31.89,0,0,0,3.52-3.65,12.55,12.55,0,0,0,.09,3.22,6.94,6.94,0,0,0,1.54,3.47,4,4,0,0,0,3.18,1.3,9.28,9.28,0,0,0,4.72-1.49,24.38,24.38,0,0,0,5-4.09,7.37,7.37,0,0,0,.19,3.8q.58,1.59,3,1.59a9.15,9.15,0,0,0,4.09-1.16,20.9,20.9,0,0,0,4.33-3A31.8,31.8,0,0,0,190,97.86a12,12,0,0,0-.46,3.09,4.51,4.51,0,0,0,.67,2.55,2.91,2.91,0,0,0,2.6,1,9.15,9.15,0,0,0,4.09-1.16,20.87,20.87,0,0,0,4.33-3,31.56,31.56,0,0,0,2.53-2.51,12,12,0,0,0-.46,3.08,4.52,4.52,0,0,0,.67,2.55,2.91,2.91,0,0,0,2.6,1,9.15,9.15,0,0,0,4.09-1.16,20.86,20.86,0,0,0,4.33-3c.54-.48,1.06-1,1.56-1.48a9.26,9.26,0,0,0,.27.91,7.2,7.2,0,0,0,2.5,3.37,7.54,7.54,0,0,0,4.67,1.35,16.56,16.56,0,0,0,4-.48,19,19,0,0,0,6.07-2.41,25.28,25.28,0,0,0,4.43-3.47,24.15,24.15,0,0,0,2.94-3.47A24.63,24.63,0,0,0,243,92.28Q243.84,90.64,243.07,90.3Zm-155.54-3a23.68,23.68,0,0,1,2.12-6.5,9.45,9.45,0,0,1,4.24-4.48,2.46,2.46,0,0,1,3,.29A4,4,0,0,1,98,80.14a11.86,11.86,0,0,1-2.5,5.64q-2.31,3.23-8,6.4A12.53,12.53,0,0,1,87.52,87.27Zm60.19,6.84-.48,1.15a15.89,15.89,0,0,1-3.32,3,5.13,5.13,0,0,1-3.13,1q-2.6-.1-3-3.66a17.74,17.74,0,0,1,1.59-8.57,25.44,25.44,0,0,1,2.36-4.67,24.34,24.34,0,0,1,2.94-3.76,15.84,15.84,0,0,1,3-2.5,5.46,5.46,0,0,1,2.84-.91q1.92.1,2.7,2.41-1.64,5-3.13,9.49T147.72,94.11Zm29.66,0-.48,1.15a15.92,15.92,0,0,1-3.32,3,5.13,5.13,0,0,1-3.13,1q-2.6-.1-3-3.66A17.74,17.74,0,0,1,169,87.08a27.39,27.39,0,0,1,2.31-4.67,22.36,22.36,0,0,1,2.89-3.76,15.1,15.1,0,0,1,3.08-2.5,5.7,5.7,0,0,1,2.89-.91,3.21,3.21,0,0,1,2.79,2.5q-1.06,2.89-2.5,7.32T177.38,94.11Z"/><path class="cls-1" d="M222.57,70q.15.71.28,1.39a2.66,2.66,0,0,1-.16,1.43,4.2,4.2,0,0,1-1.64,1.67,3.28,3.28,0,0,0,2.54-.34A7.17,7.17,0,0,0,226,72.25a5.56,5.56,0,0,0,1.21-2.51,2.1,2.1,0,0,0-.93-2.2,2,2,0,0,0-1.83-.31,2.77,2.77,0,0,0-1.52,1.18A2.23,2.23,0,0,0,222.57,70Z"/><path class="cls-1" d="M53.5,118.14V117H50.8v5.42h2.7v-1.19h2.22v2.18a.9.9,0,0,1-.32.71,1.18,1.18,0,0,1-.8.28H49.7a1.13,1.13,0,0,1-.79-.28.91.91,0,0,1-.31-.71v-7.42a1,1,0,0,1,.31-.72,1.11,1.11,0,0,1,.79-.29h4.9a1.15,1.15,0,0,1,.8.29.93.93,0,0,1,.32.72v2.2Z"/><path class="cls-1" d="M66.6,124.36l-2.16-3.24h-1.6v3.24H60.62v-9.43H67a1.15,1.15,0,0,1,.8.29.91.91,0,0,1,.32.7v4.19a.93.93,0,0,1-.32.72,1.15,1.15,0,0,1-.8.29l2.16,3.24Zm-3.75-5.24h3.09v-2.18H62.85Z"/><path class="cls-1" d="M79.81,124.36l-.73-2.22h-3.5l-.76,2.22H72.53l3.09-9.41H79l3.09,9.41Zm-2.48-7.42-1.08,3.17h2.14Z"/><path class="cls-1" d="M88.44,117v1.73h2.7v2h-2.7v3.69H86.26v-9.43h7.08v2Z"/><path class="cls-1" d="M104.36,116.91h-2.18v7.45H100v-7.45H97.78v-2h6.58Z"/><path class="cls-1" d="M124.39,114.93a1.13,1.13,0,0,1,.77.29.92.92,0,0,1,.33.72v7.42a.89.89,0,0,1-.33.71,1.16,1.16,0,0,1-.77.28H118v-9.43Zm-4.19,2v1.68h3.09V117Zm3.09,5.42v-1.7H120.2v1.7Z"/><path class="cls-1" d="M132.57,117v1.73h2.7v2h-2.7v1.7h4.9v2h-7.08v-9.43h7.08v2Z"/><path class="cls-1" d="M150.76,114.93,148,124.36h-3.41l-2.83-9.43H144l2.27,7.38,2.24-7.38Z"/><path class="cls-1" d="M157.25,117v1.73H160v2h-2.7v1.7h4.9v2h-7.08v-9.43h7.08v2Z"/><path class="cls-1" d="M173.09,124.36l-2.16-3.24h-1.6v3.24h-2.22v-9.43h6.41a1.15,1.15,0,0,1,.8.29.91.91,0,0,1,.32.7v4.19a.93.93,0,0,1-.32.72,1.15,1.15,0,0,1-.8.29l2.16,3.24Zm-3.75-5.24h3.09v-2.18h-3.09Z"/><path class="cls-1" d="M186.3,124.36l-.73-2.22h-3.5l-.75,2.22H179l3.09-9.41h3.39l3.09,9.41Zm-2.48-7.42-1.08,3.17h2.14Z"/><path class="cls-1" d="M197.8,118.12v-1.21h-3.17v5.44h3.17v-1.19h-1.36v-2H200v4.19a.94.94,0,0,1-.32.72,1.13,1.13,0,0,1-.78.29h-5.37a1.13,1.13,0,0,1-.78-.29.94.94,0,0,1-.32-.72v-7.42a.93.93,0,0,1,.32-.72,1.12,1.12,0,0,1,.78-.29h5.37a1.12,1.12,0,0,1,.78.29.93.93,0,0,1,.32.72v2.2Z"/><path class="cls-1" d="M207,117v1.73h2.7v2H207v1.7h4.9v2h-7.08v-9.43h7.08v2Z"/><path class="cls-1" d="M222.36,124.36h-5.55v-2h4.42v-1.77h-3.3a1.16,1.16,0,0,1-.79-.29.92.92,0,0,1-.33-.72v-3.69a.9.9,0,0,1,.33-.7,1.16,1.16,0,0,1,.79-.29h5.52v2h-4.4v1.66h3.3a1.12,1.12,0,0,1,.78.29.93.93,0,0,1,.32.72v3.78a.93.93,0,0,1-.32.72A1.12,1.12,0,0,1,222.36,124.36Z"/><path class="cls-2" d="M243.07,90.3q-.77-.34-1.83,1.2a29.42,29.42,0,0,1-6.93,7.7,14.5,14.5,0,0,0,1.78-6.69,24.34,24.34,0,0,0-.92-7.56q-.58-1.92-1.25-3.61a18.89,18.89,0,0,1-1-3,5.32,5.32,0,0,1,0-2.36,3,3,0,0,1,1.49-1.78q.77-.48.43-.82a2.32,2.32,0,0,0-1.25-.48,6.83,6.83,0,0,0-2.12,0,4.47,4.47,0,0,0-2.07.86,5.12,5.12,0,0,0-2,2.36,6.07,6.07,0,0,0-.29,2.89,17.8,17.8,0,0,0,.82,3.47q.63,1.88,1.2,4.19a23.17,23.17,0,0,1,.72,5.39,19.11,19.11,0,0,1-.53,5.06,8.71,8.71,0,0,1-1.93,3.76,4.35,4.35,0,0,1-3.37,1.49,3.55,3.55,0,0,1-3.27-1.54,4.86,4.86,0,0,1-.67-3.42A6.35,6.35,0,0,1,221.78,94a5.15,5.15,0,0,1,3.95-1.54c.32,0,.58-.3.77-.92a5.37,5.37,0,0,0,.19-2.07,4.86,4.86,0,0,0-.67-2.12,1.89,1.89,0,0,0-1.73-1,6.39,6.39,0,0,0-4,1.35,9.72,9.72,0,0,0-2.75,3.37,11.81,11.81,0,0,0-1.2,4.33c0,.27,0,.53,0,.79-.29.32-.58.64-.89.94Q213,99.5,211.19,99.5A1.36,1.36,0,0,1,210,99a1.73,1.73,0,0,1-.24-1.25,11.38,11.38,0,0,1,.43-1.88l.72-2.36q.19-.87,1.16-3.71t2.22-6.65q1.25-3.8,2.65-8.09t2.7-8q1.3-3.76,2.22-6.45t1.2-3.37a1.2,1.2,0,0,0-.24-1.49,2.53,2.53,0,0,0-1.69-.53,5.75,5.75,0,0,0-2.22.48,3,3,0,0,0-1.64,1.54q-.29.68-1.16,3.13t-2,5.88q-1.11,3.42-2.41,7.46t-2.6,7.9q-1.3,3.85-2.41,7.18l-1,3.09a25.63,25.63,0,0,1-4.07,5.34q-2.36,2.31-4.19,2.31a1.36,1.36,0,0,1-1.2-.48,1.73,1.73,0,0,1-.24-1.25,11.49,11.49,0,0,1,.43-1.88l.72-2.36q.19-.87,1.15-3.71t2.22-6.65q1.25-3.8,2.65-8.09t2.7-8q1.3-3.76,2.21-6.45t1.2-3.37a1.2,1.2,0,0,0-.24-1.49,2.52,2.52,0,0,0-1.69-.53,5.75,5.75,0,0,0-2.22.48,3,3,0,0,0-1.64,1.54q-.29.68-1.15,3.13t-2,5.88q-1.11,3.42-2.41,7.46t-2.6,7.9q-1.3,3.85-2.41,7.18l-1,3.09a25.63,25.63,0,0,1-4.07,5.34q-2.36,2.31-4.19,2.31a1.36,1.36,0,0,1-1.2-.48,1.73,1.73,0,0,1-.24-1.25,11.36,11.36,0,0,1,.43-1.88l.72-2.36q.38-1.25,1.25-4T186.49,84q1-2.89,1.93-5.4t1.4-3.56a1.17,1.17,0,0,0-.29-1.49,2.74,2.74,0,0,0-1.73-.53,5.4,5.4,0,0,0-2.17.48A3,3,0,0,0,184,75l-.1.1a4.11,4.11,0,0,0-3.85-2.31,8.9,8.9,0,0,0-4.29,1.25,22.11,22.11,0,0,0-4.53,3.42A33.81,33.81,0,0,0,167,82.55a36.17,36.17,0,0,0-3.47,6.16c-.44,1-.8,1.94-1.11,2.88a25.86,25.86,0,0,1-4.24,5.6Q155.81,99.5,154,99.5a1.24,1.24,0,0,1-1.15-.48,2.14,2.14,0,0,1-.24-1.25,8.47,8.47,0,0,1,.39-1.88l.72-2.36q.19-.87,1.16-3.71t2.22-6.65q1.25-3.8,2.7-8.09t2.7-8q1.25-3.76,2.22-6.45t1.25-3.37a1.17,1.17,0,0,0-.29-1.49,2.72,2.72,0,0,0-1.73-.53,5.75,5.75,0,0,0-2.22.48A3,3,0,0,0,160,57.22a18.29,18.29,0,0,0-.82,2.22q-.53,1.64-1.35,4t-1.78,5.35q-1,2.94-1.93,6a4.42,4.42,0,0,0-3.76-2,8.9,8.9,0,0,0-4.29,1.25,22,22,0,0,0-4.53,3.42,33.74,33.74,0,0,0-4.29,5.06,36.17,36.17,0,0,0-3.47,6.16c-.43,1-.8,1.94-1.11,2.88a25.82,25.82,0,0,1-4.24,5.6q-2.36,2.31-4.19,2.31t-1.49-2a20.93,20.93,0,0,1,1.4-4.91q1.16-2.94,2.7-6.36a50.21,50.21,0,0,0,2.41-6.36,11.16,11.16,0,0,0,.53-4.91q-.34-2-2.94-2a6,6,0,0,0-3.32,1.2,22.08,22.08,0,0,0-3.71,3.27,46,46,0,0,0-3.8,4.72q-1.88,2.65-3.61,5.54l4.43-12.91a1,1,0,0,0-.48-1.25,4.11,4.11,0,0,0-1.83-.58,4.61,4.61,0,0,0-2.07.29,2,2,0,0,0-1.3,1.35l-1,3-1.69,5.06q-1,2.89-2.07,6.07l-1,2.78a36.94,36.94,0,0,1-3.84,4.58,10,10,0,0,1-5.15,2.65,7.62,7.62,0,0,1-5-.72,7.13,7.13,0,0,1-3.37-4q7.9-4.53,11.51-8.72t4-7.22a4.36,4.36,0,0,0-1.83-4.53q-2.22-1.49-6-.53A13.74,13.74,0,0,0,91,75.57a24.1,24.1,0,0,0-4.24,4.24,26.75,26.75,0,0,0-3.27,5.39,26,26,0,0,0-1.93,5.92c0,.19-.07.37-.11.56a25.76,25.76,0,0,1-4.18,5.51Q74.9,99.5,73.08,99.5a1.47,1.47,0,0,1-1.44-1.2,12.32,12.32,0,0,1-.48-3.08Q71.05,93.34,71,91a27.73,27.73,0,0,0-.58-4.62,15.25,15.25,0,0,0-1.54-4.19,7.9,7.9,0,0,0-3.08-3.08,24.15,24.15,0,0,0,5.54-3.18,57.5,57.5,0,0,0,5.54-4.72q2.69-2.6,5.15-5.3T86.51,61q2.07-2.21,3.56-3.66a4.13,4.13,0,0,1,2.36-1.44,1.37,1.37,0,0,0,1-.34,1,1,0,0,0,0-1.54,1.37,1.37,0,0,0-1-.34,15.81,15.81,0,0,0-7.51,1.73A24.4,24.4,0,0,0,79,59.72a40.29,40.29,0,0,0-4.72,5.68q-2.12,3.08-4,5.78a33.93,33.93,0,0,1-3.8,4.62A7.17,7.17,0,0,1,62.38,78c.45-1.18.88-2.33,1.29-3.46h0c.17-.45.59-1.37.76-1.84q1.57-4.25,3-8T70,58.33q1-2.68,1.35-3.35a1.15,1.15,0,0,0-.23-1.5,2.82,2.82,0,0,0-1.79-.57,6.49,6.49,0,0,0-2.37.44,3.24,3.24,0,0,0-1.47,1c-.61.35-1.2.69-1.44.84q-5,3.15-9.52,5.43a38.5,38.5,0,0,1-8.12,3.17q-3.62.89-5.78-.73A3.85,3.85,0,0,1,39,60.85a3.26,3.26,0,0,1,.22-2.13,2.56,2.56,0,0,1,1.4-1.3,2,2,0,0,1,2,.44c.36.27.85.2,1.48-.21a4.15,4.15,0,0,0,1.48-1.72A4.24,4.24,0,0,0,46,53.58a3.09,3.09,0,0,0-1.72-2.2A4.77,4.77,0,0,0,39.8,51a6.68,6.68,0,0,0-3.44,3.13,7.62,7.62,0,0,0-.67,5C36,61,38,73.29,62.79,60.7q-.55,1.44-1.16,3.11L59,70.94l-.31.75,0,0Q56.51,77,54.39,82.5T50.06,92.57A38.53,38.53,0,0,1,45.48,100q-2.36,2.89-5.06,2.89a3.84,3.84,0,0,1-2.65-.82,3.25,3.25,0,0,1-1.11-1.83A2.55,2.55,0,0,1,37,98.35a2,2,0,0,1,1.88-.87c.45,0,.8-.35,1.06-1.06a4.14,4.14,0,0,0,.14-2.26A4.23,4.23,0,0,0,39,92a3.08,3.08,0,0,0-2.7-.72,4.77,4.77,0,0,0-3.76,2.41,6.69,6.69,0,0,0-.87,4.57,7.61,7.61,0,0,0,2.5,4.43q2.12,2,6.36,2a11.62,11.62,0,0,0,6.84-2.17A25.49,25.49,0,0,0,53,96.9,46.67,46.67,0,0,0,57.76,89q2.12-4.43,3.85-9.05h.19a3.54,3.54,0,0,1,2.94,2.36A13.1,13.1,0,0,1,65.42,87a46.94,46.94,0,0,1-.48,5.78,40.06,40.06,0,0,0-.43,5.64,10.67,10.67,0,0,0,.77,4.33,3.11,3.11,0,0,0,3.18,1.73,9.14,9.14,0,0,0,4.09-1.16,20.87,20.87,0,0,0,4.33-3,31.85,31.85,0,0,0,3.8-4c.2-.25.37-.49.55-.73a10.74,10.74,0,0,0,2,5.25,8.42,8.42,0,0,0,3.18,2.55,9.43,9.43,0,0,0,4,.87,14,14,0,0,0,5.44-1.06,19.37,19.37,0,0,0,4.72-2.79A23.43,23.43,0,0,0,103.16,98l-.57,1.61q-.72,2.07-1,2.74-.48,1.06.19,1.54a3,3,0,0,0,1.78.48,5.49,5.49,0,0,0,2.22-.48,3,3,0,0,0,1.59-1.54l.48-1.15v-.1l.39-.87A65.93,65.93,0,0,1,111.55,93a75.83,75.83,0,0,1,4-6.79,39.94,39.94,0,0,1,3.8-5q1.78-1.92,2.65-1.93,1.06,0,.67,1.88a31.53,31.53,0,0,1-1.44,4.67q-1.06,2.79-2.36,6.07A36.72,36.72,0,0,0,117,98a11.12,11.12,0,0,0-.15,4.67q.43,1.88,2.84,1.88a9.15,9.15,0,0,0,4.09-1.16,20.9,20.9,0,0,0,4.33-3,31.7,31.7,0,0,0,3.52-3.65,12.55,12.55,0,0,0,.09,3.22,6.91,6.91,0,0,0,1.54,3.47,4,4,0,0,0,3.18,1.3,9.52,9.52,0,0,0,4.77-1.49,23.75,23.75,0,0,0,5.06-4.09,6.83,6.83,0,0,0,.1,3.8q.58,1.59,3,1.59a9.15,9.15,0,0,0,4.09-1.16,20.87,20.87,0,0,0,4.33-3,31.89,31.89,0,0,0,3.52-3.65,12.55,12.55,0,0,0,.09,3.22,6.94,6.94,0,0,0,1.54,3.47,4,4,0,0,0,3.18,1.3,9.28,9.28,0,0,0,4.72-1.49,24.38,24.38,0,0,0,5-4.09,7.37,7.37,0,0,0,.19,3.8q.58,1.59,3,1.59a9.15,9.15,0,0,0,4.09-1.16,20.9,20.9,0,0,0,4.33-3A31.8,31.8,0,0,0,190,97.86a12,12,0,0,0-.46,3.09,4.51,4.51,0,0,0,.67,2.55,2.91,2.91,0,0,0,2.6,1,9.15,9.15,0,0,0,4.09-1.16,20.87,20.87,0,0,0,4.33-3,31.56,31.56,0,0,0,2.53-2.51,12,12,0,0,0-.46,3.08,4.52,4.52,0,0,0,.67,2.55,2.91,2.91,0,0,0,2.6,1,9.15,9.15,0,0,0,4.09-1.16,20.86,20.86,0,0,0,4.33-3c.54-.48,1.06-1,1.56-1.48a9.26,9.26,0,0,0,.27.91,7.2,7.2,0,0,0,2.5,3.37,7.54,7.54,0,0,0,4.67,1.35,16.56,16.56,0,0,0,4-.48,19,19,0,0,0,6.07-2.41,25.28,25.28,0,0,0,4.43-3.47,24.15,24.15,0,0,0,2.94-3.47A24.63,24.63,0,0,0,243,92.28Q243.84,90.64,243.07,90.3Zm-155.54-3a23.68,23.68,0,0,1,2.12-6.5,9.45,9.45,0,0,1,4.24-4.48,2.46,2.46,0,0,1,3,.29A4,4,0,0,1,98,80.14a11.86,11.86,0,0,1-2.5,5.64q-2.31,3.23-8,6.4A12.53,12.53,0,0,1,87.52,87.27Zm60.19,6.84-.48,1.15a15.89,15.89,0,0,1-3.32,3,5.13,5.13,0,0,1-3.13,1q-2.6-.1-3-3.66a17.74,17.74,0,0,1,1.59-8.57,25.44,25.44,0,0,1,2.36-4.67,24.34,24.34,0,0,1,2.94-3.76,15.84,15.84,0,0,1,3-2.5,5.46,5.46,0,0,1,2.84-.91q1.92.1,2.7,2.41-1.64,5-3.13,9.49T147.72,94.11Zm29.66,0-.48,1.15a15.92,15.92,0,0,1-3.32,3,5.13,5.13,0,0,1-3.13,1q-2.6-.1-3-3.66A17.74,17.74,0,0,1,169,87.08a27.39,27.39,0,0,1,2.31-4.67,22.36,22.36,0,0,1,2.89-3.76,15.1,15.1,0,0,1,3.08-2.5,5.7,5.7,0,0,1,2.89-.91,3.21,3.21,0,0,1,2.79,2.5q-1.06,2.89-2.5,7.32T177.38,94.11Z"/><path class="cls-2" d="M222.57,70q.15.71.28,1.39a2.66,2.66,0,0,1-.16,1.43,4.2,4.2,0,0,1-1.64,1.67,3.28,3.28,0,0,0,2.54-.34A7.17,7.17,0,0,0,226,72.25a5.56,5.56,0,0,0,1.21-2.51,2.1,2.1,0,0,0-.93-2.2,2,2,0,0,0-1.83-.31,2.77,2.77,0,0,0-1.52,1.18A2.23,2.23,0,0,0,222.57,70Z"/><path class="cls-2" d="M53.5,118.14V117H50.8v5.42h2.7v-1.19h2.22v2.18a.9.9,0,0,1-.32.71,1.18,1.18,0,0,1-.8.28H49.7a1.13,1.13,0,0,1-.79-.28.91.91,0,0,1-.31-.71v-7.42a1,1,0,0,1,.31-.72,1.11,1.11,0,0,1,.79-.29h4.9a1.15,1.15,0,0,1,.8.29.93.93,0,0,1,.32.72v2.2Z"/><path class="cls-2" d="M66.6,124.36l-2.16-3.24h-1.6v3.24H60.62v-9.43H67a1.15,1.15,0,0,1,.8.29.91.91,0,0,1,.32.7v4.19a.93.93,0,0,1-.32.72,1.15,1.15,0,0,1-.8.29l2.16,3.24Zm-3.75-5.24h3.09v-2.18H62.85Z"/><path class="cls-2" d="M79.81,124.36l-.73-2.22h-3.5l-.76,2.22H72.53l3.09-9.41H79l3.09,9.41Zm-2.48-7.42-1.08,3.17h2.14Z"/><path class="cls-2" d="M88.44,117v1.73h2.7v2h-2.7v3.69H86.26v-9.43h7.08v2Z"/><path class="cls-2" d="M104.36,116.91h-2.18v7.45H100v-7.45H97.78v-2h6.58Z"/><path class="cls-2" d="M124.39,114.93a1.13,1.13,0,0,1,.77.29.92.92,0,0,1,.33.72v7.42a.89.89,0,0,1-.33.71,1.16,1.16,0,0,1-.77.28H118v-9.43Zm-4.19,2v1.68h3.09V117Zm3.09,5.42v-1.7H120.2v1.7Z"/><path class="cls-2" d="M132.57,117v1.73h2.7v2h-2.7v1.7h4.9v2h-7.08v-9.43h7.08v2Z"/><path class="cls-2" d="M150.76,114.93,148,124.36h-3.41l-2.83-9.43H144l2.27,7.38,2.24-7.38Z"/><path class="cls-2" d="M157.25,117v1.73H160v2h-2.7v1.7h4.9v2h-7.08v-9.43h7.08v2Z"/><path class="cls-2" d="M173.09,124.36l-2.16-3.24h-1.6v3.24h-2.22v-9.43h6.41a1.15,1.15,0,0,1,.8.29.91.91,0,0,1,.32.7v4.19a.93.93,0,0,1-.32.72,1.15,1.15,0,0,1-.8.29l2.16,3.24Zm-3.75-5.24h3.09v-2.18h-3.09Z"/><path class="cls-2" d="M186.3,124.36l-.73-2.22h-3.5l-.75,2.22H179l3.09-9.41h3.39l3.09,9.41Zm-2.48-7.42-1.08,3.17h2.14Z"/><path class="cls-2" d="M197.8,118.12v-1.21h-3.17v5.44h3.17v-1.19h-1.36v-2H200v4.19a.94.94,0,0,1-.32.72,1.13,1.13,0,0,1-.78.29h-5.37a1.13,1.13,0,0,1-.78-.29.94.94,0,0,1-.32-.72v-7.42a.93.93,0,0,1,.32-.72,1.12,1.12,0,0,1,.78-.29h5.37a1.12,1.12,0,0,1,.78.29.93.93,0,0,1,.32.72v2.2Z"/><path class="cls-2" d="M207,117v1.73h2.7v2H207v1.7h4.9v2h-7.08v-9.43h7.08v2Z"/><path class="cls-2" d="M222.36,124.36h-5.55v-2h4.42v-1.77h-3.3a1.16,1.16,0,0,1-.79-.29.92.92,0,0,1-.33-.72v-3.69a.9.9,0,0,1,.33-.7,1.16,1.16,0,0,1,.79-.29h5.52v2h-4.4v1.66h3.3a1.12,1.12,0,0,1,.78.29.93.93,0,0,1,.32.72v3.78a.93.93,0,0,1-.32.72A1.12,1.12,0,0,1,222.36,124.36Z"/></g></svg>