<svg xmlns="http://www.w3.org/2000/svg" width="275" height="175" viewBox="0 0 275 175"><defs><style>.cls-1{fill:#bdd431;}.cls-2{fill:#fff;}.cls-3{fill:#ee8322;}</style></defs><title>family-corwin-logo</title><g id="Layer_3" data-name="Layer 3"><rect width="275" height="700"/></g><g id="Layer_2" data-name="Layer 2"><path class="cls-1" d="M211.74,92.39a2.77,2.77,0,1,1,2.77-2.77,2.75,2.75,0,0,1-2.77,2.77"/><path class="cls-2" d="M211.74,123.38a2.31,2.31,0,0,1-2.31-2.3V98.41a2.31,2.31,0,0,1,4.61,0v22.66a2.31,2.31,0,0,1-2.3,2.3"/><path class="cls-2" d="M112.74,123.54h-.19a8.87,8.87,0,0,1-8.89-8.84v-9.83A8.91,8.91,0,0,1,112.55,96h.19a8.86,8.86,0,0,1,7.76,4.61,2.3,2.3,0,1,1-4,2.21,4.23,4.23,0,0,0-3.71-2.21h-.19a4.25,4.25,0,0,0-4.23,4.28v9.83a4.24,4.24,0,0,0,4.23,4.23h.19a4.19,4.19,0,0,0,3.71-2.26,2.33,2.33,0,1,1,4.09,2.21,8.9,8.9,0,0,1-7.81,4.66"/><path class="cls-2" d="M134.24,123.54h-.19a8.83,8.83,0,0,1-8.84-8.84v-9.83A8.87,8.87,0,0,1,134.05,96h.19a8.87,8.87,0,0,1,8.84,8.89v9.83a8.83,8.83,0,0,1-8.84,8.84m4.23-18.67a4.25,4.25,0,0,0-4.23-4.28h-.19a4.25,4.25,0,0,0-4.23,4.28v9.83a4.24,4.24,0,0,0,4.23,4.23h.19a4.24,4.24,0,0,0,4.23-4.23Z"/><path class="cls-2" d="M162.28,101.35l-.8-.28a5.2,5.2,0,0,0-4.75.66,5.13,5.13,0,0,0-2.16,4.23v15.14a2.33,2.33,0,0,1-4.66,0V106A9.79,9.79,0,0,1,163,96.74l.8.28a2.27,2.27,0,0,1,1.41,2.92,2.32,2.32,0,0,1-3,1.41"/><path class="cls-2" d="M238.18,123.31a2.32,2.32,0,0,1-2.3-2.35V104.87a4.25,4.25,0,0,0-4.23-4.28h-.19a4.29,4.29,0,0,0-4.23,4.28V121a2.3,2.3,0,1,1-4.61,0V104.87A8.87,8.87,0,0,1,231.46,96h.19a8.91,8.91,0,0,1,8.89,8.89V121a2.33,2.33,0,0,1-2.35,2.35"/><path class="cls-2" d="M187.67,98.48a2.28,2.28,0,1,0-4.57,0v16.08a4.29,4.29,0,0,1-4.27,4.28h-.19a4.29,4.29,0,0,1-4.23-4.28V98.48a2.31,2.31,0,1,0-4.61,0v16.08a8.87,8.87,0,0,0,8.84,8.89h.19a8.78,8.78,0,0,0,6.55-2.94,8.73,8.73,0,0,0,6.53,2.94h.19a8.91,8.91,0,0,0,8.89-8.89V98.48a2.33,2.33,0,1,0-4.65,0v16.08a4.25,4.25,0,0,1-4.23,4.28h-.19a4.29,4.29,0,0,1-4.24-4.28Z"/><path class="cls-2" d="M65.37,87.27a16.7,16.7,0,0,1,1.72-7.36,27.55,27.55,0,1,0,22.08,22.58,16.75,16.75,0,0,1-23.8-15.22"/><path class="cls-1" d="M98.91,87.27a16.76,16.76,0,0,0-31.83-7.36,27.55,27.55,0,0,1,22.08,22.58,16.76,16.76,0,0,0,9.75-15.22"/><path class="cls-3" d="M63.33,63.06A12.34,12.34,0,1,1,51,50.72,12.34,12.34,0,0,1,63.33,63.06"/><path class="cls-2" d="M73,46.51a6,6,0,1,1-6-6,6,6,0,0,1,6,6"/></g></svg>