<svg xmlns="http://www.w3.org/2000/svg" width="29" height="29" viewBox="0 0 29 29"><defs><style>.cls-1{fill:#1867a5;}</style></defs><title>instagram</title><g id="Layer_2" data-name="Layer 2"><g id="Layer_1-2" data-name="Layer 1"><path class="cls-1" d="M23.27,14.5A8.77,8.77,0,1,1,5.9,12.81H0V24.47A4.53,4.53,0,0,0,4.53,29H24.47A4.53,4.53,0,0,0,29,24.47V12.81H23.1A8.82,8.82,0,0,1,23.27,14.5ZM24.47,0H4.53A4.53,4.53,0,0,0,0,4.53V9.44H7.34a8.76,8.76,0,0,1,14.32,0H29V4.53A4.53,4.53,0,0,0,24.47,0Zm2.22,5.6a.81.81,0,0,1-.81.81H23.45a.81.81,0,0,1-.81-.81V3.17a.81.81,0,0,1,.81-.81h2.43a.81.81,0,0,1,.81.81ZM19.9,14.5a5.4,5.4,0,1,0-5.4,5.39A5.39,5.39,0,0,0,19.9,14.5Z"/></g></g></svg>