<svg id="artwork" xmlns="http://www.w3.org/2000/svg" width="250" height="250" viewBox="0 0 250 250"><defs><style>.cls-1{fill:#2499f7;}</style></defs><title>pattern-blue</title><path class="cls-1" d="M0,54.24l0-.11v.51A.47.47,0,0,0,0,54.24Z"/><path class="cls-1" d="M.31,50.53,4.46,49.1l1,2.77L1.26,53.3a.49.49,0,0,0-.3.62.48.48,0,0,0,.62.3l4.61-1.59A.49.49,0,0,0,6.5,52L5.23,48.32c-.63-1.82-1.36-4.71-2.07-7.49s-1.45-5.72-2.09-7.58C.8,32.46.42,31.52,0,30.5v2.66c.05.14.1.28.14.41.63,1.82,1.36,4.71,2.07,7.49.66,2.59,1.33,5.26,1.94,7.12L0,49.61v.92A.42.42,0,0,0,.31,50.53Z"/><path class="cls-1" d="M222.1,41.29a6.91,6.91,0,0,0,2.57-2.4,13.18,13.18,0,0,1,6.09-4.84,5.72,5.72,0,0,1,7.15,3.08,7,7,0,0,1,.24,5.42,3.85,3.85,0,0,1-2.31,2.13c-2.84,1-5.56-.2-8-1.27a5.19,5.19,0,0,1-3.7,3.87,3.08,3.08,0,0,1-4-1.81A3,3,0,0,1,222.1,41.29Zm13.42,2.47a2.88,2.88,0,0,0,1.73-1.6,6.09,6.09,0,0,0-.24-4.65A4.74,4.74,0,0,0,231.08,35c-2.78,1-4.3,2.86-5.65,4.53a16,16,0,0,1-1.36,1.59C227.05,41.3,231.64,45.19,235.52,43.76Zm-14.4,1.32a2.12,2.12,0,0,0,2.74,1.28A4.27,4.27,0,0,0,227,43c-1.7-.73-3.23-1.26-4.55-.8A2,2,0,0,0,221.12,45.08Z"/><path class="cls-1" d="M246.7,43.05c-.71-2.81-1.45-5.72-2.09-7.58s-1.85-4.6-3-7.26-2.36-5.35-3-7.18l-1.27-3.69a.48.48,0,0,0-.62-.3l-28.59,9.84a.5.5,0,0,0-.31.62l1.28,3.69c.62,1.83,1.35,4.71,2.06,7.5s1.45,5.72,2.09,7.58,1.85,4.61,3,7.26,2.36,5.36,3,7.18l1.27,3.69a.48.48,0,0,0,.62.3l28.6-9.84a.51.51,0,0,0,.26-.22v-.51l-1.23-3.58C248.14,48.72,247.41,45.84,246.7,43.05Zm-37.8-15.4,27.67-9.53,1,2.77-27.67,9.52Zm8.25,25.49c-1.15-2.64-2.35-5.36-3-7.19s-1.36-4.71-2.07-7.5c-.66-2.58-1.33-5.25-1.94-7.11l27.68-9.53c.67,1.84,1.78,4.35,2.86,6.8,1.16,2.63,2.36,5.35,3,7.18s1.36,4.71,2.06,7.5c.66,2.59,1.34,5.25,1.94,7.11L220,59.93C219.34,58.1,218.23,55.58,217.15,53.14Zm4.13,10.48-.95-2.76L248,51.33l1,2.76Z"/><path class="cls-1" d="M245.06,18.81l-1.27-3.69a.5.5,0,0,0-.62-.31l-4.61,1.59a.48.48,0,0,0-.3.62.48.48,0,0,0,.62.3L243,15.9l.95,2.76-4.15,1.43a.48.48,0,0,0-.3.62.48.48,0,0,0,.62.3l4.15-1.43c.67,1.84,1.78,4.36,2.86,6.8s2.18,5,2.84,6.78V30.5c-.59-1.41-1.28-3-1.95-4.51C246.89,23.35,245.69,20.63,245.06,18.81Z"/><path class="cls-1" d="M250,49.61a.49.49,0,0,0-.3.62.46.46,0,0,0,.31.3v-.92Z"/><path class="cls-1" d="M217.46,36.05l18.46-6.36a3.41,3.41,0,0,1,4.33,2.11L243.43,41a3.41,3.41,0,0,1-2.11,4.33l-18.46,6.36a3.41,3.41,0,0,1-4.33-2.11l-3.19-9.24A3.41,3.41,0,0,1,217.46,36.05Zm2,13.25a2.43,2.43,0,0,0,3.09,1.51L241,44.45a2.43,2.43,0,0,0,1.51-3.09l-3.18-9.24a2.44,2.44,0,0,0-3.09-1.51L217.77,37a2.43,2.43,0,0,0-1.5,3.09Z"/><path class="cls-1" d="M203,11.43l.65-.72a1.47,1.47,0,0,0-.11-2.07L194,0H192.5l10.4,9.37a.49.49,0,0,1,0,.69l-.65.72a3.43,3.43,0,0,1-4.83.25L185.21,0h-1.46l13.06,11.76A4.39,4.39,0,0,0,203,11.43Z"/><path class="cls-1" d="M207.73,9.12,209,7.67a1.47,1.47,0,0,0-.11-2.07L202.7,0h-1.46l7,6.33a.48.48,0,0,1,0,.68L207,8.46a.49.49,0,0,1-.69,0L196.87,0h-1.46l10.25,9.23A1.47,1.47,0,0,0,207.73,9.12Z"/><path class="cls-1" d="M213.6,2.59l1.31-1.45A1.47,1.47,0,0,0,215.27,0h-1a.52.52,0,0,1-.1.49l-1.3,1.45a.5.5,0,0,1-.69,0L210,0h-1.46l3,2.7A1.47,1.47,0,0,0,213.6,2.59Z"/><path class="cls-1" d="M206.24,1.28l.43.14A3.62,3.62,0,0,1,209,3.47l.2.44a4.43,4.43,0,0,0,1.14,1.62A.49.49,0,0,0,211,4.8a3.55,3.55,0,0,1-.9-1.27l-.2-.45A4.54,4.54,0,0,0,207,.49l-.42-.14a3.19,3.19,0,0,1-.8-.35H204.2A4.47,4.47,0,0,0,206.24,1.28Z"/><path class="cls-1" d="M176.84,236.56l-.65.72a4.41,4.41,0,0,0,.32,6.21l7.24,6.51h1.46l-8-7.24a3.43,3.43,0,0,1-.26-4.83l.65-.72a.49.49,0,0,1,.69,0L192.5,250H194l-15-13.55A1.47,1.47,0,0,0,176.84,236.56Z"/><path class="cls-1" d="M179.3,230.9l-1.3,1.45a1.47,1.47,0,0,0,.11,2.07L195.41,250h1.46l-18.11-16.31a.49.49,0,0,1,0-.69l1.31-1.45a.49.49,0,0,1,.69,0L201.24,250h1.46l-21.33-19.21A1.47,1.47,0,0,0,179.3,230.9Z"/><path class="cls-1" d="M187.25,224.27a1.47,1.47,0,0,0-2.07.11l-1.31,1.45a1.46,1.46,0,0,0,.11,2.06L208.53,250H210l-25.35-22.83a.49.49,0,0,1,0-.69l1.31-1.45a.48.48,0,0,1,.68,0l27.55,24.81a.52.52,0,0,1,.14.2h1a1.47,1.47,0,0,0-.47-.92Z"/><path class="cls-1" d="M204.25,248.3l-.2-.44a4.52,4.52,0,0,0-2.89-2.59l-.42-.14a3.57,3.57,0,0,1-2.29-2l-.2-.44a4.52,4.52,0,0,0-2.89-2.59l-.42-.15a3.53,3.53,0,0,1-2.29-2l-.2-.44a4.53,4.53,0,0,0-2.89-2.6l-.42-.14a3.53,3.53,0,0,1-2.29-2l-.2-.45a4.54,4.54,0,0,0-2.89-2.59l-.42-.14a3.58,3.58,0,0,1-1.39-.77.49.49,0,0,0-.65.73,4.54,4.54,0,0,0,1.74,1l.43.14a3.58,3.58,0,0,1,2.28,2.05l.21.44a4.5,4.5,0,0,0,2.88,2.59l.43.14a3.58,3.58,0,0,1,2.28,2.05l.21.44a4.48,4.48,0,0,0,2.88,2.59l.43.15a3.54,3.54,0,0,1,2.28,2l.21.45a4.53,4.53,0,0,0,2.88,2.59l.43.14a3.59,3.59,0,0,1,2.29,2.05l.2.44a4.13,4.13,0,0,0,.84,1.31h1.54A3.48,3.48,0,0,1,204.25,248.3Z"/><path class="cls-1" d="M187.83,222.17a3.52,3.52,0,0,0,1.38.76l.43.15a4.5,4.5,0,0,1,2.88,2.59l.21.44a3.58,3.58,0,0,0,2.28,2l.43.14a4.48,4.48,0,0,1,2.88,2.59l.21.44a3.55,3.55,0,0,0,2.28,2l.43.14a4.5,4.5,0,0,1,2.88,2.59l.21.45a3.54,3.54,0,0,0,2.28,2l.43.14a4.53,4.53,0,0,1,2.88,2.59l.21.45a3.54,3.54,0,0,0,2.28,2l.43.15a4.48,4.48,0,0,1,2.88,2.59l.21.44a3.47,3.47,0,0,0,.9,1.28.49.49,0,0,1,0,.69.48.48,0,0,1-.68,0,4.54,4.54,0,0,1-1.15-1.61l-.2-.45a3.54,3.54,0,0,0-2.28-2l-.43-.15a4.52,4.52,0,0,1-2.89-2.59l-.2-.44a3.58,3.58,0,0,0-2.28-2.05l-.43-.14a4.52,4.52,0,0,1-2.89-2.59l-.2-.44a3.58,3.58,0,0,0-2.28-2.05l-.43-.14a4.52,4.52,0,0,1-2.89-2.59l-.2-.44a3.55,3.55,0,0,0-2.28-2.05l-.43-.14a4.54,4.54,0,0,1-2.89-2.59l-.2-.45a3.53,3.53,0,0,0-2.29-2l-.42-.15a4.45,4.45,0,0,1-1.75-1,.49.49,0,0,1,.66-.72Z"/><path class="cls-1" d="M213.43,222.9c8.19,7.38,11.78,16.79,8,21l-2,2.18a1.45,1.45,0,0,1-2.05.11l-27.57-24.82a1.46,1.46,0,0,1-.11-2.05l2-2.18C195.49,212.93,205.23,215.52,213.43,222.9Zm-23-2.94a.49.49,0,0,0,0,.68l27.57,24.82a.47.47,0,0,0,.67,0l2-2.18c3.42-3.8-.14-12.6-7.94-19.62s-16.92-9.64-20.34-5.84Z"/><path class="cls-1" d="M99.33,42.06a.51.51,0,0,1,.27-.25l1.2-.46-5.65-9.77a.5.5,0,0,1,.18-.67.49.49,0,0,1,.67.18l5.72,9.9,1.62-.62L98.78,30.13a.49.49,0,0,1,.24-.64h0a.5.5,0,0,1,.62.25L104.26,40l17.2-6.6a.48.48,0,0,1,.37,0l10.08,4.49a.48.48,0,0,1,.25.64.48.48,0,0,1-.64.25l-9.11-4.06,7.66,25.18a.5.5,0,0,1-.29.6l-18.22,7a.5.5,0,0,1-.62-.25L99.78,43.44l-4,9.1a.49.49,0,0,1-.89-.39Zm1.29.4,6.43,6.94L121,44l.14-9.46Zm11,24L129,59.78,122.08,37,122,44.38a.48.48,0,0,1-.31.45l-14.57,5.6a.5.5,0,0,1-.54-.13l-5-5.41Z"/><path class="cls-1" d="M110,50.35a.47.47,0,0,1,.65.24l4,8.44,7.2-2.76-2.71-8.93a.48.48,0,0,1,.33-.61.49.49,0,0,1,.61.33l2.84,9.36a.49.49,0,0,1-.29.59l-8.06,3.1a.49.49,0,0,1-.61-.25L109.78,51A.49.49,0,0,1,110,50.35Z"/><path class="cls-1" d="M147.18,157.34a40.26,40.26,0,0,0-7.73-8.89,11.76,11.76,0,0,1-1.68-1.77,12.07,12.07,0,0,1,.94-15.65,11.87,11.87,0,0,1,7.43-3.52c5.21-.46,9-1.4,12.26-3a12,12,0,0,1,8.79-.77,11.93,11.93,0,0,1,6.37,18.21c-2.08,3-3.53,6.62-4.72,11.73a11.93,11.93,0,0,1-20.14,5.61A11.59,11.59,0,0,1,147.18,157.34Zm16.56,2.38a10.93,10.93,0,0,0,4.15-6.31c1.22-5.23,2.71-8.93,4.87-12a11.06,11.06,0,0,0,1.82-7.91,10.94,10.94,0,0,0-7.66-8.81,11.05,11.05,0,0,0-8.08.7c-3.38,1.7-7.27,2.67-12.62,3.14a11,11,0,0,0-6.82,3.23,11.12,11.12,0,0,0-.86,14.37,10.41,10.41,0,0,0,1.55,1.63,41.4,41.4,0,0,1,7.91,9.1,10.72,10.72,0,0,0,1.4,1.76A11.09,11.09,0,0,0,163.74,159.72Z"/><path class="cls-1" d="M146.85,142.05A10.24,10.24,0,1,1,156.36,153,10.26,10.26,0,0,1,146.85,142.05Zm19.47,1.36a9.27,9.27,0,1,0-9.9,8.6A9.27,9.27,0,0,0,166.32,143.41Z"/><path class="cls-1" d="M160.59,149.19a7.3,7.3,0,0,0,3.78-5.91.49.49,0,0,1,.52-.46.48.48,0,0,1,.45.52,8.27,8.27,0,0,1-4.28,6.7.49.49,0,0,1-.66-.19A.48.48,0,0,1,160.59,149.19Z"/><path class="cls-1" d="M159.49,150.21a.49.49,0,0,1-.36.59,8.37,8.37,0,0,1-2.64.24.48.48,0,0,1-.45-.52h0a.48.48,0,0,1,.52-.45,7.59,7.59,0,0,0,2.33-.21A.49.49,0,0,1,159.49,150.21Z"/><path class="cls-1" d="M141.75,13.81,154.19,0h-1.32L141.36,12.79l-5.74-5.16a3.45,3.45,0,0,0,.84-.15A3.32,3.32,0,0,0,138.72,5l1.16-5h-1l-1.11,4.82a2.37,2.37,0,0,1-3.9,1.23l-4.56-4.12L131,0h-1.31l-1.15,1.28L127.16,0h-1.47l15.38,13.84A.48.48,0,0,0,141.75,13.81Z"/><path class="cls-1" d="M155.73,248.07a.49.49,0,0,0-.16-.33l-20.51-18.47-5.13-4.61a.48.48,0,0,0-.68,0L115.4,240.07a.49.49,0,0,0,0,.69L125.69,250h1.47l-.45-.41,4-4.4,1.88,1.68L129.73,250H131l10.52-11.68L138.88,250h1l2.87-12.49,11.8,10.63L152.87,250h1.32l1.41-1.57A.53.53,0,0,0,155.73,248.07Zm-16.57-13.79-4,4.4-4.39-4,4-4.41Zm-9.52-8.57,4.41,4-4,4.4-4.4-4ZM125,230.84l4.4,4-4,4.4-4.41-4Zm-8.58,9.52,4-4.4,4.4,4-4,4.4Zm9.52,8.58-4.4-4,4-4.4,4.39,4Zm4.62-5.13-4.4-4,4-4.4,4.4,4Zm2.61,2.34-1.88-1.69,4-4.4,1.87,1.69Zm4.61-5.13-1.87-1.68,4-4.41,1.88,1.69Z"/><path class="cls-1" d="M129.72,92.7a11,11,0,0,0,2.9,1l2.4-.21a1.49,1.49,0,0,1,1.22.49l1.58,1.82a2.46,2.46,0,0,0,2,.82l2.39-.21a1.49,1.49,0,0,1,1.23.49l1.58,1.82a2.45,2.45,0,0,0,2,.82l2.39-.2a1.51,1.51,0,0,1,1.23.49l1.57,1.81a10.79,10.79,0,0,0,2.75,1.34A6.34,6.34,0,1,0,159.25,91a14.16,14.16,0,0,0-4.56-10.37.49.49,0,0,0-.67.72,13.18,13.18,0,0,1,4.25,10,.5.5,0,0,0,.4.49,5.32,5.32,0,0,1,3.72,7.2,5.38,5.38,0,0,1-7,3A13.77,13.77,0,0,1,153,101l-1.57-1.82a2.49,2.49,0,0,0-2-.82l-2.39.21a1.49,1.49,0,0,1-1.23-.49l-1.58-1.82a2.49,2.49,0,0,0-2-.82l-2.39.21a1.52,1.52,0,0,1-1.22-.49L137,93.29a2.43,2.43,0,0,0-2-.82l-2.4.2a13.21,13.21,0,0,1-2.46-.88,5.38,5.38,0,0,1-3-7,5.32,5.32,0,0,1,7.68-2.59.5.5,0,0,0,.63-.08,13.2,13.2,0,0,1,10-4.27.49.49,0,1,0,0-1A14.15,14.15,0,0,0,135,81.19a6.33,6.33,0,1,0-5.26,11.51Z"/><path class="cls-1" d="M131.46,94.87a.48.48,0,0,0-.4-.56.47.47,0,0,0-.56.39l-1.79,9.8a.49.49,0,0,0,.29.54l18,7.26a.49.49,0,0,0,.59-.18l5.52-8.29a.5.5,0,0,0-.14-.68.48.48,0,0,0-.68.14l-5.3,8-17.24-7Z"/><path class="cls-1" d="M146.14,107.34l3-4.28a.49.49,0,1,0-.8-.55l-2.95,4.28a.49.49,0,0,0,.12.68A.49.49,0,0,0,146.14,107.34Z"/><path class="cls-1" d="M133.46,102.62a.49.49,0,0,0,.56-.4l.85-5.13a.48.48,0,0,0-.4-.56.48.48,0,0,0-.56.4l-.85,5.13A.49.49,0,0,0,133.46,102.62Z"/><path class="cls-1" d="M149,81.53a3.41,3.41,0,0,0,3-6.09A3.19,3.19,0,0,1,156.23,74a.49.49,0,0,0,.37-.91,4.17,4.17,0,0,0-5.52,2A3.41,3.41,0,0,0,149,81.53Zm2.19-5.42A2.44,2.44,0,1,1,148,77.45,2.44,2.44,0,0,1,151.15,76.11Z"/><path class="cls-1" d="M140.09,104.78,142,100a.48.48,0,0,0-.27-.63.49.49,0,0,0-.64.27l-1.91,4.74a.48.48,0,0,0,.9.36Z"/><path class="cls-1" d="M31.15,224.09a10.73,10.73,0,0,0,2.73-1.39l1.54-1.84a1.53,1.53,0,0,1,1.22-.51l2.4.16a2.43,2.43,0,0,0,2-.86l1.55-1.84a1.5,1.5,0,0,1,1.21-.51l2.41.16a2.35,2.35,0,0,0,1.11-.19,2.4,2.4,0,0,0,.91-.67l1.55-1.84a1.49,1.49,0,0,1,1.21-.51l2.4.16a10.66,10.66,0,0,0,2.89-1A6.34,6.34,0,1,0,50.83,202a14.15,14.15,0,0,0-10.56-4.11.49.49,0,1,0,0,1A13.19,13.19,0,0,1,50.41,203,.5.5,0,0,0,51,203a5.35,5.35,0,1,1,4.88,9.49,13.22,13.22,0,0,1-2.44.92l-2.4-.17a2.52,2.52,0,0,0-2,.86L47.51,216a1.5,1.5,0,0,1-1.22.52l-2.4-.17a2.49,2.49,0,0,0-2,.86L40.32,219a1.49,1.49,0,0,1-1.21.52l-2.41-.17a2.52,2.52,0,0,0-2,.86l-1.55,1.84a13,13,0,0,1-2.36,1.12,5.35,5.35,0,1,1-3.44-10.1.5.5,0,0,0,.39-.5,13.23,13.23,0,0,1,4.07-10.11.49.49,0,0,0,0-.69.5.5,0,0,0-.69,0,14.19,14.19,0,0,0-4.38,10.46,6.33,6.33,0,1,0,4.41,11.86Z"/><path class="cls-1" d="M33.92,224.4a.49.49,0,0,0-.68-.13.49.49,0,0,0-.12.68l5.66,8.2a.49.49,0,0,0,.59.17l17.86-7.58a.5.5,0,0,0,.29-.55l-2-9.76a.49.49,0,0,0-.58-.38.47.47,0,0,0-.38.57L56.48,225l-17.12,7.26Z"/><path class="cls-1" d="M53.12,222.83l-.94-5.11a.49.49,0,1,0-1,.17l.94,5.12a.49.49,0,1,0,1-.18Z"/><path class="cls-1" d="M40.82,228.45a.5.5,0,0,0,.11-.68l-3-4.22a.48.48,0,1,0-.79.56l3,4.23A.49.49,0,0,0,40.82,228.45Z"/><path class="cls-1" d="M36.86,202.59a3.41,3.41,0,0,0-2.16-6.45,3.21,3.21,0,0,1,1.95-4.06.49.49,0,0,0-.39-.9,4.17,4.17,0,0,0-2.47,5.33,3.41,3.41,0,0,0,3.07,6.08Zm-2.28-5.39a2.44,2.44,0,1,1-1.29,3.2A2.44,2.44,0,0,1,34.58,197.2Z"/><path class="cls-1" d="M47,225.3l-2-4.71a.5.5,0,0,0-.64-.26.48.48,0,0,0-.26.64l2,4.71a.48.48,0,1,0,.89-.38Z"/><path class="cls-1" d="M95.21,139.46a.48.48,0,0,1-.43.62.48.48,0,0,1-.5-.34c-1-3.15-.18-8.63,5.93-10.83a.49.49,0,0,1,.33.92C95.07,131.8,94.36,136.67,95.21,139.46Z"/><path class="cls-1" d="M113.57,170.36a.54.54,0,0,0-.72.21,2.47,2.47,0,0,1-1.35,1,2.43,2.43,0,0,1-3-1.62,2.48,2.48,0,0,1,.86-2.68.49.49,0,0,0,.2-.53l-1.13-3.67a1.45,1.45,0,0,1-1.56-.64c-2.09-3.39-9.22-14.73-13.37-17.75a7.36,7.36,0,0,1-2.93-3.83,12.7,12.7,0,0,1,8.34-15.64c3.46-1.24,6.5-1.26,9,0s4.6,3.8,5.89,7.54c2.33,6.76.62,23,0,27.81a1.48,1.48,0,0,1-.78,1.11l1.12,3.69a.48.48,0,0,0,.45.33,2.44,2.44,0,0,1,.94,4.64A2.43,2.43,0,0,1,113.57,170.36Zm-.69-9.93c.41-3.39,2.32-20.64,0-27.37-1.14-3.35-2.9-5.78-5.38-7-2.27-1.09-5.09-1.08-8.28.08a11.73,11.73,0,0,0-7.74,14.44A6.36,6.36,0,0,0,94,143.92c4.18,3,10.93,13.62,13.63,18a.47.47,0,0,0,.54.2l4.33-1.32A.47.47,0,0,0,112.88,160.43ZM116,168.3a1.49,1.49,0,0,0-1.4-1.65,1.47,1.47,0,0,1-1.34-1l-1.1-3.66-2.82.85,1.13,3.66a1.46,1.46,0,0,1-.54,1.6,1.47,1.47,0,0,0,1.29,2.59A1.51,1.51,0,0,0,112,170a1.51,1.51,0,0,1,1.93-.58,1.41,1.41,0,0,0,1,.06A1.48,1.48,0,0,0,116,168.3Z"/><path class="cls-1" d="M6.52,164.89a.49.49,0,0,0-.15-.82L0,161.63v1l5.2,2A6.5,6.5,0,0,1,0,165.78v1C3.51,167.59,6.39,165,6.52,164.89Z"/><path class="cls-1" d="M11.44,159.78c2.84-1.27,7.31-5.95,6.14-10.72a3.61,3.61,0,0,0-2-2.48,6.67,6.67,0,0,0-4.07-.2c.39-.82.73-1.63,1-2.41a.48.48,0,0,0-.28-.63L0,138.64v1l11.43,4.39C8.75,150.79,4.06,157,0,159.21v1.29C1.62,160.81,7.23,161.66,11.44,159.78ZM9,151c.47-.17.95-.36,1.41-.56,1.45-.61,2.93-1.22,3.48-.73a2.57,2.57,0,0,1,.35,2.29,8.81,8.81,0,0,1-4.06,4.84,9,9,0,0,1-6,.34A34.33,34.33,0,0,0,9,151Zm-7.88,8.7A16.53,16.53,0,0,0,3.35,158a10.54,10.54,0,0,0,7.21-.25,9.82,9.82,0,0,0,4.62-5.48,3.59,3.59,0,0,0-.58-3.19c-1-1-2.76-.28-4.57.48l-.22.08q.62-1.05,1.14-2.1a6.56,6.56,0,0,1,4.2,0,2.66,2.66,0,0,1,1.48,1.83c1,4.25-3,8.45-5.59,9.6C7.73,160.37,3.3,160,1.11,159.69Z"/><path class="cls-1" d="M.46,137.25a7.2,7.2,0,0,0,.17-3.31,6.57,6.57,0,0,1,.11-2.86,6.54,6.54,0,0,1,1.83-2.19,7.31,7.31,0,0,0,2.09-2.57.49.49,0,0,0-.91-.35,6.67,6.67,0,0,1-1.83,2.2A8.46,8.46,0,0,0,0,130.36v7.2A.47.47,0,0,0,.46,137.25Z"/><path class="cls-1" d="M5,139a.49.49,0,0,0,.91.35A7.34,7.34,0,0,0,6.1,136a6.57,6.57,0,0,1,.11-2.86A6.54,6.54,0,0,1,8,131a7.42,7.42,0,0,0,2.09-2.57.49.49,0,0,0-.28-.63.48.48,0,0,0-.63.28,6.47,6.47,0,0,1-1.84,2.19,7.39,7.39,0,0,0-2.08,2.57,7.34,7.34,0,0,0-.17,3.31A6.57,6.57,0,0,1,5,139Z"/><path class="cls-1" d="M249.5,165.62l-20-7.7a6.31,6.31,0,0,1-3.6-4.51L250,162.67v-1l-24.61-9.45a.49.49,0,0,0-.66.5c0,.19.5,4.66,4.38,6.15l20,7.7a5.35,5.35,0,0,0,.84.25v-1Z"/><path class="cls-1" d="M249.46,159.49a.49.49,0,0,0,.09.92l.45.09v-1.29C249.82,159.31,249.64,159.41,249.46,159.49Z"/><path class="cls-1" d="M234.28,133.12c-2.44,6.36-3.77,15.49-1.58,20.66a.48.48,0,0,0,.64.26.49.49,0,0,0,.26-.64c-1.8-4.26-1.2-12.38,1.42-19.47l15,5.75v-1l-15.09-5.8A.49.49,0,0,0,234.28,133.12Z"/><path class="cls-1" d="M234.08,148.16a.48.48,0,0,0,.47-.5,33.25,33.25,0,0,1,.75-7.64.48.48,0,0,0-.38-.57.48.48,0,0,0-.58.37,34,34,0,0,0-.76,7.87A.48.48,0,0,0,234.08,148.16Z"/><path class="cls-1" d="M235.74,138.15q.28-1.08.63-2.16a.48.48,0,0,0-.92-.3c-.24.73-.46,1.47-.65,2.21a.48.48,0,0,0,.29.58A.49.49,0,0,0,235.74,138.15Z"/><path class="cls-1" d="M244.09,134.8a.49.49,0,1,0,.91.35,7.31,7.31,0,0,0,.17-3.3,6.57,6.57,0,0,1,.1-2.86,6.49,6.49,0,0,1,1.84-2.2,7.3,7.3,0,0,0,2.08-2.57.49.49,0,0,0-.91-.35,6.67,6.67,0,0,1-1.83,2.2,5.33,5.33,0,0,0-2.26,5.87A6.42,6.42,0,0,1,244.09,134.8Z"/><path class="cls-1" d="M249.83,130.73a7.34,7.34,0,0,0-.17,3.31,6.56,6.56,0,0,1-.11,2.86.5.5,0,0,0,.28.63.51.51,0,0,0,.17,0v-7.2C249.94,130.48,249.88,130.61,249.83,130.73Z"/><path class="cls-1" d="M3.26,217.73A6.24,6.24,0,0,1,0,221v1a7.22,7.22,0,0,0,4.16-4,8.58,8.58,0,0,0-4.16-11v1.1A7.61,7.61,0,0,1,3.26,217.73Z"/><path class="cls-1" d="M.58,217a4.41,4.41,0,0,0,0-3.4,4.28,4.28,0,0,0-.6-1v5.4A3.9,3.9,0,0,0,.58,217Z"/><path class="cls-1" d="M8.25,219.88a13.18,13.18,0,0,0-7-17.27A12.07,12.07,0,0,0,0,202.15v1c.3.1.6.21.89.33a12.21,12.21,0,0,1,6.46,16A12.14,12.14,0,0,1,0,226.29v1A13.16,13.16,0,0,0,8.25,219.88Z"/><path class="cls-1" d="M231.69,248.74a2.45,2.45,0,0,0,3.21-1.3L242.72,229a.49.49,0,0,0-.26-.64.48.48,0,0,0-.64.26L234,247.06a1.47,1.47,0,1,1-2.7-1.15l7.81-18.41a.48.48,0,0,0-.26-.64.49.49,0,0,0-.64.26l-7.81,18.41A2.45,2.45,0,0,0,231.69,248.74Z"/><path class="cls-1" d="M245.05,221.05a5.14,5.14,0,0,1-2.77-2.82,5.07,5.07,0,0,1,.05-3.92,4.28,4.28,0,0,1,5.53-2.23,3.36,3.36,0,0,1,1.84,1.86,3.43,3.43,0,0,1,0,2.65,2.71,2.71,0,0,1-1.51,1.5h0a2.79,2.79,0,0,1-2.14,0,2.25,2.25,0,0,1-1.2-3,.49.49,0,1,0-.9-.38,3.24,3.24,0,0,0,1.71,4.24,3.86,3.86,0,0,0,2.91,0,3.8,3.8,0,0,0,1.46-1.06v-5.4a4.34,4.34,0,0,0-1.76-1.35,5.16,5.16,0,0,0-6.81,2.74,6.12,6.12,0,0,0,3.24,8,7.18,7.18,0,0,0,5.33.12v-1A6.26,6.26,0,0,1,245.05,221.05Z"/><path class="cls-1" d="M241.36,226c-.4-.17-.78-.36-1.15-.56a11,11,0,0,1-3-12.75,9.16,9.16,0,0,1,12-4.86,6.73,6.73,0,0,1,.76.38v-1.1l-.38-.18a10.16,10.16,0,0,0-13.3,5.38,12,12,0,0,0,.3,10.1A12.19,12.19,0,0,1,250,203.18v-1a13.17,13.17,0,1,0,0,25.17v-1A12.13,12.13,0,0,1,241.36,226Z"/><path class="cls-1" d="M168.36,61.39a5.84,5.84,0,0,1,1.66.82l1.2.83a2.37,2.37,0,0,0,1.43.44l1.46,0a5.72,5.72,0,0,1,1.84.25l1.4.43a2.44,2.44,0,0,0,1.49,0l1.39-.48a6,6,0,0,1,1.82-.32l1.47,0a2.41,2.41,0,0,0,1.41-.49l1.17-.88a6.23,6.23,0,0,1,1.63-.87l1.39-.47a2.42,2.42,0,0,0,1.19-.9l.84-1.2a6.07,6.07,0,0,1,1.29-1.34l1.17-.88a2.35,2.35,0,0,0,.85-1.22l.43-1.4A6.29,6.29,0,0,1,195.7,52l.84-1.19a2.37,2.37,0,0,0,.44-1.43l0-1.46a6,6,0,0,1,.26-1.84l.43-1.4a2.37,2.37,0,0,0,0-1.49l-.47-1.39a6,6,0,0,1-.32-1.82l0-1.47a2.41,2.41,0,0,0-.49-1.41l-.88-1.17a6.29,6.29,0,0,1-.87-1.64l-.47-1.38a2.42,2.42,0,0,0-.9-1.19l-1.2-.84a5.82,5.82,0,0,1-1.33-1.29l-.88-1.17a2.46,2.46,0,0,0-1.23-.85l-1.4-.43a5.84,5.84,0,0,1-1.66-.82l-1.2-.83a2.37,2.37,0,0,0-1.43-.44l-1.46,0a6,6,0,0,1-1.84-.26l-1.4-.43a2.44,2.44,0,0,0-1.49,0l-1.39.48a6,6,0,0,1-1.82.32l-1.47,0a2.47,2.47,0,0,0-1.41.48l-1.17.89a6,6,0,0,1-1.64.87l-1.38.47a2.47,2.47,0,0,0-1.19.9l-.84,1.2a5.82,5.82,0,0,1-1.29,1.33l-1.16.89a2.09,2.09,0,0,0-.53.54,2,2,0,0,0-.33.68l-.43,1.4a6,6,0,0,1-.81,1.67L159,37.72a2.39,2.39,0,0,0-.44,1.43l0,1.46a6.06,6.06,0,0,1-.26,1.84l-.43,1.4a2.37,2.37,0,0,0,0,1.49l.47,1.39a5.9,5.9,0,0,1,.32,1.82l0,1.47a2.41,2.41,0,0,0,.49,1.41l.87,1.17a5.76,5.76,0,0,1,.88,1.64l.47,1.38a2.48,2.48,0,0,0,.9,1.19l1.2.84a5.82,5.82,0,0,1,1.33,1.29l.88,1.17A2.42,2.42,0,0,0,167,61Zm-1.85-1.87-.88-1.17a6.9,6.9,0,0,0-1.55-1.5l-1.2-.84a1.35,1.35,0,0,1-.53-.71l-.48-1.38a6.89,6.89,0,0,0-1-1.91L160,50.84a1.47,1.47,0,0,1-.29-.84l0-1.46a6.68,6.68,0,0,0-.38-2.13L158.81,45a1.43,1.43,0,0,1,0-.89l.43-1.4a7.1,7.1,0,0,0,.3-2.14l0-1.47a1.48,1.48,0,0,1,.27-.85l.83-1.19a6.79,6.79,0,0,0,.95-2l.43-1.4a1.37,1.37,0,0,1,.51-.72l1.17-.89a6.9,6.9,0,0,0,1.5-1.55l.84-1.2a1.39,1.39,0,0,1,.71-.53l1.38-.48a7.13,7.13,0,0,0,1.91-1l1.17-.89a1.47,1.47,0,0,1,.84-.29l1.46,0a6.73,6.73,0,0,0,2.13-.38l1.38-.47a1.43,1.43,0,0,1,.89,0l1.4.43a7,7,0,0,0,2.14.3l1.47,0a1.44,1.44,0,0,1,.85.25l1.2.84a6.61,6.61,0,0,0,1.94.95l1.4.43A1.5,1.5,0,0,1,189,29l.88,1.17a6.9,6.9,0,0,0,1.55,1.5l1.2.84a1.4,1.4,0,0,1,.53.71l.48,1.38a6.89,6.89,0,0,0,1,1.91l.88,1.17a1.47,1.47,0,0,1,.29.84l0,1.46a6.73,6.73,0,0,0,.38,2.13l.47,1.38a1.43,1.43,0,0,1,0,.89l-.43,1.4a7.1,7.1,0,0,0-.3,2.14l0,1.47a1.38,1.38,0,0,1-.26.85l-.83,1.2a6.61,6.61,0,0,0-.95,1.94l-.43,1.4a1.5,1.5,0,0,1-.51.73l-1.17.88a6.9,6.9,0,0,0-1.5,1.55l-.84,1.2a1.4,1.4,0,0,1-.71.53l-1.38.48a6.89,6.89,0,0,0-1.91,1l-1.17.88a1.47,1.47,0,0,1-.84.29l-1.46,0a6.68,6.68,0,0,0-2.13.38l-1.38.47a1.43,1.43,0,0,1-.89,0l-1.4-.43a7.1,7.1,0,0,0-2.14-.3l-1.47,0a1.52,1.52,0,0,1-.85-.26l-1.2-.84a6.61,6.61,0,0,0-1.94-.95l-1.4-.43A1.5,1.5,0,0,1,166.51,59.52Z"/><path class="cls-1" d="M169.74,58.89a4.91,4.91,0,0,1,1.4.68l1,.71a2.09,2.09,0,0,0,1.26.39l1.24,0a5,5,0,0,1,1.54.21l1.19.37a2.1,2.1,0,0,0,1.31,0l1.18-.4a5,5,0,0,1,1.53-.27l1.24,0a2.19,2.19,0,0,0,1.25-.43l1-.75a5.16,5.16,0,0,1,1.37-.73l1.18-.4a2.17,2.17,0,0,0,1.05-.79l.71-1a4.79,4.79,0,0,1,1.08-1.12l1-.75a2.14,2.14,0,0,0,.76-1.08l.36-1.19a5,5,0,0,1,.68-1.39l.71-1a2.09,2.09,0,0,0,.39-1.26l0-1.24a5,5,0,0,1,.21-1.54l.37-1.19a2.1,2.1,0,0,0,0-1.31l-.4-1.18a5,5,0,0,1-.27-1.53l0-1.24a2.19,2.19,0,0,0-.43-1.25l-.75-1a5.16,5.16,0,0,1-.73-1.37l-.4-1.18a2.12,2.12,0,0,0-.79-1.05l-1-.71a4.79,4.79,0,0,1-1.12-1.08l-.75-1a2.14,2.14,0,0,0-1.08-.76l-1.18-.36a4.91,4.91,0,0,1-1.4-.68l-1-.71a2,2,0,0,0-1.26-.39l-1.24,0a5,5,0,0,1-1.54-.21l-1.19-.37a2.09,2.09,0,0,0-1.31,0l-1.18.4a5,5,0,0,1-1.53.27l-1.24,0a2.14,2.14,0,0,0-1.25.43l-1,.75a5,5,0,0,1-1.37.73l-1.18.4a2.17,2.17,0,0,0-1.05.79l-.71,1a4.79,4.79,0,0,1-1.08,1.12l-1,.75a2.09,2.09,0,0,0-.46.48,2.11,2.11,0,0,0-.3.6l-.36,1.19a5,5,0,0,1-.68,1.39l-.71,1a2.11,2.11,0,0,0-.39,1.26l0,1.24a5,5,0,0,1-.21,1.54l-.37,1.19a2.1,2.1,0,0,0,0,1.31l.4,1.18a5,5,0,0,1,.27,1.53l0,1.24a2.19,2.19,0,0,0,.43,1.25l.75,1a5.16,5.16,0,0,1,.73,1.37l.4,1.18a2.17,2.17,0,0,0,.79,1.05l1,.71a4.79,4.79,0,0,1,1.12,1.08l.75,1a2.14,2.14,0,0,0,1.08.76Zm-1.48-1.7-.75-1a6.07,6.07,0,0,0-1.34-1.29l-1-.71a1.16,1.16,0,0,1-.43-.57l-.4-1.17a5.8,5.8,0,0,0-.87-1.65l-.75-1a1.11,1.11,0,0,1-.23-.67l0-1.25a6,6,0,0,0-.33-1.83l-.4-1.17a1.08,1.08,0,0,1,0-.71l.36-1.2a6,6,0,0,0,.26-1.84l0-1.24a1.11,1.11,0,0,1,.2-.68l.72-1a5.74,5.74,0,0,0,.81-1.67l.37-1.19a1.17,1.17,0,0,1,.4-.58l1-.75a5.67,5.67,0,0,0,1.29-1.34l.71-1a1.09,1.09,0,0,1,.57-.42l1.18-.41A6.29,6.29,0,0,0,171.2,30l1-.75a1.09,1.09,0,0,1,.67-.23l1.25,0a5.79,5.79,0,0,0,1.83-.33l1.18-.4a1.08,1.08,0,0,1,.71,0l1.18.36a6.17,6.17,0,0,0,1.85.26l1.24,0a1.18,1.18,0,0,1,.68.2l1,.72a5.74,5.74,0,0,0,1.67.81l1.19.37a1.13,1.13,0,0,1,.58.4l.75,1a6.07,6.07,0,0,0,1.34,1.29l1,.71a1.14,1.14,0,0,1,.42.57l.41,1.18a6.16,6.16,0,0,0,.87,1.64l.75,1a1.11,1.11,0,0,1,.23.67l0,1.25a6,6,0,0,0,.33,1.83l.4,1.17a1.11,1.11,0,0,1,0,.72l-.36,1.19a6,6,0,0,0-.26,1.84l0,1.24a1.11,1.11,0,0,1-.2.68l-.72,1a5.74,5.74,0,0,0-.81,1.67l-.37,1.19a1.09,1.09,0,0,1-.41.58l-1,.75a6.07,6.07,0,0,0-1.29,1.34l-.71,1a1.14,1.14,0,0,1-.57.42l-1.18.41a6,6,0,0,0-1.64.87l-1,.75a1.11,1.11,0,0,1-.67.23l-1.25,0a6,6,0,0,0-1.83.33l-1.17.4a1.11,1.11,0,0,1-.72,0l-1.19-.36a6,6,0,0,0-1.84-.26l-1.24,0a1.11,1.11,0,0,1-.68-.2l-1-.72A5.74,5.74,0,0,0,170,58l-1.19-.37A1.13,1.13,0,0,1,168.26,57.19Z"/><path class="cls-1" d="M170.71,55.5a.49.49,0,0,0-.39.57.48.48,0,0,0,.56.39l4.87-.86.42,2.35a.49.49,0,1,0,1-.17l-.42-2.34,5.84-1,.41,2.34a.5.5,0,0,0,.57.4.49.49,0,0,0,.39-.57l-.41-2.34,4.87-.86a.5.5,0,0,0,.4-.57.49.49,0,0,0-.57-.39l-4.87.86-1-5.84,5.83-1,.86,4.88a.49.49,0,0,0,.57.39.48.48,0,0,0,.39-.56l-.86-4.87,2.35-.42a.49.49,0,1,0-.17-1l-2.35.41-1-5.83,2.34-.41a.5.5,0,0,0,.4-.57.49.49,0,0,0-.57-.39l-2.34.41-.86-4.87a.5.5,0,0,0-.57-.4.49.49,0,0,0-.39.57l.86,4.87-5.84,1-1-5.83,4.88-.86a.49.49,0,0,0,.39-.57.48.48,0,0,0-.56-.39l-4.87.86-.42-2.35a.49.49,0,1,0-1,.17l.41,2.34-5.83,1-.41-2.34a.5.5,0,0,0-.57-.4.49.49,0,0,0-.39.57l.41,2.34-4.87.86a.5.5,0,0,0-.4.57.49.49,0,0,0,.57.39l4.87-.86,1,5.84-5.83,1-.86-4.88a.49.49,0,0,0-.57-.39.48.48,0,0,0-.39.56l.86,4.87-2.35.42a.49.49,0,1,0,.17,1l2.35-.41,1,5.83-2.34.41a.5.5,0,0,0-.4.57.49.49,0,0,0,.57.39l2.34-.41.86,4.87a.5.5,0,0,0,.57.4.49.49,0,0,0,.39-.57l-.86-4.87,5.84-1,1,5.83ZM187,39.62l1,5.83-5.83,1-1-5.83Zm-13.83-4.57L179,34l1,5.83-5.83,1Zm7,5.77,1,5.83-5.83,1-1-5.83Zm-11.6,8.06-1-5.83,5.83-1,1,5.83Zm7-.24,5.83-1,1,5.84-5.83,1Z"/><path class="cls-1" d="M196.67,165a.48.48,0,0,1,.65.22L208,187.17a.48.48,0,0,1-.23.65.48.48,0,0,1-.65-.22l-10.66-21.92A.48.48,0,0,1,196.67,165Z"/><path class="cls-1" d="M191.63,168,202.29,190a.48.48,0,0,1-.22.65.49.49,0,0,1-.66-.22l-10.66-21.92a.48.48,0,0,1,.23-.65A.48.48,0,0,1,191.63,168Z"/><path class="cls-1" d="M202.45,162.45,215,188.17a2.39,2.39,0,0,1-1.09,3.19l-12.79,6.24a2.39,2.39,0,0,1-3.19-1.1l-12.57-25.69a9.54,9.54,0,1,1,17.13-8.36Zm-16.25,7.93,12.56,25.69a1.42,1.42,0,0,0,1.89.65l12.79-6.24a1.4,1.4,0,0,0,.65-1.88l-12.51-25.72a8.56,8.56,0,1,0-15.38,7.5Z"/><path class="cls-1" d="M210.22,194.71a.48.48,0,0,1,.22-.65.5.5,0,0,1,.66.23l2.49,5.12a3.34,3.34,0,1,1-6,2.93l-2.5-5.12a.5.5,0,0,1,.22-.66.51.51,0,0,1,.66.23l2.5,5.12a2.36,2.36,0,1,0,4.24-2.07Z"/><path class="cls-1" d="M40.65,157.36l1.92.7a10.25,10.25,0,0,1,12.28-9.94,10.26,10.26,0,0,1,17.52,6.37A10.25,10.25,0,0,1,77.11,167a10.43,10.43,0,0,1-1.71,3l1.92.7a.5.5,0,0,1,.29.63c-1.48,4.07-9.93,5.86-18.45,3.91a2.49,2.49,0,0,0-1.87.29,2.41,2.41,0,0,0-1.1,1.52l-.36,1.58a.55.55,0,0,0,.17.48,7.84,7.84,0,0,1,2.19,4.16,1.47,1.47,0,0,1-2,1.56l-8.49-3.09a1.47,1.47,0,0,1-.51-2.46,7.9,7.9,0,0,1,4.35-1.78.54.54,0,0,0,.44-.27l.74-1.43a2.43,2.43,0,0,0,.13-1.87,2.46,2.46,0,0,0-1.24-1.43c-7.78-4-13.1-10.78-11.62-14.85A.48.48,0,0,1,40.65,157.36ZM54.09,149a9.29,9.29,0,0,0-10.55,9.42l11.35,4.13a10.26,10.26,0,0,1-2.37-10.72A10.45,10.45,0,0,1,54.09,149Zm11.23-2.38a9.26,9.26,0,0,0-8.08,16.56,10.15,10.15,0,0,1,.62-3.18A10.26,10.26,0,0,1,71,153.86l.34.14A9.3,9.3,0,0,0,65.32,146.61Zm5.33,8.17a9.28,9.28,0,0,0-11.88,5.54,9.5,9.5,0,0,0-.56,3.43l16.21,5.9a9.29,9.29,0,0,0-3.77-14.87ZM52.09,171.63a3.48,3.48,0,0,1,1.72,2,3.37,3.37,0,0,1-.2,2.62l-.73,1.44a1.5,1.5,0,0,1-1.24.79A6.8,6.8,0,0,0,47.86,180a.48.48,0,0,0,.2.8l8.49,3.09a.48.48,0,0,0,.67-.49,6.81,6.81,0,0,0-1.9-3.61,1.5,1.5,0,0,1-.44-1.4l.36-1.58a3.38,3.38,0,0,1,1.54-2.13,3.52,3.52,0,0,1,2.6-.42c8.35,1.92,15.45.08,17.11-2.84l-35.68-13C40.2,161.75,44.46,167.73,52.09,171.63Z"/><path class="cls-1" d="M59.38,113.79l-3.47-8.15a3.77,3.77,0,0,0-5-2c-2.09-4-8.09-7.59-11.61-7.81a3.35,3.35,0,0,0-2.88,1.74c-.06.09-.12.2-.19.29-3.61-.27-8.22-.19-10.3,1.6a3.15,3.15,0,0,0-1.09,2.15c-.15,2.66,1.6,3.88,3.64,5.31a19.16,19.16,0,0,1,4.31,3.78,12.88,12.88,0,0,0,.11,4.43,5.54,5.54,0,0,0,1.5,1.94,2.71,2.71,0,0,0,.07,1.9l.4.94a2.67,2.67,0,0,0,1.32,1.37,5.67,5.67,0,0,0,.34,2.43,13.19,13.19,0,0,0,3.12,3.16,19,19,0,0,1-.27,5.72c-.39,2.46-.73,4.57,1.29,6.31a3.09,3.09,0,0,0,2.3.7c2.74-.24,6-3.5,8.31-6.29l.34.06a3.32,3.32,0,0,0,3.25-.86c2.29-2.68,3.84-9.52,2.44-13.77a3.79,3.79,0,0,0,2.08-5ZM29,106.15c-2-1.41-3.36-2.35-3.23-4.45a2.07,2.07,0,0,1,.76-1.47c1.37-1.18,4.67-1.68,9.12-1.4a35.61,35.61,0,0,0-2.76,10.57A21.81,21.81,0,0,0,29,106.15Zm6.24,9.71a2.34,2.34,0,0,0-.39.38,4.55,4.55,0,0,1-1.1-1.46c-.55-1.3.48-12.45,3.42-16.61.66-.93,1.35-1.38,2-1.34,3.23.2,9,3.7,10.84,7.36Zm7.6,22.8a2,2,0,0,1-1.58-.48c-1.6-1.36-1.35-3-1-5.41a21.84,21.84,0,0,0,.37-5.05,35.54,35.54,0,0,0,9.52,5.35C47.33,136.47,44.68,138.5,42.87,138.66Zm11.25-6.75a2.49,2.49,0,0,1-2.37.53c-5-.77-13.78-7.78-14.33-9.08a4.48,4.48,0,0,1-.28-1.8,2.44,2.44,0,0,0,.54,0L56.36,119C57.68,122.9,56.22,129.45,54.12,131.91Zm4.22-15.26A2.78,2.78,0,0,1,56.29,118l-18.74,2.55a1.69,1.69,0,0,1-1.79-1l-.4-.94a1.7,1.7,0,0,1,.51-2l14.85-11.71a2.77,2.77,0,0,1,2.42-.51A2.8,2.8,0,0,1,55,106l3.46,8.15A2.81,2.81,0,0,1,58.34,116.65Z"/><path class="cls-1" d="M22.28,250H33.87c-.51-.15-1-.29-1.55-.4A20.35,20.35,0,0,0,22.28,250Z"/><path class="cls-1" d="M8.08,15.18a6.21,6.21,0,0,0,3.41,7l-.08.05a13.81,13.81,0,0,0-1.5,1.2,12.72,12.72,0,0,1-1.39,1.11.5.5,0,0,0-.14.68c1.94,3,4.54,3.53,7.53,1.59a.47.47,0,0,0,.14-.67,13.62,13.62,0,0,1-.81-1.58,12.3,12.3,0,0,0-1-1.82,6.22,6.22,0,0,0,5.9-4.84A8.08,8.08,0,0,1,36,21.23a6.2,6.2,0,0,0,3.42,6.82,12.44,12.44,0,0,0-1.62,1.27,13.75,13.75,0,0,1-1.39,1.11.5.5,0,0,0-.14.68c1.94,3,4.54,3.54,7.53,1.6a.49.49,0,0,0,.14-.67,14.47,14.47,0,0,1-.81-1.58,14.3,14.3,0,0,0-.88-1.71l-.06-.08a6.24,6.24,0,0,0,6-5A20.49,20.49,0,0,0,33.87,0H22.28A20.32,20.32,0,0,0,8.08,15.18Zm6.28,9.76c.2.43.4.87.62,1.27-2.23,1.29-4,.91-5.52-1.17.37-.27.73-.59,1.09-.91.79-.68,1.77-1.54,2.3-1.43S13.92,24,14.36,24.94Zm27.86,5.93c.2.43.41.87.63,1.27-2.23,1.28-4,.91-5.52-1.18.36-.27.73-.59,1.09-.9.79-.69,1.77-1.55,2.29-1.44S41.78,29.92,42.22,30.87ZM32.12.55a19.6,19.6,0,0,1,15.05,23,5.22,5.22,0,0,1-10.24-2.08,9,9,0,0,0-17.7-3.76A5.22,5.22,0,0,1,9,15.4,19.6,19.6,0,0,1,32.12.55Z"/><path class="cls-1" d="M125.93,188.41A1.48,1.48,0,0,1,128,188l31.33,21.14a1.48,1.48,0,0,1,.4,2.06l-.55.82a2.49,2.49,0,0,1-3.44.67l-29.69-20a2.48,2.48,0,0,1-.67-3.43Zm.65,3.45,29.7,20a1.51,1.51,0,0,0,2.08-.4l.56-.83a.51.51,0,0,0-.14-.7l-31.34-21.14a.49.49,0,0,0-.7.14l-.56.82A1.5,1.5,0,0,0,126.58,191.86Z"/><path class="cls-1" d="M157.89,204.77l-2.52-.19a2.26,2.26,0,0,1-1.88-1.27l-1.11-2.26a1.31,1.31,0,0,0-1.09-.73l-2.51-.19a2.31,2.31,0,0,1-1.89-1.27l-1.11-2.26a1.31,1.31,0,0,0-1.08-.73l-2.52-.19a2.31,2.31,0,0,1-1.89-1.27l-1.11-2.26a1.3,1.3,0,0,0-1.08-.73l-2.52-.19A2.26,2.26,0,0,1,133.7,190l-1.12-2.26a1.28,1.28,0,0,0-1.08-.73l-2.51-.19a2.34,2.34,0,0,1-1.12-.38.49.49,0,1,1,.55-.81,1.29,1.29,0,0,0,.64.22l2.51.18a2.29,2.29,0,0,1,1.89,1.28l1.11,2.26a1.33,1.33,0,0,0,1.09.73l2.51.18a2.3,2.3,0,0,1,1.89,1.28l1.11,2.26a1.3,1.3,0,0,0,1.08.73l2.52.18a2.29,2.29,0,0,1,1.88,1.28l1.12,2.26a1.3,1.3,0,0,0,1.08.73l2.51.19a2.24,2.24,0,0,1,1.89,1.27l1.12,2.26a1.28,1.28,0,0,0,1.08.73l2.51.19a2.27,2.27,0,0,1,1.89,1.27l1.11,2.26a1.3,1.3,0,0,0,.45.51.49.49,0,0,1-.55.81,2.29,2.29,0,0,1-.77-.89L159,205.5A1.3,1.3,0,0,0,157.89,204.77Z"/><path class="cls-1" d="M133.25,185.54a4.48,4.48,0,0,1-1.07-6.4,6.22,6.22,0,0,1,8.61-1.72,6.06,6.06,0,0,1,2.66,4.52,6.1,6.1,0,0,1,7.85,5.29,6.11,6.11,0,0,1,7.86,5.3,6.14,6.14,0,0,1,5.19.78,6.21,6.21,0,0,1,1.63,8.62,4.45,4.45,0,0,1-6.33,1.41Zm31.92,15.84a5.19,5.19,0,1,0-8.61-5.81.49.49,0,1,1-.81-.55,6.3,6.3,0,0,1,2.45-2.12,5.12,5.12,0,0,0-7.17-4.53,5,5,0,0,0-2.34,1.91.49.49,0,1,1-.81-.55,6.08,6.08,0,0,1,2.47-2.13,5.1,5.1,0,0,0-2.25-4.07,5.18,5.18,0,0,0-4.93-.46,5.12,5.12,0,0,0-2.33,1.91.49.49,0,0,1-.81-.54,6,6,0,0,1,2.47-2.13,5.16,5.16,0,0,0-2.26-4.08,5.24,5.24,0,0,0-7.25,1.45,3.5,3.5,0,0,0,.8,5l26.4,17.8A3.47,3.47,0,0,0,165.17,201.38Z"/><path class="cls-1" d="M48.72,74.52a.5.5,0,0,1,.61.34l.76,2.65a.49.49,0,0,1-.34.6.47.47,0,0,1-.6-.33l-.76-2.65A.49.49,0,0,1,48.72,74.52Z"/><path class="cls-1" d="M27.87,71.89a.49.49,0,0,1,.61.33.5.5,0,0,1-.34.61l-2.65.76a.49.49,0,0,1-.6-.34.47.47,0,0,1,.33-.6Z"/><path class="cls-1" d="M42,78.6a.49.49,0,0,1,.6.34.47.47,0,0,1-.33.6l-2.65.76A.49.49,0,0,1,39,80a.5.5,0,0,1,.34-.61Z"/><path class="cls-1" d="M30.05,80.74A20,20,0,1,1,57.24,73,20,20,0,0,1,30.05,80.74Zm28.66-19a2.44,2.44,0,0,0-1.48,1.16L53,70.58a3.42,3.42,0,0,1-6-3.31l4.26-7.68A2.44,2.44,0,1,0,47,57.23l-.75,1.36a.49.49,0,0,1-.86-.47l.76-1.37a3.41,3.41,0,0,1,6,3.31l-4.25,7.68a2.44,2.44,0,1,0,4.26,2.37l4.26-7.68a3.37,3.37,0,0,1,2.22-1.67A19,19,0,0,0,27.12,49l.35.16a3.43,3.43,0,0,1,1.33,4.64l-1.42,2.56a2.44,2.44,0,1,0,4.26,2.37l2.84-5.12a3.4,3.4,0,0,1,6.37,1.9.48.48,0,0,1-.52.44.49.49,0,0,1-.45-.53,2.39,2.39,0,0,0-1.23-2.29,2.45,2.45,0,0,0-3.32,1L32.5,59.23a3.42,3.42,0,0,1-6-3.31l1.42-2.56A2.44,2.44,0,0,0,27,50a2.31,2.31,0,0,0-.68-.24A18.54,18.54,0,0,0,23.11,54a19,19,0,1,0,35.6,7.71Z"/><path class="cls-1" d="M36.68,68.8a6.34,6.34,0,1,1,8.62-2.48A6.36,6.36,0,0,1,36.68,68.8Zm5.67-10.24a5.36,5.36,0,1,0,2.09,7.29A5.36,5.36,0,0,0,42.35,58.56Z"/><path class="cls-1" d="M25.3,69.19a2.44,2.44,0,1,1,3.32-1A2.45,2.45,0,0,1,25.3,69.19Zm1.9-3.42a1.46,1.46,0,1,0,.57,2A1.47,1.47,0,0,0,27.2,65.77Z"/><path class="cls-1" d="M36,74A2.44,2.44,0,1,1,32.7,75,2.44,2.44,0,0,1,36,74Zm-1.89,3.41a1.46,1.46,0,0,0,1.41-2.56,1.46,1.46,0,1,0-1.41,2.56Z"/><path class="cls-1" d="M43.32,76.94a2.44,2.44,0,1,1,3.31-1A2.43,2.43,0,0,1,43.32,76.94Zm1.89-3.41a1.46,1.46,0,1,0,.57,2A1.46,1.46,0,0,0,45.21,73.53Z"/><path class="cls-1" d="M37.88,70.83a.47.47,0,0,1,.65.21l1.62,3.12a.49.49,0,0,1-.87.45l-1.61-3.13A.47.47,0,0,1,37.88,70.83Z"/><path class="cls-1" d="M23.64,61.41l-.76-2.65a.5.5,0,0,1,.34-.61.49.49,0,0,1,.6.34l.76,2.65a.47.47,0,0,1-.33.6A.49.49,0,0,1,23.64,61.41Z"/><path class="cls-1" d="M103,84.17A19.9,19.9,0,0,0,92.7,72.88a.5.5,0,0,0-.65.24L83.81,90.81a.48.48,0,0,0,.61.66l18.33-6.67A.49.49,0,0,0,103,84.17Zm-17.85,6L92.73,74A18.89,18.89,0,0,1,102,84.05Z"/><path class="cls-1" d="M78,94.16a.49.49,0,0,0-.9,0l-2.33,5a.49.49,0,0,0,.61.67L79,98.45a.49.49,0,0,0,.29-.62Zm-1.85,4.31,1.34-2.87.76,2.1Z"/><path class="cls-1" d="M88.21,100.92l3.46-1.81a.48.48,0,0,0-.08-.89l-5.27-1.65a.49.49,0,0,0-.58.69l1.81,3.46A.49.49,0,0,0,88.21,100.92Zm2-2.13-2,1-1-2Z"/><path class="cls-1" d="M85.15,84.17l-.3-3.89a.49.49,0,0,0-.53-.45l-3.89.3a.49.49,0,0,0-.28.86l4.2,3.58A.48.48,0,0,0,85.15,84.17ZM81.68,81l2.23-.17.18,2.23Z"/><path class="cls-1" d="M92.31,78.21a15.12,15.12,0,0,1,5.4,5.9.5.5,0,0,0,.66.21.49.49,0,0,0,.21-.66,16.06,16.06,0,0,0-5.76-6.28.49.49,0,1,0-.51.83Z"/><path class="cls-1" d="M75.8,109.14a20,20,0,0,0,27.85-23,.5.5,0,0,0-.6-.36.49.49,0,0,0-.35.6A19,19,0,1,1,90.52,73.05a.49.49,0,0,0,.63-.3.51.51,0,0,0-.3-.62,20,20,0,0,0-15,37Z"/><path class="cls-1" d="M72.73,92.64a2.44,2.44,0,1,0-1.18-3.25A2.46,2.46,0,0,0,72.73,92.64Zm1.65-3.54a1.46,1.46,0,1,1-1.95.71A1.46,1.46,0,0,1,74.38,89.1Z"/><path class="cls-1" d="M90.88,86a2.44,2.44,0,1,0-1.18-3.24A2.44,2.44,0,0,0,90.88,86Zm1.65-3.54a1.46,1.46,0,1,1-2,.71A1.46,1.46,0,0,1,92.53,82.49Z"/><path class="cls-1" d="M78,85.88a.49.49,0,0,0,.29-.62l-1.51-4.15a.49.49,0,0,0-.63-.29.49.49,0,0,0-.29.62l1.51,4.15A.48.48,0,0,0,78,85.88Z"/><path class="cls-1" d="M96.17,94.25a.49.49,0,0,0-.43-.54L89.61,93a.49.49,0,1,0-.11,1l6.13.71A.49.49,0,0,0,96.17,94.25Z"/><path class="cls-1" d="M70.54,84.62a15.13,15.13,0,0,1,18.34-8,.49.49,0,0,0,.61-.31.5.5,0,0,0-.31-.62,16.1,16.1,0,1,0,9.66,22.13,15.94,15.94,0,0,0,1.1-10.36.49.49,0,1,0-1,.22,14.91,14.91,0,0,1-1,9.73A15.12,15.12,0,1,1,70.54,84.62Z"/><path class="cls-1" d="M82.71,98.42a.49.49,0,0,0-.48.5l.12,4.37a.5.5,0,0,0,.5.47.48.48,0,0,0,.47-.5l-.11-4.36A.5.5,0,0,0,82.71,98.42Z"/><path class="cls-1" d="M207.14,129.53l2.09,3.61a.49.49,0,0,0,.66.18.48.48,0,0,0,.18-.67l-2.08-3.6a.48.48,0,0,0-.67-.18A.49.49,0,0,0,207.14,129.53Z"/><path class="cls-1" d="M183.18,91a2.48,2.48,0,0,0-.89,3.32l2.93,5.08a.49.49,0,0,0,.67.17l6.76-3.9a2.42,2.42,0,0,0,.89-3.32l-2.93-5.08a.5.5,0,0,0-.67-.18Zm9.52,1.84a1.45,1.45,0,0,1-.53,2l-6.35,3.67-2.69-4.66a1.46,1.46,0,0,1,.54-2L190,88.15Z"/><path class="cls-1" d="M186.37,100.39a.49.49,0,0,0-.17.67.48.48,0,0,0,.66.17l8.45-4.87a.48.48,0,0,0,.18-.67.5.5,0,0,0-.67-.18Z"/><path class="cls-1" d="M189,101.11a2.49,2.49,0,0,0-.89,3.32l2.93,5.07a.48.48,0,0,0,.67.18l6.77-3.9a2.43,2.43,0,0,0,.89-3.32l-2.94-5.08a.49.49,0,0,0-.66-.18Zm9.52,1.84a1.44,1.44,0,0,1-.53,2l-6.35,3.66L189,103.94a1.46,1.46,0,0,1,.53-2l6.34-3.66Z"/><path class="cls-1" d="M192.23,110.53a.47.47,0,0,0-.18.66.48.48,0,0,0,.67.18l8.45-4.87a.49.49,0,0,0-.49-.85Z"/><path class="cls-1" d="M194.89,111.25a2.48,2.48,0,0,0-.89,3.32l2.93,5.07a.47.47,0,0,0,.66.18l6.77-3.9a2.42,2.42,0,0,0,.89-3.32l-2.93-5.08a.5.5,0,0,0-.67-.18Zm9.52,1.83a1.46,1.46,0,0,1-.54,2l-6.34,3.66-2.69-4.65a1.46,1.46,0,0,1,.53-2l6.35-3.66Z"/><path class="cls-1" d="M198.08,120.67a.49.49,0,1,0,.49.84l8.45-4.87a.49.49,0,1,0-.49-.85Z"/><path class="cls-1" d="M200.74,121.39a2.49,2.49,0,0,0-.89,3.32l2.93,5.07a.48.48,0,0,0,.67.18l6.77-3.91a2.41,2.41,0,0,0,.88-3.31l-2.93-5.08a.47.47,0,0,0-.66-.18Zm9.52,1.83a1.46,1.46,0,0,1-.53,2l-6.35,3.66-2.68-4.65a1.45,1.45,0,0,1,.53-2l6.34-3.66Z"/><path class="cls-1" d="M181.63,85.35l2.09,3.6a.47.47,0,0,0,.66.18.49.49,0,0,0,.18-.66l-2.08-3.61a.5.5,0,0,0-.67-.18A.5.5,0,0,0,181.63,85.35Z"/><path class="cls-1" d="M63.62,247.23A4.4,4.4,0,0,0,64,250h1a3.32,3.32,0,0,1-.47-2.56,3.39,3.39,0,0,1,4-2.62L92.92,250H97.6l-28.78-6.13A4.5,4.5,0,0,0,63.62,247.23Z"/><path class="cls-1" d="M77.15,249.24l-2.32.62a1.47,1.47,0,0,1-1.28-.27l-1.88-1.52a2.44,2.44,0,0,0-2.15-.45l-2.32.62a1.44,1.44,0,0,1-1-.09.49.49,0,0,0-.65.24.49.49,0,0,0,.24.65,2.44,2.44,0,0,0,1.62.14l2.32-.62a1.52,1.52,0,0,1,1.29.27L72.5,250h7.18l-.38-.3A2.48,2.48,0,0,0,77.15,249.24Z"/><path class="cls-1" d="M107.65,247.43l-32.52-6.92a6.42,6.42,0,0,0-5.83,1.67.45.45,0,0,0-.11.65.5.5,0,0,0,.7.12h0a5.53,5.53,0,0,1,5-1.48l32.51,6.93a5.56,5.56,0,0,1,2.87,1.61h1.26A6.52,6.52,0,0,0,107.65,247.43Z"/><path class="cls-1" d="M67,2.43l43.17,9.2a4.5,4.5,0,0,0,5.2-3.37A4.51,4.51,0,0,0,112,3.07L97.6,0H92.92l18.87,4a3.4,3.4,0,1,1-1.41,6.65L67.21,1.47A3.48,3.48,0,0,1,65.05,0H64A4.46,4.46,0,0,0,67,2.43Z"/><path class="cls-1" d="M75.08.81,77.4.19a1.48,1.48,0,0,1,1.29.27L80.57,2a2.43,2.43,0,0,0,2.14.45L85,1.81a1.5,1.5,0,0,1,1.28.27L88.2,3.6a2.48,2.48,0,0,0,2.15.46l2.32-.62A1.5,1.5,0,0,1,94,3.71l1.87,1.52A2.44,2.44,0,0,0,98,5.68l2.32-.62a1.5,1.5,0,0,1,1.29.28l1.87,1.51a2.48,2.48,0,0,0,2.15.46l2.32-.62a1.49,1.49,0,0,1,1.29.27l1.87,1.52a2.52,2.52,0,0,0,1.54.53.49.49,0,0,0,.48-.5.48.48,0,0,0-.49-.48,1.46,1.46,0,0,1-.92-.31L109.83,6.2a2.44,2.44,0,0,0-2.15-.45l-2.32.62a1.5,1.5,0,0,1-1.29-.28L102.2,4.58a2.48,2.48,0,0,0-2.15-.46l-2.32.62a1.52,1.52,0,0,1-1.29-.27L94.57,3a2.48,2.48,0,0,0-2.15-.46l-2.32.62a1.49,1.49,0,0,1-1.29-.27L86.93,1.32A2.46,2.46,0,0,0,84.79.87l-2.33.62a1.51,1.51,0,0,1-1.28-.27L79.68,0H72.5l.43.35A2.48,2.48,0,0,0,75.08.81Z"/><path class="cls-1" d="M109.76,12.73a.53.53,0,0,0-.71-.11,5.47,5.47,0,0,1-5,1.42L71.58,7.11a5.56,5.56,0,0,1-4-3.39v0a.51.51,0,0,0-.69-.18.46.46,0,0,0-.16.64,6.44,6.44,0,0,0,4.65,3.91L103.89,15a6.37,6.37,0,0,0,5.78-1.62A.44.44,0,0,0,109.76,12.73Z"/><path class="cls-1" d="M112.09,1.89a.43.43,0,0,0,.17-.62A6,6,0,0,0,111.57,0h-1.26a5.66,5.66,0,0,1,1.08,1.7A.52.52,0,0,0,112.09,1.89Z"/><path class="cls-1" d="M12.88,70.4a1.48,1.48,0,0,0-1.53-.86L0,70.85v1l11.46-1.32a.52.52,0,0,1,.54.3.53.53,0,0,1-.12.61L7.74,75.33a4.31,4.31,0,0,0-2.11-1.65A4.39,4.39,0,0,0,0,76.31v3a4.4,4.4,0,0,0,1.46,2L0,82.66V84L12.55,72.12A1.49,1.49,0,0,0,12.88,70.4ZM2.18,80.6a3.41,3.41,0,0,1,3.12-6A3.28,3.28,0,0,1,7,76Z"/><path class="cls-1" d="M74.56,214.89h0a1.48,1.48,0,0,1,.17-1.62l25.7-32.39a1.5,1.5,0,0,1,2.68,1L102,223.18a1.54,1.54,0,0,1-.91,1.36A20.67,20.67,0,0,1,74.56,214.89ZM102,188.51a3.41,3.41,0,1,0-.18,6.67Zm-.82,30.06.61-22.4a4.38,4.38,0,1,1,.24-8.65l.15-5.69a.53.53,0,0,0-.94-.34L78.35,210.27a14.67,14.67,0,0,0,.84,2.26A14.94,14.94,0,0,0,99,219.76,15.38,15.38,0,0,0,101.13,218.57Zm-.13,4.59.1-3.41a17.31,17.31,0,0,1-1.65.89,15.93,15.93,0,0,1-21.15-7.7,15,15,0,0,1-.69-1.74l-2.12,2.67a.58.58,0,0,0-.07.57h0a19.67,19.67,0,0,0,25.25,9.19A.54.54,0,0,0,101,223.16Z"/><path class="cls-1" d="M82.43,213.31a4.39,4.39,0,1,1,5.84,2.13A4.39,4.39,0,0,1,82.43,213.31Zm7.08-3.3a3.42,3.42,0,1,0-1.65,4.54A3.43,3.43,0,0,0,89.51,210Z"/><path class="cls-1" d="M91.87,203.53a3.41,3.41,0,1,1,4.53,1.65A3.42,3.42,0,0,1,91.87,203.53Zm5.3-2.47A2.44,2.44,0,1,0,96,204.3,2.44,2.44,0,0,0,97.17,201.06Z"/><path class="cls-1" d="M95.75,213a2.44,2.44,0,1,1-1.18,3.24A2.44,2.44,0,0,1,95.75,213Zm1.65,3.54a1.47,1.47,0,0,0,.71-1.95,1.46,1.46,0,1,0-.71,1.95Z"/><path class="cls-1" d="M250,79.29v-3A4.36,4.36,0,0,0,250,79.29Z"/><path class="cls-1" d="M235.19,96.68a14.8,14.8,0,0,1-2.32-.64A14.9,14.9,0,0,1,225,74.71L250,71.83v-1l-29.73,3.42a1.52,1.52,0,0,0-1.27,1h0a20.66,20.66,0,0,0,11.93,25.57,1.52,1.52,0,0,0,1.6-.31L250,84V82.66Zm-3.33,3.16a.57.57,0,0,1-.57.12A19.69,19.69,0,0,1,219.93,75.6h0a.52.52,0,0,1,.44-.35l3.39-.39a14.84,14.84,0,0,0-.74,1.72A15.92,15.92,0,0,0,232.54,97a15.23,15.23,0,0,0,1.79.54Z"/><path class="cls-1" d="M225.69,79.75a4.39,4.39,0,1,1,2.62,5.63A4.39,4.39,0,0,1,225.69,79.75ZM233,82.42a3.42,3.42,0,1,0-4.37,2A3.42,3.42,0,0,0,233,82.42Z"/><path class="cls-1" d="M239.27,79.5a3.42,3.42,0,1,1,2,4.38A3.43,3.43,0,0,1,239.27,79.5Zm5.5,2A2.44,2.44,0,1,0,241.65,83,2.44,2.44,0,0,0,244.77,81.51Z"/><path class="cls-1" d="M235.31,89a2.44,2.44,0,1,1-3.12,1.46A2.44,2.44,0,0,1,235.31,89ZM234,92.63a1.46,1.46,0,1,0-.88-1.88A1.47,1.47,0,0,0,234,92.63Z"/></svg>