<svg id="artwork" xmlns="http://www.w3.org/2000/svg" width="250" height="250" viewBox="0 0 250 250"><defs><style>.cls-1{fill:#a1cc2b;}</style></defs><title>pattern-green</title><path class="cls-1" d="M0,54.24l0-.11v.51A.48.48,0,0,0,0,54.24Z"/><path class="cls-1" d="M.31,50.53,4.46,49.1l1,2.77L1.26,53.3a.49.49,0,1,0,.32.92l4.61-1.59A.49.49,0,0,0,6.5,52L5.23,48.32c-.63-1.83-1.36-4.71-2.07-7.5s-1.45-5.71-2.09-7.58C.8,32.46.42,31.52,0,30.5v2.66l.14.4c.63,1.83,1.36,4.71,2.07,7.5.66,2.59,1.33,5.25,1.94,7.11L0,49.61v.93A.48.48,0,0,0,.31,50.53Z"/><path class="cls-1" d="M222.1,41.29a6.93,6.93,0,0,0,2.57-2.39A13.15,13.15,0,0,1,230.76,34a5.72,5.72,0,0,1,7.15,3.08,7,7,0,0,1,.24,5.42,3.84,3.84,0,0,1-2.31,2.13c-2.83,1-5.55-.21-8-1.27a5.21,5.21,0,0,1-3.7,3.87,3.09,3.09,0,0,1-4-1.81A3,3,0,0,1,222.1,41.29Zm13.41,2.48a2.92,2.92,0,0,0,1.74-1.6,6.09,6.09,0,0,0-.24-4.65A4.74,4.74,0,0,0,231.08,35c-2.78,1-4.3,2.86-5.65,4.53a20,20,0,0,1-1.36,1.59C227,41.3,231.64,45.19,235.52,43.76Zm-14.39,1.32a2.11,2.11,0,0,0,2.74,1.27A4.26,4.26,0,0,0,227,43c-1.7-.73-3.23-1.25-4.55-.8A2,2,0,0,0,221.12,45.08Z"/><path class="cls-1" d="M246.7,43c-.71-2.81-1.45-5.71-2.09-7.58s-1.85-4.61-3-7.26-2.36-5.36-3-7.18l-1.27-3.69a.49.49,0,0,0-.62-.3l-28.6,9.85a.49.49,0,0,0-.3.62l1.27,3.69c.63,1.83,1.36,4.71,2.07,7.5s1.45,5.71,2.09,7.58,1.85,4.61,3,7.26,2.36,5.36,3,7.18l1.27,3.69a.49.49,0,0,0,.62.3l28.6-9.85a.48.48,0,0,0,.26-.22v-.51l-1.23-3.58C248.14,48.72,247.41,45.84,246.7,43Zm-37.8-15.4,27.67-9.53,1,2.77-27.67,9.53Zm8.26,25.49c-1.16-2.63-2.36-5.36-3-7.18s-1.36-4.71-2.07-7.5c-.66-2.59-1.33-5.25-1.94-7.11l27.68-9.53c.67,1.84,1.78,4.36,2.85,6.8,1.16,2.63,2.36,5.36,3,7.18s1.36,4.71,2.07,7.5c.66,2.59,1.33,5.25,1.94,7.11L220,59.93C219.34,58.1,218.23,55.58,217.15,53.14Zm4.13,10.49-1-2.77L248,51.33l1,2.77Z"/><path class="cls-1" d="M245.06,18.81l-1.27-3.69a.49.49,0,0,0-.62-.3l-4.61,1.59a.49.49,0,1,0,.32.92L243,15.9l1,2.77-4.15,1.43a.49.49,0,0,0,.32.92l4.16-1.43c.67,1.84,1.78,4.36,2.85,6.8s2.19,5,2.84,6.78V30.5c-.59-1.41-1.28-3-2-4.51C246.89,23.35,245.69,20.63,245.06,18.81Z"/><path class="cls-1" d="M250,49.61a.49.49,0,0,0,0,.92v-.93Z"/><path class="cls-1" d="M217.46,36l18.46-6.36a3.41,3.41,0,0,1,4.33,2.11L243.43,41a3.41,3.41,0,0,1-2.11,4.33l-18.46,6.36a3.41,3.41,0,0,1-4.33-2.11l-3.18-9.24A3.41,3.41,0,0,1,217.46,36Zm2,13.25a2.43,2.43,0,0,0,3.09,1.51L241,44.45a2.43,2.43,0,0,0,1.51-3.09l-3.18-9.24a2.43,2.43,0,0,0-3.09-1.51L217.77,37a2.43,2.43,0,0,0-1.51,3.09Z"/><path class="cls-1" d="M203,11.43l.65-.72a1.47,1.47,0,0,0-.11-2.07L194,0H192.5l10.4,9.37a.49.49,0,0,1,0,.69l-.65.72a3.42,3.42,0,0,1-4.83.25L185.21,0h-1.46l13.06,11.76A4.4,4.4,0,0,0,203,11.43Z"/><path class="cls-1" d="M207.73,9.12,209,7.67a1.46,1.46,0,0,0-.11-2.07L202.7,0h-1.46l7,6.33a.49.49,0,0,1,0,.69L207,8.46a.49.49,0,0,1-.69,0L196.87,0h-1.46l10.25,9.23A1.47,1.47,0,0,0,207.73,9.12Z"/><path class="cls-1" d="M213.6,2.59l1.31-1.45A1.45,1.45,0,0,0,215.27,0h-1a.49.49,0,0,1-.09.49l-1.31,1.45a.49.49,0,0,1-.69,0L210,0h-1.46l3,2.7A1.46,1.46,0,0,0,213.6,2.59Z"/><path class="cls-1" d="M206.24,1.28l.43.14a3.56,3.56,0,0,1,2.28,2l.2.44a4.49,4.49,0,0,0,1.14,1.62A.49.49,0,0,0,211,4.8a3.55,3.55,0,0,1-.9-1.28l-.2-.44A4.51,4.51,0,0,0,207,.49l-.43-.14a3.56,3.56,0,0,1-.8-.35H204.2A4.53,4.53,0,0,0,206.24,1.28Z"/><path class="cls-1" d="M176.84,236.56l-.65.72a4.4,4.4,0,0,0,.33,6.21l7.23,6.51h1.46l-8-7.24a3.42,3.42,0,0,1-.25-4.83l.65-.72a.49.49,0,0,1,.69,0L192.5,250H194l-15-13.55A1.47,1.47,0,0,0,176.84,236.56Z"/><path class="cls-1" d="M179.3,230.9,178,232.35a1.46,1.46,0,0,0,.11,2.07L195.41,250h1.46l-18.11-16.31a.49.49,0,0,1,0-.69l1.31-1.45a.49.49,0,0,1,.69,0L201.24,250h1.46l-21.33-19.21A1.47,1.47,0,0,0,179.3,230.9Z"/><path class="cls-1" d="M187.25,224.27a1.46,1.46,0,0,0-2.07.11l-1.31,1.45a1.46,1.46,0,0,0,.11,2.07L208.53,250H210l-25.36-22.83a.49.49,0,0,1,0-.69l1.31-1.45a.49.49,0,0,1,.69,0l27.55,24.81a.48.48,0,0,1,.13.2h1a1.45,1.45,0,0,0-.47-.92Z"/><path class="cls-1" d="M204.25,248.3l-.2-.44a4.51,4.51,0,0,0-2.89-2.59l-.43-.14a3.56,3.56,0,0,1-2.28-2l-.2-.44a4.51,4.51,0,0,0-2.89-2.59l-.43-.14a3.56,3.56,0,0,1-2.28-2l-.2-.44a4.51,4.51,0,0,0-2.89-2.59l-.43-.14a3.56,3.56,0,0,1-2.28-2l-.2-.44a4.51,4.51,0,0,0-2.89-2.59l-.43-.14a3.58,3.58,0,0,1-1.38-.77.49.49,0,1,0-.65.73,4.52,4.52,0,0,0,1.74,1l.43.14a3.56,3.56,0,0,1,2.28,2l.2.44a4.51,4.51,0,0,0,2.89,2.59l.43.14a3.56,3.56,0,0,1,2.28,2l.2.44a4.51,4.51,0,0,0,2.89,2.59l.43.14a3.56,3.56,0,0,1,2.28,2l.2.44a4.51,4.51,0,0,0,2.89,2.59l.43.14a3.56,3.56,0,0,1,2.28,2l.2.44a4.39,4.39,0,0,0,.84,1.31h1.54A3.54,3.54,0,0,1,204.25,248.3Z"/><path class="cls-1" d="M187.83,222.17a3.58,3.58,0,0,0,1.38.77l.43.14a4.51,4.51,0,0,1,2.89,2.59l.2.44a3.56,3.56,0,0,0,2.28,2l.43.14a4.51,4.51,0,0,1,2.89,2.59l.2.44a3.56,3.56,0,0,0,2.28,2l.43.14a4.51,4.51,0,0,1,2.89,2.59l.2.44a3.56,3.56,0,0,0,2.28,2l.43.14a4.51,4.51,0,0,1,2.89,2.59l.2.44a3.56,3.56,0,0,0,2.28,2l.43.14a4.51,4.51,0,0,1,2.89,2.59l.2.44a3.55,3.55,0,0,0,.9,1.28.49.49,0,0,1-.65.72,4.49,4.49,0,0,1-1.14-1.62l-.2-.44a3.56,3.56,0,0,0-2.28-2l-.43-.14a4.51,4.51,0,0,1-2.89-2.59l-.2-.44a3.56,3.56,0,0,0-2.28-2l-.43-.14a4.51,4.51,0,0,1-2.89-2.59l-.2-.44a3.56,3.56,0,0,0-2.28-2l-.43-.14a4.51,4.51,0,0,1-2.89-2.59l-.2-.44a3.56,3.56,0,0,0-2.28-2l-.43-.14a4.51,4.51,0,0,1-2.89-2.59l-.2-.44a3.56,3.56,0,0,0-2.28-2l-.43-.14a4.52,4.52,0,0,1-1.74-1,.49.49,0,1,1,.65-.72Z"/><path class="cls-1" d="M213.43,222.9c8.2,7.38,11.79,16.8,8,21l-2,2.18a1.46,1.46,0,0,1-2.05.11l-27.56-24.82a1.46,1.46,0,0,1-.11-2.05l2-2.18C195.49,212.93,205.23,215.52,213.43,222.9Zm-23-2.94a.48.48,0,0,0,0,.68l27.56,24.82a.48.48,0,0,0,.68,0l2-2.18c3.42-3.8-.14-12.6-7.94-19.62s-16.92-9.64-20.34-5.84Z"/><path class="cls-1" d="M99.33,42.06a.51.51,0,0,1,.27-.26l1.2-.46-5.64-9.77a.49.49,0,1,1,.85-.49l5.72,9.9,1.63-.62L98.78,30.13a.49.49,0,0,1,.25-.65h0a.49.49,0,0,1,.62.26L104.26,40l17.2-6.6a.51.51,0,0,1,.37,0l10.08,4.49a.49.49,0,0,1-.4.89l-9.11-4.06,7.66,25.18a.49.49,0,0,1-.29.6l-18.22,7a.49.49,0,0,1-.62-.25L99.78,43.44l-4.06,9.11a.49.49,0,1,1-.89-.4Zm1.29.4L107,49.4,121,44l.13-9.46Zm11,24L129,59.78,122.08,37l-.1,7.38a.49.49,0,0,1-.31.45l-14.57,5.59a.49.49,0,0,1-.53-.12l-5-5.41Z"/><path class="cls-1" d="M110,50.35a.47.47,0,0,1,.65.24l4,8.44,7.2-2.77-2.71-8.93a.47.47,0,0,1,.32-.61.49.49,0,0,1,.61.32l2.84,9.36a.49.49,0,0,1-.29.6l-8.05,3.09a.49.49,0,0,1-.62-.25L109.78,51A.49.49,0,0,1,110,50.35Z"/><path class="cls-1" d="M147.18,157.34a40.26,40.26,0,0,0-7.72-8.89,11.77,11.77,0,0,1-1.68-1.77,12.07,12.07,0,0,1,.94-15.65,11.89,11.89,0,0,1,7.43-3.52c5.22-.46,9-1.4,12.27-3a12,12,0,0,1,8.79-.76,11.91,11.91,0,0,1,8.35,9.61,12.05,12.05,0,0,1-2,8.6c-2.08,3-3.54,6.62-4.72,11.73a12,12,0,0,1-4.52,6.87,11.93,11.93,0,0,1-17.15-3.17Zm16.57,2.38a11,11,0,0,0,4.15-6.31c1.21-5.23,2.71-8.93,4.87-12.06a11.05,11.05,0,0,0,1.82-7.91,10.92,10.92,0,0,0-7.66-8.81,11.07,11.07,0,0,0-8.08.7c-3.38,1.7-7.27,2.67-12.62,3.15a11,11,0,0,0-6.82,3.23,11,11,0,0,0,.69,16,41.23,41.23,0,0,1,7.91,9.1,11,11,0,0,0,15.74,2.91Z"/><path class="cls-1" d="M146.85,142.05A10.25,10.25,0,1,1,156.36,153,10.26,10.26,0,0,1,146.85,142.05Zm19.47,1.36a9.27,9.27,0,1,0-9.89,8.6A9.28,9.28,0,0,0,166.32,143.41Z"/><path class="cls-1" d="M160.59,149.19a7.31,7.31,0,0,0,3.78-5.91.49.49,0,1,1,1,.07,8.27,8.27,0,0,1-4.29,6.7.49.49,0,0,1-.66-.19A.49.49,0,0,1,160.59,149.19Z"/><path class="cls-1" d="M159.49,150.21a.49.49,0,0,1-.35.59,8.25,8.25,0,0,1-2.64.24.49.49,0,0,1-.45-.52h0a.49.49,0,0,1,.52-.45,7.27,7.27,0,0,0,2.33-.21A.49.49,0,0,1,159.49,150.21Z"/><path class="cls-1" d="M141.76,13.81,154.19,0h-1.31L141.36,12.79l-5.73-5.16a3.39,3.39,0,0,0,.84-.15A3.32,3.32,0,0,0,138.72,5l1.16-5h-1l-1.11,4.82A2.38,2.38,0,0,1,133.87,6l-4.56-4.12L131,0h-1.31l-1.15,1.28L127.16,0h-1.47l15.37,13.84A.49.49,0,0,0,141.76,13.81Z"/><path class="cls-1" d="M155.73,248.07a.48.48,0,0,0-.16-.34l-20.51-18.46-5.13-4.62a.49.49,0,0,0-.69,0L115.4,240.07a.49.49,0,0,0,0,.69L125.69,250h1.47l-.46-.41,4-4.4,1.87,1.69L129.73,250H131l10.52-11.68L138.88,250h1l2.87-12.49,11.8,10.63L152.87,250h1.31l1.42-1.57A.48.48,0,0,0,155.73,248.07Zm-16.56-13.79-4,4.4-4.39-4,4-4.4Zm-9.52-8.57,4.4,4-4,4.4-4.4-4ZM125,230.84l4.4,4-4,4.4-4.4-4Zm-8.58,9.53,4-4.4,4.4,4-4,4.4Zm9.52,8.57-4.39-4,4-4.4,4.39,4Zm4.62-5.13-4.39-4,4-4.4,4.39,4Zm2.61,2.34-1.87-1.69,4-4.4,1.87,1.69Zm4.62-5.13-1.87-1.69,4-4.4,1.87,1.69Z"/><path class="cls-1" d="M129.72,92.7a10.89,10.89,0,0,0,2.91.95l2.39-.21a1.51,1.51,0,0,1,1.22.49l1.58,1.82a2.46,2.46,0,0,0,2,.82l2.39-.21a1.5,1.5,0,0,1,1.22.49l1.58,1.82a2.46,2.46,0,0,0,2,.82l2.39-.21a1.5,1.5,0,0,1,1.22.49l1.57,1.81a10.89,10.89,0,0,0,2.75,1.34A6.34,6.34,0,1,0,159.25,91a14.19,14.19,0,0,0-4.56-10.37.49.49,0,1,0-.66.72,13.21,13.21,0,0,1,4.25,10,.5.5,0,0,0,.4.49A5.35,5.35,0,1,1,155.41,102,13.65,13.65,0,0,1,153,101l-1.58-1.82a2.47,2.47,0,0,0-2-.82l-2.39.21a1.51,1.51,0,0,1-1.22-.49l-1.58-1.82a2.47,2.47,0,0,0-2-.82l-2.4.21a1.5,1.5,0,0,1-1.22-.49L137,93.29a2.48,2.48,0,0,0-2-.82l-2.4.21a13.64,13.64,0,0,1-2.46-.88,5.35,5.35,0,1,1,4.71-9.58.5.5,0,0,0,.63-.08,13.21,13.21,0,0,1,10-4.27.49.49,0,1,0,0-1A14.19,14.19,0,0,0,135,81.19a6.34,6.34,0,1,0-5.26,11.51Z"/><path class="cls-1" d="M131.46,94.87a.49.49,0,0,0-1-.18l-1.79,9.8a.49.49,0,0,0,.3.54l18,7.27a.49.49,0,0,0,.59-.18l5.52-8.29a.49.49,0,0,0-.14-.68.48.48,0,0,0-.68.14l-5.3,8-17.25-7Z"/><path class="cls-1" d="M146.14,107.34l3-4.28a.49.49,0,1,0-.8-.55l-3,4.28a.49.49,0,1,0,.8.55Z"/><path class="cls-1" d="M133.46,102.62a.49.49,0,0,0,.56-.4l.85-5.13a.49.49,0,0,0-1-.16l-.85,5.13A.49.49,0,0,0,133.46,102.62Z"/><path class="cls-1" d="M149,81.53a3.41,3.41,0,0,0,3-6.09,3.2,3.2,0,0,1,4.24-1.49.49.49,0,1,0,.37-.9,4.17,4.17,0,0,0-5.52,2A3.41,3.41,0,0,0,149,81.53Zm2.19-5.43A2.44,2.44,0,1,1,148,77.45,2.44,2.44,0,0,1,151.15,76.11Z"/><path class="cls-1" d="M140.09,104.78,142,100a.49.49,0,0,0-.9-.37l-1.92,4.74a.49.49,0,0,0,.9.37Z"/><path class="cls-1" d="M31.15,224.09a10.89,10.89,0,0,0,2.73-1.39l1.55-1.84a1.51,1.51,0,0,1,1.21-.52l2.41.17a2.46,2.46,0,0,0,2-.86l1.55-1.84a1.5,1.5,0,0,1,1.21-.52l2.41.17a2.46,2.46,0,0,0,2-.86l1.55-1.84a1.5,1.5,0,0,1,1.21-.52l2.4.17a10.89,10.89,0,0,0,2.89-1A6.34,6.34,0,1,0,50.83,202a14.19,14.19,0,0,0-10.56-4.11.49.49,0,1,0,0,1A13.21,13.21,0,0,1,50.41,203,.5.5,0,0,0,51,203a5.35,5.35,0,1,1,4.88,9.49,13.64,13.64,0,0,1-2.45.92l-2.4-.17a2.47,2.47,0,0,0-2,.86L47.51,216a1.51,1.51,0,0,1-1.21.52l-2.41-.17a2.47,2.47,0,0,0-2,.86L40.32,219a1.5,1.5,0,0,1-1.21.52l-2.41-.17a2.48,2.48,0,0,0-2,.86l-1.55,1.84a13.64,13.64,0,0,1-2.36,1.12,5.35,5.35,0,1,1-3.44-10.1.5.5,0,0,0,.39-.5,13.21,13.21,0,0,1,4.07-10.11.49.49,0,1,0-.67-.71,14.19,14.19,0,0,0-4.38,10.45,6.34,6.34,0,1,0,4.42,11.86Z"/><path class="cls-1" d="M33.92,224.4a.49.49,0,0,0-.8.55l5.66,8.2a.49.49,0,0,0,.59.17l17.86-7.58a.49.49,0,0,0,.29-.55l-2-9.77A.49.49,0,0,0,55,215a.48.48,0,0,0-.38.57L56.48,225l-17.12,7.27Z"/><path class="cls-1" d="M53.12,222.83l-.94-5.11a.49.49,0,1,0-1,.18l.94,5.11a.49.49,0,1,0,1-.18Z"/><path class="cls-1" d="M40.82,228.45a.49.49,0,0,0,.11-.68l-3-4.23a.49.49,0,0,0-.79.57l3,4.23A.49.49,0,0,0,40.82,228.45Z"/><path class="cls-1" d="M36.86,202.59a3.41,3.41,0,0,0-2.17-6.45,3.2,3.2,0,0,1,1.95-4.05.49.49,0,1,0-.38-.9,4.17,4.17,0,0,0-2.48,5.33,3.41,3.41,0,0,0,3.08,6.08Zm-2.29-5.39a2.44,2.44,0,1,1-1.29,3.2A2.44,2.44,0,0,1,34.58,197.2Z"/><path class="cls-1" d="M47,225.3l-2-4.71a.49.49,0,0,0-.9.38l2,4.71a.49.49,0,0,0,.9-.38Z"/><path class="cls-1" d="M95.21,139.46a.49.49,0,0,1-.43.62.48.48,0,0,1-.51-.34c-1-3.15-.17-8.63,5.93-10.83a.49.49,0,1,1,.33.92C95.07,131.8,94.36,136.67,95.21,139.46Z"/><path class="cls-1" d="M113.57,170.36a.53.53,0,0,0-.72.21,2.44,2.44,0,1,1-3.52-3.27.5.5,0,0,0,.2-.53l-1.14-3.67a1.45,1.45,0,0,1-1.56-.64c-2.09-3.39-9.22-14.73-13.37-17.75a7.29,7.29,0,0,1-2.92-3.83,12.69,12.69,0,0,1,8.34-15.64c3.45-1.24,6.49-1.26,9,0s4.6,3.79,5.88,7.54c2.33,6.76.62,23,0,27.8a1.45,1.45,0,0,1-.78,1.11l1.12,3.69a.49.49,0,0,0,.46.33,2.44,2.44,0,0,1,.94,4.64A2.42,2.42,0,0,1,113.57,170.36Zm-.69-9.93c.41-3.39,2.33-20.64,0-27.37-1.15-3.35-2.9-5.78-5.38-7-2.27-1.09-5.09-1.08-8.28.07a11.73,11.73,0,0,0-7.74,14.44A6.34,6.34,0,0,0,94,143.92c4.19,3,10.93,13.62,13.63,18a.46.46,0,0,0,.54.2l4.33-1.32A.47.47,0,0,0,112.88,160.43ZM116,168.3a1.48,1.48,0,0,0-1.4-1.65,1.47,1.47,0,0,1-1.34-1L112.15,162l-2.81.86,1.13,3.66a1.47,1.47,0,0,1-.54,1.6,1.48,1.48,0,0,0-.25,2.13A1.46,1.46,0,0,0,112,170a1.5,1.5,0,0,1,1.93-.58,1.46,1.46,0,0,0,2-1.16Z"/><path class="cls-1" d="M6.52,164.89a.49.49,0,0,0-.15-.82L0,161.63v1l5.2,2A6.51,6.51,0,0,1,0,165.78v1C3.51,167.59,6.39,165,6.52,164.89Z"/><path class="cls-1" d="M11.44,159.78c2.83-1.28,7.31-6,6.14-10.72a3.63,3.63,0,0,0-2-2.48,6.66,6.66,0,0,0-4.07-.2c.38-.82.72-1.63,1-2.41a.49.49,0,0,0-.28-.63L0,138.64v1l11.43,4.39C8.75,150.79,4.06,157,0,159.21v1.29C1.62,160.81,7.23,161.66,11.44,159.78ZM9,151c.47-.17.94-.37,1.41-.56,1.45-.61,2.93-1.22,3.48-.73a2.58,2.58,0,0,1,.35,2.29,8.82,8.82,0,0,1-4.07,4.84,9.09,9.09,0,0,1-6,.34A34.75,34.75,0,0,0,9,151Zm-7.88,8.69A16.7,16.7,0,0,0,3.35,158a10.57,10.57,0,0,0,7.21-.24,9.83,9.83,0,0,0,4.61-5.49,3.55,3.55,0,0,0-.57-3.19c-1-1-2.76-.28-4.58.48l-.21.08c.4-.7.78-1.4,1.14-2.11a6.56,6.56,0,0,1,4.2,0,2.68,2.68,0,0,1,1.48,1.83c1,4.25-3,8.44-5.59,9.6C7.73,160.37,3.3,160,1.11,159.69Z"/><path class="cls-1" d="M.46,137.25a7.31,7.31,0,0,0,.17-3.3,6.56,6.56,0,0,1,.11-2.86,6.56,6.56,0,0,1,1.83-2.2,7.31,7.31,0,0,0,2.09-2.57.49.49,0,0,0-.91-.35,6.56,6.56,0,0,1-1.83,2.2A8.53,8.53,0,0,0,0,130.36v7.2A.49.49,0,0,0,.46,137.25Z"/><path class="cls-1" d="M5,139a.49.49,0,0,0,.91.35A7.31,7.31,0,0,0,6.1,136a6.56,6.56,0,0,1,.11-2.86A6.56,6.56,0,0,1,8,131a7.31,7.31,0,0,0,2.09-2.57.49.49,0,0,0-.91-.35,6.56,6.56,0,0,1-1.83,2.2,7.31,7.31,0,0,0-2.09,2.57,7.31,7.31,0,0,0-.17,3.3A6.56,6.56,0,0,1,5,139Z"/><path class="cls-1" d="M249.5,165.62l-20-7.69a6.32,6.32,0,0,1-3.6-4.52L250,162.67v-1l-24.61-9.45a.49.49,0,0,0-.66.5c0,.19.5,4.66,4.38,6.15l20,7.69a6.24,6.24,0,0,0,.84.26v-1A5.13,5.13,0,0,1,249.5,165.62Z"/><path class="cls-1" d="M249.46,159.49a.49.49,0,0,0,.1.92l.45.09v-1.29Z"/><path class="cls-1" d="M234.28,133.12c-2.44,6.35-3.76,15.49-1.57,20.66a.49.49,0,1,0,.9-.38c-1.8-4.26-1.2-12.38,1.42-19.47l15,5.75v-1l-15.09-5.79A.49.49,0,0,0,234.28,133.12Z"/><path class="cls-1" d="M234.08,148.16a.48.48,0,0,0,.47-.5,33,33,0,0,1,.74-7.64.48.48,0,0,0-.38-.58.49.49,0,0,0-.58.38,34,34,0,0,0-.76,7.87A.49.49,0,0,0,234.08,148.16Z"/><path class="cls-1" d="M235.74,138.15c.19-.72.4-1.44.64-2.15a.49.49,0,0,0-.93-.3q-.36,1.1-.65,2.21a.49.49,0,1,0,.94.25Z"/><path class="cls-1" d="M244.09,134.8a.49.49,0,0,0,.91.35,7.31,7.31,0,0,0,.17-3.3,6.56,6.56,0,0,1,.11-2.86,6.56,6.56,0,0,1,1.83-2.2,7.31,7.31,0,0,0,2.09-2.57.49.49,0,0,0-.91-.35,6.56,6.56,0,0,1-1.83,2.2,5.33,5.33,0,0,0-2.25,5.87A6.56,6.56,0,0,1,244.09,134.8Z"/><path class="cls-1" d="M249.83,130.73a7.31,7.31,0,0,0-.17,3.3,6.56,6.56,0,0,1-.11,2.86.49.49,0,0,0,.28.63.48.48,0,0,0,.17,0v-7.2A3.61,3.61,0,0,0,249.83,130.73Z"/><path class="cls-1" d="M3.26,217.73A6.24,6.24,0,0,1,0,221v1.05a7.21,7.21,0,0,0,4.16-4,8.59,8.59,0,0,0-4.16-11v1.1A7.61,7.61,0,0,1,3.26,217.73Z"/><path class="cls-1" d="M.58,217a4.4,4.4,0,0,0,0-3.4,4.42,4.42,0,0,0-.6-1v5.4A3.71,3.71,0,0,0,.58,217Z"/><path class="cls-1" d="M8.25,219.88a13.18,13.18,0,0,0-7-17.27A13.26,13.26,0,0,0,0,202.15v1c.3.1.6.21.89.33a12.21,12.21,0,0,1,6.46,16A12.17,12.17,0,0,1,0,226.29v1A13.14,13.14,0,0,0,8.25,219.88Z"/><path class="cls-1" d="M231.69,248.74a2.45,2.45,0,0,0,3.21-1.3L242.72,229a.49.49,0,1,0-.9-.38L234,247.06a1.47,1.47,0,0,1-2.71-1.15l7.82-18.41a.49.49,0,1,0-.9-.38l-7.82,18.41A2.45,2.45,0,0,0,231.69,248.74Z"/><path class="cls-1" d="M245.05,221a5.13,5.13,0,0,1-2.72-6.74,4.28,4.28,0,0,1,5.53-2.23,3.39,3.39,0,0,1,1.84,1.86,3.43,3.43,0,0,1,0,2.66,2.74,2.74,0,0,1-1.51,1.49h0a2.79,2.79,0,0,1-2.15,0,2.26,2.26,0,0,1-1.2-3,.49.49,0,1,0-.9-.38,3.24,3.24,0,0,0,1.71,4.24,3.85,3.85,0,0,0,2.91,0,3.73,3.73,0,0,0,1.46-1.06v-5.4a4.33,4.33,0,0,0-1.76-1.35,5.16,5.16,0,0,0-6.81,2.75,6.11,6.11,0,0,0,3.24,8,7.21,7.21,0,0,0,5.33.12V221A6.24,6.24,0,0,1,245.05,221Z"/><path class="cls-1" d="M241.36,226a12.27,12.27,0,0,1-1.16-.57,11,11,0,0,1-3-12.75,9.18,9.18,0,0,1,12-4.86,7.66,7.66,0,0,1,.76.38v-1.1l-.38-.17a10.15,10.15,0,0,0-13.3,5.37,11.94,11.94,0,0,0,.3,10.11A12.19,12.19,0,0,1,250,203.18v-1a13.17,13.17,0,1,0,0,25.17v-1A12.14,12.14,0,0,1,241.36,226Z"/><path class="cls-1" d="M168.36,61.39a5.93,5.93,0,0,1,1.67.81l1.2.84a2.41,2.41,0,0,0,1.43.44l1.46,0a5.9,5.9,0,0,1,1.84.26l1.4.43a2.41,2.41,0,0,0,1.49,0l1.38-.48a6,6,0,0,1,1.83-.32l1.46,0a2.41,2.41,0,0,0,1.41-.49l1.17-.88a5.9,5.9,0,0,1,1.64-.87l1.38-.48a2.41,2.41,0,0,0,1.19-.9l.84-1.2a5.92,5.92,0,0,1,1.29-1.34l1.17-.88a2.41,2.41,0,0,0,.86-1.22l.43-1.4A5.92,5.92,0,0,1,195.7,52l.84-1.2a2.41,2.41,0,0,0,.44-1.43l0-1.46a5.9,5.9,0,0,1,.26-1.84l.43-1.4a2.41,2.41,0,0,0,0-1.49l-.48-1.38a6,6,0,0,1-.32-1.83l0-1.46a2.41,2.41,0,0,0-.49-1.41l-.88-1.17a5.9,5.9,0,0,1-.87-1.64l-.48-1.38a2.41,2.41,0,0,0-.9-1.19l-1.2-.84a5.93,5.93,0,0,1-1.34-1.29l-.88-1.17a2.41,2.41,0,0,0-1.22-.86l-1.4-.43a5.93,5.93,0,0,1-1.67-.81l-1.2-.84a2.42,2.42,0,0,0-1.43-.43l-1.46,0a5.91,5.91,0,0,1-1.84-.26l-1.4-.43a2.41,2.41,0,0,0-1.49,0l-1.38.48a6,6,0,0,1-1.83.32l-1.46,0a2.42,2.42,0,0,0-1.41.49l-1.17.88a6,6,0,0,1-1.64.87l-1.38.48a2.4,2.4,0,0,0-1.19.9l-.84,1.2a5.89,5.89,0,0,1-1.29,1.33l-1.17.88a2.35,2.35,0,0,0-.53.54,2.38,2.38,0,0,0-.33.68l-.43,1.4a5.89,5.89,0,0,1-.81,1.67l-.84,1.2a2.4,2.4,0,0,0-.44,1.43l0,1.46a6,6,0,0,1-.26,1.84l-.43,1.4a2.4,2.4,0,0,0,0,1.49l.47,1.38a6,6,0,0,1,.32,1.83l0,1.46a2.41,2.41,0,0,0,.49,1.41l.88,1.17a5.93,5.93,0,0,1,.87,1.64l.47,1.38a2.43,2.43,0,0,0,.9,1.19l1.2.84a5.93,5.93,0,0,1,1.34,1.29l.88,1.17A2.41,2.41,0,0,0,167,61Zm-1.84-1.87-.88-1.17a6.9,6.9,0,0,0-1.55-1.5l-1.2-.84a1.45,1.45,0,0,1-.54-.71l-.48-1.38a6.89,6.89,0,0,0-1-1.91L160,50.84a1.43,1.43,0,0,1-.29-.84l0-1.46a6.88,6.88,0,0,0-.38-2.13L158.81,45a1.43,1.43,0,0,1,0-.89l.43-1.4a6.92,6.92,0,0,0,.3-2.14l0-1.46a1.43,1.43,0,0,1,.26-.85l.84-1.2a7,7,0,0,0,.95-1.94l.43-1.4a1.39,1.39,0,0,1,.51-.73l1.17-.88a7,7,0,0,0,1.5-1.55l.84-1.2a1.43,1.43,0,0,1,.71-.54l1.38-.48a7,7,0,0,0,1.91-1l1.17-.88a1.45,1.45,0,0,1,.84-.29l1.46,0a6.91,6.91,0,0,0,2.13-.38l1.38-.48a1.43,1.43,0,0,1,.89,0l1.4.43a6.87,6.87,0,0,0,2.14.3l1.46,0a1.44,1.44,0,0,1,.85.26l1.2.84a6.9,6.9,0,0,0,1.94.95l1.4.43A1.44,1.44,0,0,1,189,29l.88,1.17a6.9,6.9,0,0,0,1.55,1.5l1.2.84a1.43,1.43,0,0,1,.54.71l.48,1.38a6.87,6.87,0,0,0,1,1.91l.88,1.17a1.43,1.43,0,0,1,.29.84l0,1.46a6.92,6.92,0,0,0,.38,2.13l.48,1.38a1.43,1.43,0,0,1,0,.89l-.43,1.4a6.87,6.87,0,0,0-.3,2.14l0,1.46a1.43,1.43,0,0,1-.26.85l-.84,1.2a6.9,6.9,0,0,0-.95,1.94l-.43,1.4a1.45,1.45,0,0,1-.51.73l-1.17.88a6.9,6.9,0,0,0-1.5,1.55l-.84,1.2a1.44,1.44,0,0,1-.71.54l-1.38.48a6.87,6.87,0,0,0-1.91,1l-1.17.88a1.43,1.43,0,0,1-.84.29l-1.46,0a6.92,6.92,0,0,0-2.13.38l-1.38.48a1.43,1.43,0,0,1-.89,0l-1.4-.43a6.87,6.87,0,0,0-2.14-.3l-1.46,0a1.43,1.43,0,0,1-.85-.26l-1.2-.84a6.9,6.9,0,0,0-1.94-.95l-1.4-.43A1.44,1.44,0,0,1,166.51,59.52Z"/><path class="cls-1" d="M169.74,58.89a5,5,0,0,1,1.4.68l1,.71a2.12,2.12,0,0,0,1.26.38l1.24,0a5,5,0,0,1,1.54.22l1.19.36a2.12,2.12,0,0,0,1.31,0l1.18-.4a4.93,4.93,0,0,1,1.53-.27l1.24,0a2.12,2.12,0,0,0,1.24-.43l1-.75a5,5,0,0,1,1.37-.73l1.18-.41a2.12,2.12,0,0,0,1-.79l.71-1a5,5,0,0,1,1.08-1.12l1-.75a2.12,2.12,0,0,0,.75-1.08l.36-1.19a4.94,4.94,0,0,1,.68-1.4l.71-1a2.12,2.12,0,0,0,.38-1.26l0-1.24a5,5,0,0,1,.22-1.54l.36-1.19a2.12,2.12,0,0,0,0-1.31l-.4-1.18a4.93,4.93,0,0,1-.27-1.53l0-1.24a2.12,2.12,0,0,0-.43-1.24l-.75-1a5,5,0,0,1-.73-1.37l-.41-1.18a2.12,2.12,0,0,0-.79-1l-1-.71a5,5,0,0,1-1.12-1.08l-.75-1a2.12,2.12,0,0,0-1.08-.75l-1.19-.36a5,5,0,0,1-1.4-.68l-1-.71a2.1,2.1,0,0,0-1.26-.38l-1.24,0a4.93,4.93,0,0,1-1.54-.22l-1.19-.36a2.1,2.1,0,0,0-1.31,0l-1.18.4a5,5,0,0,1-1.53.27l-1.24,0a2.13,2.13,0,0,0-1.24.43l-1,.75a5.05,5.05,0,0,1-1.37.73l-1.18.4a2.11,2.11,0,0,0-1,.79l-.71,1a5,5,0,0,1-1.08,1.12l-1,.75a2.16,2.16,0,0,0-.46.48,2.11,2.11,0,0,0-.29.6l-.36,1.19a5,5,0,0,1-.68,1.4l-.71,1a2.11,2.11,0,0,0-.38,1.26l0,1.24a5,5,0,0,1-.22,1.54l-.36,1.19a2.11,2.11,0,0,0,0,1.31l.4,1.18a5,5,0,0,1,.27,1.53l0,1.24a2.1,2.1,0,0,0,.43,1.25l.75,1a5,5,0,0,1,.73,1.37l.4,1.17a2.11,2.11,0,0,0,.79,1l1,.71a5,5,0,0,1,1.12,1.08l.75,1a2.12,2.12,0,0,0,1.08.75Zm-1.49-1.7-.75-1a5.93,5.93,0,0,0-1.34-1.29l-1-.71a1.16,1.16,0,0,1-.43-.57l-.4-1.17a5.93,5.93,0,0,0-.87-1.64l-.75-1a1.14,1.14,0,0,1-.23-.67l0-1.24a5.92,5.92,0,0,0-.32-1.83l-.4-1.17a1.15,1.15,0,0,1,0-.71l.36-1.19a6,6,0,0,0,.26-1.84l0-1.24a1.14,1.14,0,0,1,.21-.68l.71-1a5.89,5.89,0,0,0,.82-1.67l.36-1.19a1.17,1.17,0,0,1,.41-.58l1-.75a5.89,5.89,0,0,0,1.29-1.34l.71-1a1.14,1.14,0,0,1,.57-.43l1.18-.41a6,6,0,0,0,1.64-.87l1-.75a1.18,1.18,0,0,1,.67-.23l1.24,0a5.92,5.92,0,0,0,1.83-.32l1.18-.4a1.14,1.14,0,0,1,.71,0l1.19.36a5.9,5.9,0,0,0,1.84.26l1.24,0a1.15,1.15,0,0,1,.68.21l1,.71a5.93,5.93,0,0,0,1.67.81l1.19.36a1.15,1.15,0,0,1,.58.41l.75,1a5.93,5.93,0,0,0,1.34,1.29l1,.71a1.15,1.15,0,0,1,.43.57l.4,1.18a5.92,5.92,0,0,0,.87,1.64l.75,1a1.15,1.15,0,0,1,.23.67l0,1.24a5.94,5.94,0,0,0,.32,1.83l.41,1.18a1.15,1.15,0,0,1,0,.71l-.36,1.19a5.93,5.93,0,0,0-.26,1.84l0,1.24a1.15,1.15,0,0,1-.21.68l-.71,1a5.92,5.92,0,0,0-.81,1.67l-.36,1.19a1.14,1.14,0,0,1-.41.58l-1,.75a5.93,5.93,0,0,0-1.29,1.34l-.71,1a1.15,1.15,0,0,1-.57.43l-1.18.41a5.92,5.92,0,0,0-1.64.87l-1,.75a1.15,1.15,0,0,1-.67.23l-1.24,0a5.94,5.94,0,0,0-1.83.32l-1.18.41a1.15,1.15,0,0,1-.71,0l-1.19-.36a5.93,5.93,0,0,0-1.84-.26l-1.24,0a1.15,1.15,0,0,1-.68-.21l-1-.71A5.94,5.94,0,0,0,170,58l-1.19-.36A1.15,1.15,0,0,1,168.26,57.19Z"/><path class="cls-1" d="M170.71,55.5a.49.49,0,1,0,.17,1l4.87-.86.41,2.35a.49.49,0,0,0,1-.17l-.41-2.35,5.83-1,.41,2.35a.49.49,0,1,0,1-.17l-.41-2.35,4.87-.86a.49.49,0,1,0-.17-1l-4.87.86-1-5.83,5.83-1,.86,4.87a.49.49,0,1,0,1-.17l-.86-4.87,2.35-.41a.49.49,0,0,0-.17-1l-2.35.41-1-5.83,2.35-.41a.49.49,0,1,0-.17-1l-2.35.41-.86-4.87a.49.49,0,1,0-1,.17l.86,4.87-5.83,1-1-5.83,4.87-.86a.49.49,0,1,0-.17-1l-4.87.86-.41-2.35a.49.49,0,0,0-1,.17l.41,2.35-5.83,1-.41-2.35a.49.49,0,1,0-1,.17l.41,2.35-4.87.86a.49.49,0,1,0,.17,1l4.87-.86,1,5.83-5.83,1-.86-4.87a.49.49,0,0,0-1,.17l.86,4.87-2.35.41a.49.49,0,0,0,.17,1l2.35-.41,1,5.83-2.35.41a.49.49,0,1,0,.17,1l2.35-.41.86,4.87a.49.49,0,1,0,1-.17l-.86-4.87,5.83-1,1,5.83Zm16.23-15.88,1,5.83-5.83,1-1-5.83Zm-13.82-4.57L179,34l1,5.83-5.83,1Zm7,5.76,1,5.83-5.83,1-1-5.83Zm-11.6,8.06-1-5.83,5.83-1,1,5.83Zm7-.24,5.83-1,1,5.83-5.83,1Z"/><path class="cls-1" d="M196.67,165a.49.49,0,0,1,.65.22L208,187.17a.49.49,0,1,1-.88.43l-10.66-21.92A.49.49,0,0,1,196.67,165Z"/><path class="cls-1" d="M191.63,168l10.66,21.92a.49.49,0,0,1-.88.43l-10.66-21.92a.49.49,0,0,1,.88-.43Z"/><path class="cls-1" d="M202.45,162.45,215,188.17a2.39,2.39,0,0,1-1.1,3.19l-12.79,6.24a2.39,2.39,0,0,1-3.19-1.1l-12.56-25.69a9.54,9.54,0,1,1,17.13-8.35Zm-16.25,7.93,12.56,25.69a1.41,1.41,0,0,0,1.88.65l12.79-6.24a1.41,1.41,0,0,0,.65-1.88l-12.51-25.72a8.56,8.56,0,1,0-15.37,7.5Z"/><path class="cls-1" d="M210.22,194.71a.49.49,0,1,1,.88-.43l2.5,5.13a3.34,3.34,0,1,1-6,2.93l-2.5-5.12a.49.49,0,1,1,.88-.43l2.5,5.12a2.36,2.36,0,1,0,4.24-2.07Z"/><path class="cls-1" d="M40.65,157.36l1.92.7a10.36,10.36,0,0,1,.62-3.41,10.24,10.24,0,0,1,11.66-6.53,10.26,10.26,0,0,1,17.52,6.37,10.26,10.26,0,0,1,3,15.52l1.92.7a.49.49,0,0,1,.29.63c-1.48,4.07-9.93,5.86-18.45,3.91a2.5,2.5,0,0,0-1.87.3,2.39,2.39,0,0,0-1.09,1.52l-.36,1.57a.52.52,0,0,0,.17.48,7.86,7.86,0,0,1,2.18,4.16,1.46,1.46,0,0,1-2,1.56l-8.49-3.09a1.46,1.46,0,0,1-.5-2.46,7.86,7.86,0,0,1,4.35-1.78.52.52,0,0,0,.44-.26l.74-1.44a2.39,2.39,0,0,0,.14-1.87,2.5,2.5,0,0,0-1.24-1.43c-7.78-4-13.1-10.78-11.62-14.85A.49.49,0,0,1,40.65,157.36ZM54.09,149a9.26,9.26,0,0,0-10,6,9.37,9.37,0,0,0-.56,3.43l11.35,4.13a10.25,10.25,0,0,1-2.37-10.73A10.57,10.57,0,0,1,54.09,149Zm11.24-2.38a9.26,9.26,0,0,0-8.08,16.56A10.25,10.25,0,0,1,71,153.86l.35.14A9.31,9.31,0,0,0,65.32,146.61Zm5.33,8.17a9.28,9.28,0,0,0-11.88,5.54,9.38,9.38,0,0,0-.56,3.43l16.21,5.9a9.38,9.38,0,0,0,1.77-3A9.28,9.28,0,0,0,70.65,154.78ZM52.09,171.63a3.47,3.47,0,0,1,1.72,2,3.35,3.35,0,0,1-.19,2.62l-.74,1.44a1.49,1.49,0,0,1-1.24.79A6.82,6.82,0,0,0,47.86,180a.48.48,0,0,0,.2.8l8.49,3.09a.48.48,0,0,0,.67-.49,6.83,6.83,0,0,0-1.9-3.61,1.49,1.49,0,0,1-.44-1.4l.36-1.57a3.35,3.35,0,0,1,1.54-2.13,3.47,3.47,0,0,1,2.6-.42c8.35,1.92,15.46.07,17.11-2.85l-35.68-13C40.2,161.75,44.46,167.73,52.09,171.63Z"/><path class="cls-1" d="M59.38,113.79l-3.46-8.16a3.77,3.77,0,0,0-5-2c-2.09-4-8.08-7.6-11.6-7.82a3.35,3.35,0,0,0-2.88,1.75l-.19.29c-3.62-.27-8.22-.2-10.3,1.6a3.09,3.09,0,0,0-1.09,2.15c-.16,2.66,1.6,3.88,3.64,5.31a19.25,19.25,0,0,1,4.31,3.78,12.88,12.88,0,0,0,.1,4.44,5.63,5.63,0,0,0,1.51,1.94,2.66,2.66,0,0,0,.07,1.89l.4.95a2.66,2.66,0,0,0,1.31,1.36,5.64,5.64,0,0,0,.35,2.43,12.88,12.88,0,0,0,3.12,3.16,19.25,19.25,0,0,1-.28,5.73c-.39,2.46-.73,4.57,1.29,6.3a3.09,3.09,0,0,0,2.3.71c2.74-.25,6-3.51,8.31-6.3l.34.06a3.35,3.35,0,0,0,3.26-.86c2.29-2.68,3.84-9.52,2.44-13.78a3.77,3.77,0,0,0,2.08-5ZM29,106.15c-2-1.41-3.36-2.35-3.23-4.45a2,2,0,0,1,.75-1.47c1.37-1.18,4.67-1.68,9.12-1.4a35.63,35.63,0,0,0-2.76,10.56A21.9,21.9,0,0,0,29,106.15Zm6.24,9.71a2.66,2.66,0,0,0-.38.38,4.34,4.34,0,0,1-1.1-1.45c-.55-1.3.48-12.45,3.42-16.62.66-.93,1.34-1.38,2-1.34,3.22.2,9,3.7,10.83,7.36Zm7.61,22.81a2,2,0,0,1-1.58-.48c-1.6-1.37-1.35-3-1-5.41a21.9,21.9,0,0,0,.37-5.05,35.63,35.63,0,0,0,9.52,5.35C47.33,136.47,44.68,138.5,42.87,138.66Zm11.25-6.76a2.48,2.48,0,0,1-2.37.53c-5-.77-13.78-7.78-14.33-9.08a4.34,4.34,0,0,1-.28-1.8,2.66,2.66,0,0,0,.54,0L56.36,119C57.68,122.9,56.22,129.45,54.12,131.91Zm4.21-15.26A2.77,2.77,0,0,1,56.29,118l-18.74,2.55a1.7,1.7,0,0,1-1.79-1l-.4-.95a1.7,1.7,0,0,1,.51-2l14.85-11.71A2.79,2.79,0,0,1,55,106l3.46,8.16A2.77,2.77,0,0,1,58.34,116.65Z"/><path class="cls-1" d="M22.28,250H33.87c-.51-.15-1-.29-1.55-.4A20.44,20.44,0,0,0,22.28,250Z"/><path class="cls-1" d="M8.08,15.18a6.23,6.23,0,0,0,3.41,7l-.08.05a14.28,14.28,0,0,0-1.5,1.2,13.58,13.58,0,0,1-1.38,1.11.49.49,0,0,0-.14.67c1.94,3,4.54,3.54,7.53,1.6a.49.49,0,0,0,.14-.67,13.56,13.56,0,0,1-.81-1.58,12.69,12.69,0,0,0-1-1.83,6.19,6.19,0,0,0,5.9-4.84A8.08,8.08,0,0,1,36,21.23,6.19,6.19,0,0,0,39.4,28a12.69,12.69,0,0,0-1.62,1.28,13.57,13.57,0,0,1-1.38,1.11.49.49,0,0,0-.14.67c1.94,3,4.54,3.54,7.53,1.6a.49.49,0,0,0,.14-.67,13.58,13.58,0,0,1-.81-1.58,14.27,14.27,0,0,0-.88-1.7l-.05-.08a6.23,6.23,0,0,0,6-5A20.49,20.49,0,0,0,33.87,0H22.28A20.33,20.33,0,0,0,8.08,15.18Zm6.28,9.76c.2.43.4.87.62,1.27-2.23,1.29-4,.91-5.52-1.17.36-.27.73-.6,1.09-.91.79-.69,1.77-1.55,2.3-1.44S13.92,24,14.36,24.94Zm27.87,5.93c.2.43.4.87.62,1.27-2.23,1.29-4,.91-5.51-1.18.36-.27.73-.59,1.09-.91.79-.69,1.77-1.55,2.29-1.43S41.78,29.92,42.22,30.87ZM32.12.55a19.6,19.6,0,0,1,15.05,23,5.22,5.22,0,1,1-10.24-2.08,9.05,9.05,0,0,0-17.71-3.76A5.22,5.22,0,1,1,9,15.4,19.6,19.6,0,0,1,32.12.55Z"/><path class="cls-1" d="M125.93,188.41A1.48,1.48,0,0,1,128,188l31.34,21.14a1.48,1.48,0,0,1,.4,2.06l-.56.83a2.48,2.48,0,0,1-3.43.67l-29.7-20a2.48,2.48,0,0,1-.67-3.43Zm.65,3.45,29.7,20a1.5,1.5,0,0,0,2.08-.4l.56-.83a.51.51,0,0,0-.14-.7l-31.34-21.14a.51.51,0,0,0-.7.14l-.56.83A1.5,1.5,0,0,0,126.58,191.86Z"/><path class="cls-1" d="M157.89,204.77l-2.52-.18a2.27,2.27,0,0,1-1.88-1.27L152.38,201a1.31,1.31,0,0,0-1.08-.73l-2.52-.18a2.3,2.3,0,0,1-1.88-1.27l-1.11-2.26a1.31,1.31,0,0,0-1.08-.73l-2.52-.18a2.3,2.3,0,0,1-1.89-1.27l-1.11-2.26a1.31,1.31,0,0,0-1.08-.73l-2.51-.18A2.27,2.27,0,0,1,133.7,190l-1.11-2.26a1.31,1.31,0,0,0-1.08-.73l-2.52-.18a2.25,2.25,0,0,1-1.11-.38.49.49,0,0,1,.55-.81,1.27,1.27,0,0,0,.64.22l2.52.18a2.27,2.27,0,0,1,1.88,1.27l1.11,2.26a1.31,1.31,0,0,0,1.08.73l2.52.18a2.28,2.28,0,0,1,1.88,1.27l1.11,2.26a1.3,1.3,0,0,0,1.08.73l2.52.18a2.28,2.28,0,0,1,1.89,1.27l1.11,2.26a1.3,1.3,0,0,0,1.08.73l2.51.18a2.27,2.27,0,0,1,1.89,1.27l1.11,2.26a1.31,1.31,0,0,0,1.08.73l2.51.18a2.29,2.29,0,0,1,1.89,1.27l1.11,2.26a1.28,1.28,0,0,0,.44.51.49.49,0,0,1,.13.68.49.49,0,0,1-.68.13,2.31,2.31,0,0,1-.77-.89L159,205.5A1.3,1.3,0,0,0,157.89,204.77Z"/><path class="cls-1" d="M133.25,185.54a4.47,4.47,0,0,1-1.07-6.4,6.21,6.21,0,0,1,8.61-1.72,6.09,6.09,0,0,1,2.66,4.51,6.1,6.1,0,0,1,7.85,5.3,6.1,6.1,0,0,1,7.85,5.29,6.14,6.14,0,0,1,5.19.79,6.21,6.21,0,0,1,1.64,8.61,4.46,4.46,0,0,1-6.34,1.41Zm31.92,15.85a5.2,5.2,0,1,0-8.62-5.81.49.49,0,0,1-.81-.55,6.23,6.23,0,0,1,2.45-2.12,5.13,5.13,0,0,0-7.17-4.53,5,5,0,0,0-2.33,1.91.49.49,0,0,1-.81-.55,6.07,6.07,0,0,1,2.47-2.13,5.13,5.13,0,0,0-7.17-4.53,5,5,0,0,0-2.33,1.91.49.49,0,0,1-.81-.55,6.07,6.07,0,0,1,2.46-2.13,5.12,5.12,0,0,0-2.25-4.08,5.24,5.24,0,0,0-7.25,1.45,3.5,3.5,0,0,0,.8,5l26.4,17.81A3.47,3.47,0,0,0,165.17,201.38Z"/><path class="cls-1" d="M48.72,74.52a.49.49,0,0,1,.6.33l.76,2.65a.49.49,0,0,1-.94.27l-.76-2.65A.49.49,0,0,1,48.72,74.52Z"/><path class="cls-1" d="M27.87,71.89a.49.49,0,0,1,.27.94l-2.65.76a.49.49,0,0,1-.27-.94Z"/><path class="cls-1" d="M42,78.6a.49.49,0,0,1,.27.94l-2.65.76a.49.49,0,1,1-.27-.94Z"/><path class="cls-1" d="M30.05,80.74a20,20,0,1,1,27.19-7.8A20,20,0,0,1,30.05,80.74Zm28.65-19a2.39,2.39,0,0,0-1.47,1.16L53,70.58a3.41,3.41,0,1,1-6-3.31l4.26-7.68A2.44,2.44,0,1,0,47,57.23l-.76,1.36a.49.49,0,1,1-.85-.47l.76-1.36a3.41,3.41,0,0,1,6,3.31l-4.26,7.68a2.44,2.44,0,1,0,4.27,2.36l4.26-7.68a3.36,3.36,0,0,1,2.22-1.66A19,19,0,0,0,27.12,49a3.28,3.28,0,0,1,.35.16,3.42,3.42,0,0,1,1.33,4.64l-1.42,2.56a2.44,2.44,0,0,0,4.27,2.36l2.84-5.12a3.42,3.42,0,0,1,4.64-1.33,3.38,3.38,0,0,1,1.73,3.23.49.49,0,0,1-1-.08,2.41,2.41,0,0,0-1.23-2.29,2.44,2.44,0,0,0-3.32,1L32.5,59.23a3.41,3.41,0,0,1-6-3.31l1.42-2.56A2.44,2.44,0,0,0,27,50a2.26,2.26,0,0,0-.69-.25,19,19,0,1,0,32.4,11.95Z"/><path class="cls-1" d="M36.68,68.8a6.34,6.34,0,1,1,8.62-2.47A6.35,6.35,0,0,1,36.68,68.8Zm5.68-10.24a5.37,5.37,0,1,0,2.09,7.29A5.37,5.37,0,0,0,42.35,58.56Z"/><path class="cls-1" d="M25.3,69.19a2.44,2.44,0,1,1,3.32-1A2.44,2.44,0,0,1,25.3,69.19Zm1.89-3.41a1.46,1.46,0,1,0,.57,2A1.47,1.47,0,0,0,27.2,65.77Z"/><path class="cls-1" d="M36,74a2.44,2.44,0,1,1-3.32,1A2.44,2.44,0,0,1,36,74Zm-1.89,3.41a1.46,1.46,0,1,0-.57-2A1.47,1.47,0,0,0,34.13,77.42Z"/><path class="cls-1" d="M43.32,76.94a2.44,2.44,0,1,1,3.32-1A2.44,2.44,0,0,1,43.32,76.94Zm1.89-3.41a1.46,1.46,0,1,0,.57,2A1.47,1.47,0,0,0,45.21,73.53Z"/><path class="cls-1" d="M37.88,70.83a.49.49,0,0,1,.66.21l1.61,3.13a.49.49,0,1,1-.87.45l-1.61-3.13A.49.49,0,0,1,37.88,70.83Z"/><path class="cls-1" d="M23.64,61.41l-.76-2.65a.49.49,0,0,1,.94-.27l.76,2.65a.49.49,0,0,1-.94.27Z"/><path class="cls-1" d="M103,84.17A19.87,19.87,0,0,0,92.7,72.88a.49.49,0,0,0-.64.24L83.81,90.81a.49.49,0,0,0,.61.66l18.33-6.67A.49.49,0,0,0,103,84.17Zm-17.85,6L92.73,74A18.89,18.89,0,0,1,102,84.05Z"/><path class="cls-1" d="M78,94.16a.49.49,0,0,0-.9,0l-2.33,5a.49.49,0,0,0,.61.66L79,98.45a.49.49,0,0,0,.29-.63Zm-1.85,4.31,1.34-2.87.76,2.1Z"/><path class="cls-1" d="M88.21,100.92l3.46-1.81a.49.49,0,0,0-.08-.9l-5.27-1.65a.49.49,0,0,0-.58.69l1.81,3.46A.49.49,0,0,0,88.21,100.92Zm2-2.13-2,1-1-2Z"/><path class="cls-1" d="M85.15,84.17l-.3-3.89a.49.49,0,0,0-.52-.45l-3.89.3a.49.49,0,0,0-.28.86l4.19,3.59A.49.49,0,0,0,85.15,84.17ZM81.68,81l2.23-.17.17,2.23Z"/><path class="cls-1" d="M92.31,78.21a15.15,15.15,0,0,1,5.4,5.9.49.49,0,0,0,.66.21.48.48,0,0,0,.21-.66,16.07,16.07,0,0,0-5.75-6.28.49.49,0,1,0-.52.83Z"/><path class="cls-1" d="M75.8,109.14a20,20,0,0,0,27.85-23,.49.49,0,0,0-.95.24A19,19,0,1,1,90.52,73.05a.49.49,0,0,0,.62-.3.51.51,0,0,0-.3-.62,20,20,0,0,0-15.05,37Z"/><path class="cls-1" d="M72.73,92.64a2.44,2.44,0,1,0-1.18-3.24A2.44,2.44,0,0,0,72.73,92.64Zm1.65-3.54a1.46,1.46,0,1,1-1.94.71A1.47,1.47,0,0,1,74.38,89.1Z"/><path class="cls-1" d="M90.88,86a2.44,2.44,0,1,0-1.18-3.24A2.44,2.44,0,0,0,90.88,86Zm1.65-3.54a1.46,1.46,0,1,1-1.94.71A1.47,1.47,0,0,1,92.53,82.49Z"/><path class="cls-1" d="M78,85.88a.49.49,0,0,0,.29-.63l-1.51-4.15a.49.49,0,0,0-.92.33l1.51,4.15A.49.49,0,0,0,78,85.88Z"/><path class="cls-1" d="M96.17,94.25a.49.49,0,0,0-.43-.54L89.61,93a.49.49,0,1,0-.11,1l6.13.7A.49.49,0,0,0,96.17,94.25Z"/><path class="cls-1" d="M70.54,84.62a15.13,15.13,0,0,1,18.33-8,.49.49,0,1,0,.3-.93,16.1,16.1,0,1,0,9.66,22.13,15.91,15.91,0,0,0,1.1-10.36.49.49,0,0,0-1,.22,15,15,0,0,1-1,9.74A15.12,15.12,0,0,1,70.54,84.62Z"/><path class="cls-1" d="M82.71,98.42a.49.49,0,0,0-.47.5l.12,4.36a.49.49,0,0,0,.5.47.49.49,0,0,0,.47-.5l-.12-4.36A.49.49,0,0,0,82.71,98.42Z"/><path class="cls-1" d="M207.14,129.53l2.08,3.61a.49.49,0,0,0,.84-.49L208,129a.49.49,0,1,0-.84.49Z"/><path class="cls-1" d="M183.18,91a2.49,2.49,0,0,0-.89,3.32l2.93,5.08a.49.49,0,0,0,.67.18l6.77-3.91a2.42,2.42,0,0,0,.89-3.32l-2.93-5.08a.49.49,0,0,0-.67-.18Zm9.52,1.84a1.45,1.45,0,0,1-.53,2l-6.35,3.66-2.69-4.65a1.45,1.45,0,0,1,.53-2L190,88.15Z"/><path class="cls-1" d="M186.37,100.39a.49.49,0,1,0,.49.84l8.45-4.88a.49.49,0,0,0-.49-.84Z"/><path class="cls-1" d="M189,101.11a2.49,2.49,0,0,0-.89,3.32l2.93,5.08a.49.49,0,0,0,.67.18l6.77-3.91a2.42,2.42,0,0,0,.89-3.32l-2.93-5.08a.49.49,0,0,0-.67-.18Zm9.52,1.84a1.45,1.45,0,0,1-.53,2l-6.35,3.66L189,103.94a1.45,1.45,0,0,1,.53-2l6.34-3.66Z"/><path class="cls-1" d="M192.23,110.53a.49.49,0,1,0,.49.84l8.45-4.88a.49.49,0,0,0-.49-.84Z"/><path class="cls-1" d="M194.89,111.25a2.49,2.49,0,0,0-.89,3.32l2.93,5.08a.49.49,0,0,0,.67.18l6.77-3.91a2.42,2.42,0,0,0,.89-3.32l-2.93-5.08a.49.49,0,0,0-.67-.18Zm9.52,1.84a1.45,1.45,0,0,1-.53,2l-6.35,3.66-2.69-4.65a1.45,1.45,0,0,1,.53-2l6.34-3.66Z"/><path class="cls-1" d="M198.08,120.67a.49.49,0,1,0,.49.84l8.45-4.88a.49.49,0,0,0-.49-.84Z"/><path class="cls-1" d="M200.74,121.39a2.49,2.49,0,0,0-.89,3.32l2.93,5.08a.49.49,0,0,0,.67.18l6.77-3.91a2.42,2.42,0,0,0,.89-3.32l-2.93-5.08a.49.49,0,0,0-.67-.18Zm9.52,1.84a1.45,1.45,0,0,1-.53,2l-6.35,3.66-2.69-4.65a1.45,1.45,0,0,1,.53-2l6.34-3.66Z"/><path class="cls-1" d="M181.63,85.35,183.72,89a.49.49,0,0,0,.84-.49l-2.08-3.61a.49.49,0,0,0-.84.49Z"/><path class="cls-1" d="M63.62,247.23A4.31,4.31,0,0,0,64,250h1.05a3.33,3.33,0,0,1-.48-2.56,3.39,3.39,0,0,1,4-2.61L92.92,250H97.6l-28.78-6.13A4.5,4.5,0,0,0,63.62,247.23Z"/><path class="cls-1" d="M77.15,249.24l-2.32.62a1.5,1.5,0,0,1-1.29-.27l-1.87-1.52a2.47,2.47,0,0,0-2.15-.46l-2.32.62a1.46,1.46,0,0,1-1-.09.49.49,0,1,0-.41.89,2.46,2.46,0,0,0,1.62.14l2.32-.62a1.5,1.5,0,0,1,1.29.27L72.5,250h7.17l-.37-.3A2.46,2.46,0,0,0,77.15,249.24Z"/><path class="cls-1" d="M107.65,247.43l-32.51-6.93a6.4,6.4,0,0,0-5.83,1.67.45.45,0,0,0-.11.65.52.52,0,0,0,.7.12h0a5.53,5.53,0,0,1,5-1.48l32.51,6.93a5.48,5.48,0,0,1,2.86,1.61h1.26A6.46,6.46,0,0,0,107.65,247.43Z"/><path class="cls-1" d="M67,2.43l43.17,9.2a4.5,4.5,0,0,0,5.2-3.37A4.51,4.51,0,0,0,112,3.07L97.6,0H92.92l18.87,4a3.4,3.4,0,1,1-1.41,6.65L67.21,1.47A3.48,3.48,0,0,1,65.05,0H64A4.43,4.43,0,0,0,67,2.43Z"/><path class="cls-1" d="M75.08.81,77.4.19a1.5,1.5,0,0,1,1.29.27L80.57,2a2.47,2.47,0,0,0,2.15.45L85,1.81a1.5,1.5,0,0,1,1.29.27L88.2,3.6a2.46,2.46,0,0,0,2.15.46l2.32-.62A1.5,1.5,0,0,1,94,3.71l1.87,1.52A2.47,2.47,0,0,0,98,5.68l2.32-.62a1.5,1.5,0,0,1,1.29.27l1.88,1.52a2.47,2.47,0,0,0,2.15.45l2.32-.62a1.5,1.5,0,0,1,1.29.27l1.87,1.52a2.46,2.46,0,0,0,1.54.53.49.49,0,0,0,0-1,1.46,1.46,0,0,1-.92-.31L109.83,6.2a2.47,2.47,0,0,0-2.15-.46l-2.32.62a1.5,1.5,0,0,1-1.29-.27L102.2,4.58a2.46,2.46,0,0,0-2.15-.46l-2.32.62a1.5,1.5,0,0,1-1.29-.27L94.57,2.95a2.47,2.47,0,0,0-2.15-.45l-2.32.62a1.5,1.5,0,0,1-1.29-.27L86.93,1.32A2.47,2.47,0,0,0,84.79.87l-2.32.62a1.5,1.5,0,0,1-1.29-.27L79.68,0H72.5l.43.35A2.47,2.47,0,0,0,75.08.81Z"/><path class="cls-1" d="M109.76,12.73a.54.54,0,0,0-.72-.11A5.45,5.45,0,0,1,104.1,14L71.58,7.11a5.54,5.54,0,0,1-4-3.4v0a.52.52,0,0,0-.69-.18.45.45,0,0,0-.16.64,6.41,6.41,0,0,0,4.65,3.91L103.89,15a6.37,6.37,0,0,0,5.77-1.62A.44.44,0,0,0,109.76,12.73Z"/><path class="cls-1" d="M112.09,1.89a.44.44,0,0,0,.17-.62A6.09,6.09,0,0,0,111.57,0h-1.26a5.45,5.45,0,0,1,1.08,1.7A.54.54,0,0,0,112.09,1.89Z"/><path class="cls-1" d="M12.88,70.4a1.47,1.47,0,0,0-1.53-.86L0,70.85v1l11.46-1.32a.53.53,0,0,1,.42.9L7.74,75.33a4.31,4.31,0,0,0-2.11-1.65A4.4,4.4,0,0,0,0,76.31v3a4.36,4.36,0,0,0,1.46,2L0,82.66V84L12.55,72.12A1.49,1.49,0,0,0,12.88,70.4ZM2.18,80.6a3.41,3.41,0,0,1,3.12-6A3.35,3.35,0,0,1,7,76Z"/><path class="cls-1" d="M74.56,214.89h0a1.49,1.49,0,0,1,.17-1.62l25.7-32.39a1.47,1.47,0,0,1,1.69-.48,1.49,1.49,0,0,1,1,1.45L102,223.18a1.52,1.52,0,0,1-.91,1.35A20.66,20.66,0,0,1,74.56,214.89ZM102,188.51a3.35,3.35,0,0,0-2.22.22,3.41,3.41,0,0,0,2,6.45Zm-.82,30.06.61-22.4a4.38,4.38,0,0,1-2.42-8.32,4.31,4.31,0,0,1,2.66-.33l.16-5.69a.53.53,0,0,0-.94-.34L78.35,210.27a14.64,14.64,0,0,0,.83,2.26A15,15,0,0,0,99,219.76,15.71,15.71,0,0,0,101.13,218.57Zm-.13,4.59.09-3.41a15.69,15.69,0,0,1-1.65.89,15.93,15.93,0,0,1-21.14-7.7,15.68,15.68,0,0,1-.69-1.74l-2.12,2.67a.55.55,0,0,0-.07.56h0a19.68,19.68,0,0,0,25.25,9.19A.55.55,0,0,0,101,223.16Z"/><path class="cls-1" d="M82.43,213.31a4.39,4.39,0,1,1,5.83,2.12A4.4,4.4,0,0,1,82.43,213.31Zm7.07-3.3a3.41,3.41,0,1,0-1.65,4.54A3.42,3.42,0,0,0,89.51,210Z"/><path class="cls-1" d="M91.87,203.53a3.41,3.41,0,1,1,4.54,1.65A3.42,3.42,0,0,1,91.87,203.53Zm5.31-2.47A2.44,2.44,0,1,0,96,204.3,2.44,2.44,0,0,0,97.17,201.06Z"/><path class="cls-1" d="M95.75,213a2.44,2.44,0,1,1-1.18,3.24A2.44,2.44,0,0,1,95.75,213Zm1.65,3.54a1.46,1.46,0,1,0-1.94-.71A1.47,1.47,0,0,0,97.4,216.56Z"/><path class="cls-1" d="M250,79.29v-3A4.36,4.36,0,0,0,250,79.29Z"/><path class="cls-1" d="M235.19,96.68a15.7,15.7,0,0,1-2.32-.64,15,15,0,0,1-8.93-19.14,14.64,14.64,0,0,1,1-2.19l25-2.88v-1l-29.73,3.42a1.49,1.49,0,0,0-1.27,1h0a20.66,20.66,0,0,0,11.92,25.57,1.52,1.52,0,0,0,1.6-.31L250,84V82.66Zm-3.33,3.16a.55.55,0,0,1-.57.11A19.68,19.68,0,0,1,219.93,75.6h0a.55.55,0,0,1,.45-.35l3.39-.39a15.69,15.69,0,0,0-.75,1.72A15.93,15.93,0,0,0,232.54,97a15.68,15.68,0,0,0,1.8.54Z"/><path class="cls-1" d="M225.69,79.75a4.39,4.39,0,1,1,2.62,5.63A4.4,4.4,0,0,1,225.69,79.75ZM233,82.42a3.41,3.41,0,1,0-4.38,2A3.42,3.42,0,0,0,233,82.42Z"/><path class="cls-1" d="M239.27,79.5a3.41,3.41,0,1,1,2,4.38A3.42,3.42,0,0,1,239.27,79.5Zm5.5,2A2.44,2.44,0,1,0,241.65,83,2.44,2.44,0,0,0,244.77,81.51Z"/><path class="cls-1" d="M235.31,89a2.44,2.44,0,1,1-3.13,1.46A2.44,2.44,0,0,1,235.31,89ZM234,92.63a1.46,1.46,0,1,0-.87-1.88A1.47,1.47,0,0,0,234,92.63Z"/></svg>