<svg xmlns="http://www.w3.org/2000/svg" width="47.14" height="47" viewBox="0 0 47.14 47"><defs><style>.cls-1{fill:#fff;}</style></defs><title>safe</title><g id="Layer_2" data-name="Layer 2"><g id="Layer_3" data-name="Layer 3"><path class="cls-1" d="M47.11,11.59c0-.59,0-1.18,0-1.77,0-1.34-.06-2.73,0-4.09a7.67,7.67,0,0,0-.5-3.46c-.84-1.73-2.78-1.9-4.34-2C41,.13,39.63.08,38,.08c-1,0-2,0-3,0l-1.3,0H32.23c-1.67,0-3.33,0-5-.07-1.5,0-3-.07-4.51-.07-3.61,0-7.28.07-10.84.14L7.13.23H6.47c-1.84,0-3.93,0-5.19,1.54S.09,5.65.14,7.73c0,.49,0,1,0,1.38,0,2.89,0,5.83,0,8.67,0,3.42,0,6.95-.06,10.42C0,30.4,0,33,0,35.48c0,.38,0,.79,0,1.22a11.32,11.32,0,0,0,.64,4.78c.85,1.75,2.52,1.9,4.16,1.9h.44l0,.3c-.07,1-.16,2.38.52,2.92A3.15,3.15,0,0,0,7.7,47c.42,0,.84,0,1.21,0l.76,0,.73,0c.32,0,.67,0,1,0a3.05,3.05,0,0,0,1.9-.44,1.23,1.23,0,0,0,.42-.9,9.37,9.37,0,0,0,0-1.47c0-.29,0-.58,0-.86h2.6c3.15,0,6.35.12,9.46.22,2.65.09,5.38.17,8.08.21v.1c-.05.94-.13,2.23.52,2.74a3.15,3.15,0,0,0,1.91.41c.42,0,.84,0,1.21,0l.76,0,.73,0c.32,0,.67,0,1,0a3.05,3.05,0,0,0,1.9-.44,1.25,1.25,0,0,0,.42-.9,9.41,9.41,0,0,0,0-1.48c0-.17,0-.35,0-.52,2-.17,3.32-.69,3.91-1.57a3.7,3.7,0,0,0,.45-1.92V40c.07-1.31.08-2.66.08-4,0-.66,0-1.31,0-2q0-2.83.11-5.66C47.08,22.89,47.19,17.19,47.11,11.59ZM45.72,35.43c0,.5,0,1,0,1.52,0,1,0,2-.06,3-.14,2.4-2.92,2.51-5,2.59l-.6,0c-1.21.06-2.48.09-3.87.09-2.6,0-5.25-.11-7.82-.21-2-.08-4.17-.17-6.24-.2H20.4c-1.83,0-3.68,0-5.52.07s-3.69.07-5.53.07-3.65,0-5.21-.13c-2.84-.15-2.9-3-3-5.28l0-.63c-.07-2-.11-3.62-.08-5.29.1-5.82.14-11,.14-15.72,0-2.63,0-5.74.09-8.8.07-2.63.37-4.83,3.31-5.16a19.87,19.87,0,0,1,2.16-.09H8.48l3.92-.07c3.38-.06,6.88-.13,10.32-.13l6.37,0c2.8,0,5.61,0,8.48,0h2a18.42,18.42,0,0,1,4,.33c2.55.57,2.44,3.15,2.35,5.42,0,.54,0,1.07,0,1.56.17,5.6.07,11.29,0,16.79ZM38.29,45.81h-.58l-.68,0a4.75,4.75,0,0,1-1.07-.1c-1-.24-1-1-.94-2h1.31l2.53,0h2.43A3.06,3.06,0,0,1,41,45.45c-.27.36-1,.4-1.53.4l-.7,0Zm-28.62,0H9.08l-.69,0a4.55,4.55,0,0,1-1.06-.1c-.73-.17-.77-.28-.91-1a5.18,5.18,0,0,1,0-1.17v-.17l6.25,0c0,.13,0,.27,0,.41a3.06,3.06,0,0,1-.26,1.71c-.27.36-1,.4-1.53.4l-.7,0Z"/><path class="cls-1" d="M41.14,16.34c0-.91,0-1.83,0-2.74,0-1.17-.06-2.38,0-3.57V9.74a5,5,0,0,0-.67-3.28c-.92-1.14-2.89-1.27-4.29-1.27-.51,0-1,0-1.47,0l-1,0h-.43c-1.73,0-3.46,0-5.18,0s-3.46,0-5.25,0c-2.54,0-5.12.05-7.62.1l-3.38.06c-2.68,0-5.12.3-5.55,2.94A1.42,1.42,0,0,0,5,8.89a6.78,6.78,0,0,0-.29,3.28c0,.28,0,.53,0,.73s0,.51,0,.81c0,1-.11,2.29.41,2.93a1.47,1.47,0,0,0,1,.45v1.5c0,2.68,0,5.44-.05,8.16A1.32,1.32,0,0,0,5,27.32a6.78,6.78,0,0,0-.29,3.28c0,.28,0,.53,0,.73s0,.51,0,.81c0,1-.11,2.29.41,2.93a1.56,1.56,0,0,0,1.12.47c.41,2.45,2.21,2.79,4.1,2.79.44,0,.9,0,1.35,0l1.21,0h3.27c3.65,0,7.35,0,11,.14l2.43.08c1.45.05,3,.11,4.43.11h1.84A8.86,8.86,0,0,0,39.54,38a2.15,2.15,0,0,0,1.26-1.67A16.28,16.28,0,0,0,41,31.88c0-.69-.06-1.36,0-2q0-1.79.06-3.59C41.07,23,41.14,19.66,41.14,16.34ZM39.89,30.61a23.18,23.18,0,0,1-.13,4.08c-.28,1.83-.84,2.41-2.49,2.61a28.2,28.2,0,0,1-3.23.16h-.22c-2.28,0-4.6-.08-6.85-.15-1.79-.06-3.59-.12-5.38-.14s-3.67,0-5.5,0h-.94c-.35,0-.79,0-1.29.06s-1.38.08-2.12.08c-2.61,0-4-.56-4.4-1.77l.23,0c.67-.1.81-.31.91-.93a11.63,11.63,0,0,0,0-2.31c0-.27,0-.53,0-.78s0-.75,0-1.19a7.36,7.36,0,0,0-.13-2.73,1.39,1.39,0,0,0-1.28-.81c.06-2.72.05-5.49.05-8.17V17.08l.39,0c.67-.1.81-.31.91-.93a11.63,11.63,0,0,0,0-2.31c0-.27,0-.53,0-.78s0-.75,0-1.19a7.36,7.36,0,0,0-.13-2.73,1.27,1.27,0,0,0-1.1-.78c.38-1.65,2.11-1.88,3.94-1.88h1.26L18,6.35q2.18,0,4.36,0t4.18,0l1.87,0,2.34,0,2.34,0c1.2,0,2.19,0,3.1.06h.56a4.76,4.76,0,0,1,2,.28c1.17.6,1.18,1.55,1.19,2.66v.31c0,2.08.06,4.16.07,6.24,0,3.19,0,6.44-.11,9.58l-.06,3.11C39.85,29.25,39.87,29.93,39.89,30.61ZM6.45,34.41c-.12,0-.47,0-.55-.77A5.62,5.62,0,0,1,5.79,32c0-.23,0-.45,0-.65s0-.39,0-.61c-.07-1.25-.17-2.81,1.13-2.91.67.08.56,2.33.51,3.29,0,.25,0,.45,0,.58s0,.33,0,.57a7.23,7.23,0,0,1,0,2.05,1.91,1.91,0,0,1-.57.09H6.67Zm1-21.76c0,.25,0,.45,0,.58s0,.33,0,.57a7.23,7.23,0,0,1,0,2.05,1.91,1.91,0,0,1-.57.09H6.67l-.22,0c-.12,0-.47,0-.55-.77a5.62,5.62,0,0,1-.1-1.67c0-.23,0-.45,0-.65s0-.39,0-.61C5.7,11,5.61,9.47,6.91,9.36,7.57,9.44,7.46,11.69,7.42,12.66Z"/><path class="cls-1" d="M32.87,16.91a5.8,5.8,0,0,0-1.2-.13A4.5,4.5,0,0,0,27,20a5.28,5.28,0,0,0,3.65,6.72,6.24,6.24,0,0,0,1.7.26h0c2.23,0,3.77-1.55,4.34-4.35S35.84,17.8,32.87,16.91Zm2.74,4.27a.51.51,0,0,0-.4.18.58.58,0,0,0-.13.38.53.53,0,0,0,.54.55h.09a6.09,6.09,0,0,1-.78,2.39,3.08,3.08,0,0,1-2.48,1.21h0a2,2,0,0,1,0-.22.5.5,0,0,0-.13-.38.55.55,0,0,0-.4-.16.56.56,0,0,0-.58.53s0,.07,0,.13L31,25.69a3.9,3.9,0,0,1-2.93-3.42l.12,0a.46.46,0,0,0,.41-.52.6.6,0,0,0-.55-.54v-.05c0-.1,0-.2,0-.31a3.34,3.34,0,0,1,3.17-2.92v.13a.55.55,0,0,0,1.11,0v-.1h0l.21,0c1.35.4,3,1.28,3.16,3.2Z"/><path class="cls-1" d="M42.88,3.2l-.17,0a.52.52,0,0,0-.51.47.54.54,0,0,0,.38.62c1.23.39,1.25,2.45,1.27,3.81,0,.3,0,.57,0,.78.09,1.34.12,2.79.09,4.42a.51.51,0,0,0,.14.38.57.57,0,0,0,.4.16.54.54,0,0,0,.56-.54,46.81,46.81,0,0,0-.37-7.45C44.51,4.53,44.13,3.59,42.88,3.2Z"/><path class="cls-1" d="M40.5,3.78h0a.53.53,0,0,0,.54-.55.54.54,0,0,0-.58-.55.53.53,0,0,0-.54.55.58.58,0,0,0,.13.38A.51.51,0,0,0,40.5,3.78Z"/><path class="cls-1" d="M33.86,20.63a3.92,3.92,0,0,0,.07-.61.56.56,0,0,0-.17-.39.54.54,0,0,0-.38-.17.44.44,0,0,0-.16,0,3.34,3.34,0,0,1-.59.15,1.83,1.83,0,0,0-.39.1,2,2,0,0,0-.62-.1,1.78,1.78,0,0,0-1.11.39,2.68,2.68,0,0,0-.94,1.47,2.15,2.15,0,0,0,.59,1.79,2.25,2.25,0,0,0,1.74.85,2,2,0,0,0,1.31-.48,2.2,2.2,0,0,0,.59-2.56A4.63,4.63,0,0,1,33.86,20.63Zm-1.07,1.75a1.08,1.08,0,0,1-1,.64,1.05,1.05,0,0,1-.85-.47A1.07,1.07,0,0,1,31,21a.87.87,0,0,1,.63-.27,1,1,0,0,1,.79.43l.07.09h0A1,1,0,0,1,32.79,22.38Z"/></g></g></svg>