<svg xmlns="http://www.w3.org/2000/svg" width="38.72" height="54" viewBox="0 0 38.72 54"><defs><style>.cls-1{fill:#fff;}</style></defs><title>settings</title><g id="Layer_2" data-name="Layer 2"><g id="Layer_3" data-name="Layer 3"><path class="cls-1" d="M8.07,41.92C8.06,40.06,8,25.33,8,25.33c0-.25,0-.58.07-1,.11-1.22.27-2.9-.5-3.46a2.3,2.3,0,0,0-1.32-.27c-.32,0-.65,0-.94,0l-.61,0,0,.09h0L4.6,20.7l-.06.09c0-2.44-.07-4.87-.11-7.3q0-2.27-.08-4.54a.53.53,0,0,0-.56-.53.56.56,0,0,0-.4.16A.51.51,0,0,0,3.25,9q0,2.27.08,4.54c0,2.4.09,4.81.11,7.22H2.76c-.4,0-.79,0-1.2,0H.69a.5.5,0,0,0-.43.24.52.52,0,0,0-.11.31A222,222,0,0,0,.59,45.54a.57.57,0,0,0,.55.54h0c.36,0,.72,0,1.08,0s1,0,1.45,0h0c.07,2.47.17,4.93.27,7.39a.57.57,0,0,0,1,.37.5.5,0,0,0,.13-.38C5,51,4.87,48.58,4.8,46.1H6.57A1.6,1.6,0,0,0,8,45.58a5.14,5.14,0,0,0,.14-2.7C8.1,42.5,8.07,42.16,8.07,41.92Zm-6.69-.3c0-.33,0-.62,0-.81-.31-5.88-.36-12.11-.15-19H1.5c.4,0,.79,0,1.19,0H4.91l.43,0c.28,0,.62,0,.94,0,.66,0,.78.09.8.12A6.47,6.47,0,0,1,7,23.4c0,.3-.07.55-.07.65v2.13q0,2.64,0,5.27c0,3.94,0,8,.07,12,0,.2,0,.37,0,.52,0,.53.06.75-.41,1a2,2,0,0,1-.8.11l-.71,0-.57,0h0l-.45,0c-.31,0-.71,0-1.08,0a2.5,2.5,0,0,1-1.1-.15C1.33,44.61,1.36,42.73,1.38,41.61Z"/><path class="cls-1" d="M17.49,12.41a3,3,0,0,0-1.36-.24c-.39,0-.8,0-1.17.06l-.28,0c0-2.41-.07-4.81-.11-7.22q0-2.25-.08-4.5A.53.53,0,0,0,13.94,0a.56.56,0,0,0-.4.16.51.51,0,0,0-.14.38q0,2.25.08,4.5c0,2.41.09,4.81.11,7.22h-.17c-.31,0-.63,0-1,0-.78,0-1.85.1-2.23,1a.54.54,0,0,0-.07.26c0,2-.08,4.72,0,7.41.07,1.51.46,1.74,2,1.82.41,0,.83,0,1.26,0h.23c.05,2,.07,4.08.1,6.13,0,2.83.06,5.76.17,8.64a.57.57,0,0,0,1,.37.5.5,0,0,0,.13-.38c-.11-2.88-.14-5.81-.17-8.65,0-2,0-4.09-.1-6.14.73,0,1.44-.09,2.11-.16.85-.1,1.07-.22,1.18-1.12a26.71,26.71,0,0,0,.07-3.71c0-.66,0-1.31,0-2,0-.22,0-.48.05-.75C18.24,14.05,18.35,12.87,17.49,12.41ZM17,21.15a1.75,1.75,0,0,1,0,.28,4,4,0,0,1-.74.05h-.6c-.39,0-.79,0-1.18.06s-1,.07-1.55.07h-.33c-.76,0-1.11-.06-1.29-.77a5.26,5.26,0,0,1-.07-1.43c0-.22,0-.44,0-.64,0-1.62,0-3.31,0-5.1.17-.24.71-.36,1.6-.36.39,0,.77,0,1.06,0l.42,0,.63,0c.32,0,.69-.06,1-.06a1.68,1.68,0,0,1,.83.14c.44.3.31,2,.22,3.08,0,.36-.05.67-.05.87,0,.4,0,.82,0,1.25A14.46,14.46,0,0,0,17,21.15Z"/><path class="cls-1" d="M38.61,32.16c0-.22,0-.48.05-.75.09-1,.21-2.14-.65-2.59a2.94,2.94,0,0,0-1.36-.24c-.39,0-.79,0-1.16.06l-.29,0,0-4.32c0-4.41-.08-8.82-.15-13.23a.53.53,0,0,0-.56-.53.56.56,0,0,0-.4.16.51.51,0,0,0-.14.38c.07,4.41.11,8.82.15,13.23l0,4.32h-.17c-.31,0-.63,0-1,0-.78,0-1.85.1-2.23,1a.53.53,0,0,0-.07.26c0,2-.08,4.7,0,7.41.07,1.51.46,1.74,2,1.82.4,0,.82,0,1.25,0h.25c.06,1.93.14,3.85.22,5.78l0,1.14a.57.57,0,0,0,1,.37.5.5,0,0,0,.13-.38l0-1c-.08-2-.17-3.94-.23-5.91.74,0,1.45-.09,2.11-.16.85-.1,1.07-.22,1.18-1.12a26.7,26.7,0,0,0,.07-3.71C38.62,33.46,38.6,32.8,38.61,32.16Zm-1.13,5.4a1.74,1.74,0,0,1,0,.28,4,4,0,0,1-.74.05h-.59c-.39,0-.79,0-1.18.06s-1,.07-1.55.07h-.33c-.76,0-1.11-.07-1.29-.77a5.26,5.26,0,0,1-.07-1.43c0-.22,0-.44,0-.64,0-1.62,0-3.3,0-5.1.17-.24.71-.37,1.6-.37.39,0,.77,0,1.06,0l.43,0,.63,0c.32,0,.69-.06,1-.06a1.68,1.68,0,0,1,.83.14c.44.3.31,2,.22,3.08,0,.36-.05.67-.05.87,0,.4,0,.82,0,1.25A14.45,14.45,0,0,0,37.48,37.55Z"/><path class="cls-1" d="M28.34,34.9l-.05-10.06c0-.23,0-.52.06-.85.1-1.14.23-2.56-.49-3.09a2.3,2.3,0,0,0-1.32-.27c-.32,0-.65,0-.94,0l-.6,0,0,.09h0l-.06-.09-.06.09q-.07-7.14-.19-14.28A.53.53,0,0,0,24.07,6a.56.56,0,0,0-.4.16.51.51,0,0,0-.14.38q.11,7.1.19,14.19H23c-.4,0-.8,0-1.2,0H21a.5.5,0,0,0-.44.24.53.53,0,0,0-.11.31,152.25,152.25,0,0,0,.45,17.26.57.57,0,0,0,.55.54h0c.36,0,.72,0,1.08,0s1,0,1.45,0h0c0,1.58.07,3.16.09,4.74,0,2.43.08,4.93.18,7.4a.55.55,0,0,0,.57.53.55.55,0,0,0,.4-.16.5.5,0,0,0,.13-.38c-.09-2.46-.14-5-.18-7.39,0-1.56-.05-3.12-.1-4.72h1.77a1.6,1.6,0,0,0,1.44-.53,5.06,5.06,0,0,0,.14-2.68C28.38,35.48,28.35,35.15,28.34,34.9Zm-1.11-2,0,0-1.5,1.24c-1.23,1-2.49,2.07-3.81,3,0-.09,0-.19,0-.31a13.62,13.62,0,0,1-.13-1.47v-.52l1.39-1.17c1.37-1.14,2.78-2.32,4.12-3.55C27.21,30.69,27.23,32.9,27.23,32.9Zm-.51-11.14c.36,0,.47.07.5.1a8.11,8.11,0,0,1,.07,2.29l-.08,0-.15.14c-1.8,1.64-3.66,3.32-5.62,4.83q0-1.54,0-3.09a.52.52,0,0,0,.2-.1c1.64-1.4,3.33-2.79,5-4.13Zm-5.17,8.7c2-1.46,3.8-3.09,5.65-4.77V28l0,.6C25.66,30.1,24,31.47,22.41,32.8l-.81.68q-.09-1.49-.13-3Zm5,4.37.7-.58v.56c0,.47,0,.94,0,1.41,0,.09,0,.23,0,.39,0,.4.12,1.13,0,1.3s-.15.1-.72.1c-.29,0-.61,0-.88,0l-.46,0-.51,0-.83,0a4.86,4.86,0,0,1-1.18-.12h0C24,36.93,25.29,35.87,26.54,34.84Zm-5-13.06h.28c.4,0,.79,0,1.19,0h2c-1.29,1-2.45,2-3.53,2.9Q21.46,23.24,21.5,21.77Z"/></g></g></svg>