<svg xmlns="http://www.w3.org/2000/svg" width="35.18" height="46" viewBox="0 0 35.18 46"><defs><style>.cls-1{fill:#fff;}</style></defs><title>strawberry</title><g id="Layer_2" data-name="Layer 2"><g id="Layer_3" data-name="Layer 3"><path class="cls-1" d="M30.92,12.37a7.87,7.87,0,0,0,.95-.63.55.55,0,0,0-.24-.91,40.08,40.08,0,0,1-6.3-2.31,15.7,15.7,0,0,0-5.57-.87A20.2,20.2,0,0,0,19,1.32C18.48-.47,17.56,0,15.88.29A.55.55,0,0,0,15.5,1a20.55,20.55,0,0,1,.7,6.44,18.42,18.42,0,0,0-5,.82c-2,.67-3.84,2.1-6,2.2a.55.55,0,0,0-.47.82,3.83,3.83,0,0,0,.58.79c-11.54,6.58-1.32,23.33,5.14,29.85,2.85,2.88,6.17,5.31,10.24,3.48,5.43-2.45,9.47-8.28,11.81-13.54C35.07,25.86,37.6,16.35,30.92,12.37ZM16.73,8.46a.5.5,0,0,0,.46-.29l0-.06v0a.56.56,0,0,0,0-.18,21.44,21.44,0,0,0-.59-6.66l.6-.11q.71-.35.67.47a6.12,6.12,0,0,1,.45,1.93,20.37,20.37,0,0,1,.26,4.65.46.46,0,0,0,.24.44.5.5,0,0,0,.31.11,17.11,17.11,0,0,1,7.14,1.41,33.19,33.19,0,0,0,3.81,1.44c-2.51,1.33-5.46.65-8-.56a.55.55,0,0,0-.75.75,6.75,6.75,0,0,1,.27,4.54c-1.46-.82-2.68-1.81-2.88-3.68-.05-.48-.76-.82-1-.28a7.49,7.49,0,0,1-4.53,3.76c0-1.63-.19-3.42,1-4.72.39-.44-.11-1.2-.66-.86-1.81,1.15-5.6,2.59-7.44.84a13.48,13.48,0,0,0,3-1.13A18.53,18.53,0,0,1,16.73,8.46ZM29.14,35.63c-2.31,3.64-7.92,11-13.13,9.08s-9.17-8.33-11.6-13c-3.15-6-5.9-14.82,1.6-18.91a.52.52,0,0,0,.12-.11c1.79,1,4.34.48,6.36-.4a17.27,17.27,0,0,0-.32,4.55.55.55,0,0,0,.69.53A9.92,9.92,0,0,0,18.06,14a7.06,7.06,0,0,0,3.72,3.57.55.55,0,0,0,.8-.33,9.93,9.93,0,0,0,.2-4.8,9.86,9.86,0,0,0,6.93.46l.07.06C38,17.15,32.83,29.83,29.14,35.63Z"/><path class="cls-1" d="M7.38,18.69v0a.55.55,0,0,0-.7-.48.42.42,0,0,0-.38.39,9.92,9.92,0,0,0-.5,1.93.93.93,0,0,0,1,1.09C8.09,21.4,7.48,19.5,7.38,18.69Z"/><path class="cls-1" d="M13.87,20a.46.46,0,0,0-.52.38,11.72,11.72,0,0,0-.41,2,.94.94,0,0,0,1,1.06c.56-.1.78-.71.8-1.21a8.66,8.66,0,0,0-.35-1.85A.45.45,0,0,0,13.87,20Z"/><path class="cls-1" d="M8.29,26a.45.45,0,0,0-.53.38,12.54,12.54,0,0,0-.35,2,1,1,0,0,0,1,1.05c.56-.1.77-.72.77-1.22a8.36,8.36,0,0,0-.4-1.84A.46.46,0,0,0,8.29,26Z"/><path class="cls-1" d="M22.81,22.31A1.16,1.16,0,0,0,23.48,21,8.56,8.56,0,0,0,23,19.3a.42.42,0,0,0-.38-.39.55.55,0,0,0-.69.48v0a10.51,10.51,0,0,0-.21,1.94A.94.94,0,0,0,22.81,22.31Z"/><path class="cls-1" d="M17.88,26.81a.45.45,0,0,0-.53.38,12.54,12.54,0,0,0-.35,2,1,1,0,0,0,1,1.05c.56-.1.77-.72.77-1.22a8.35,8.35,0,0,0-.4-1.84A.46.46,0,0,0,17.88,26.81Z"/><path class="cls-1" d="M29.37,17.69a.45.45,0,0,0-.53.38,12.54,12.54,0,0,0-.35,2,1,1,0,0,0,1,1.05c.56-.1.77-.72.77-1.22a8.35,8.35,0,0,0-.4-1.84A.46.46,0,0,0,29.37,17.69Z"/><path class="cls-1" d="M17.52,38.44a.45.45,0,0,0-.53.38,12.55,12.55,0,0,0-.35,2,1,1,0,0,0,1,1.05c.56-.1.77-.72.77-1.22a8.35,8.35,0,0,0-.4-1.84A.46.46,0,0,0,17.52,38.44Z"/><path class="cls-1" d="M23.3,32.9a.45.45,0,0,0-.53.38,12.54,12.54,0,0,0-.35,2,1,1,0,0,0,1,1.05c.56-.1.77-.72.77-1.22a8.36,8.36,0,0,0-.4-1.84A.46.46,0,0,0,23.3,32.9Z"/><path class="cls-1" d="M12.33,32.41a.45.45,0,0,0-.53.38,12.55,12.55,0,0,0-.35,2,1,1,0,0,0,1,1.05c.56-.1.77-.72.77-1.22a8.35,8.35,0,0,0-.4-1.84A.46.46,0,0,0,12.33,32.41Z"/><path class="cls-1" d="M26.4,26a.45.45,0,0,0-.53.38,12.55,12.55,0,0,0-.35,2,1,1,0,0,0,1,1.05c.56-.1.77-.72.77-1.22a8.36,8.36,0,0,0-.4-1.84A.46.46,0,0,0,26.4,26Z"/></g></g></svg>